<?xml version="1.0" encoding="utf-8" standalone="no"?>
<!DOCTYPE svg PUBLIC "-//W3C//DTD SVG 1.1//EN"
  "http://www.w3.org/Graphics/SVG/1.1/DTD/svg11.dtd">
<!-- Created with matplotlib (http://matplotlib.org/) -->
<svg height="288pt" version="1.1" viewBox="0 0 432 288" width="432pt" xmlns="http://www.w3.org/2000/svg" xmlns:xlink="http://www.w3.org/1999/xlink">
 <defs>
  <style type="text/css">
*{stroke-linecap:butt;stroke-linejoin:round;}
  </style>
 </defs>
 <g id="figure_1">
  <g id="patch_1">
   <path d="M 0 288 
L 432 288 
L 432 0 
L 0 0 
z
" style="fill:#ffffff;"/>
  </g>
  <g id="axes_1">
   <g id="patch_2">
    <path d="M 54 230.4 
L 388.8 230.4 
L 388.8 34.56 
L 54 34.56 
z
" style="fill:#ffffff;"/>
   </g>
   <g id="matplotlib.axis_1">
    <g id="xtick_1">
     <g id="line2d_1">
      <defs>
       <path d="M 0 0 
L 0 3.5 
" id="mf5aa10e26b" style="stroke:#000000;stroke-width:0.8;"/>
      </defs>
      <g>
       <use style="stroke:#000000;stroke-width:0.8;" x="102.625994" xlink:href="#mf5aa10e26b" y="230.4"/>
      </g>
     </g>
     <g id="text_1">
      <!-- 2014 -->
      <defs>
       <path d="M 41.703125 15.453125 
L 39.90625 15.453125 
C 38.90625 8.375 38.09375 7.171875 37.703125 6.5625 
C 37.203125 5.765625 30 5.765625 28.59375 5.765625 
L 9.40625 5.765625 
C 13 9.671875 20 16.75 28.5 24.953125 
C 34.59375 30.734375 41.703125 37.53125 41.703125 47.421875 
C 41.703125 59.21875 32.296875 66 21.796875 66 
C 10.796875 66 4.09375 56.3125 4.09375 47.34375 
C 4.09375 43.4375 7 42.9375 8.203125 42.9375 
C 9.203125 42.9375 12.203125 43.546875 12.203125 47.03125 
C 12.203125 50.109375 9.59375 51 8.203125 51 
C 7.59375 51 7 50.90625 6.59375 50.703125 
C 8.5 59.21875 14.296875 63.40625 20.40625 63.40625 
C 29.09375 63.40625 34.796875 56.515625 34.796875 47.421875 
C 34.796875 38.734375 29.703125 31.25 24 24.75 
L 4.09375 2.28125 
L 4.09375 0 
L 39.296875 0 
z
" id="CMR17-50"/>
       <path d="M 42 31.640625 
C 42 37.75 41.90625 48.125 37.703125 56.109375 
C 34 63.109375 28.09375 65.59375 22.90625 65.59375 
C 18.09375 65.59375 12 63.40625 8.203125 56.203125 
C 4.203125 48.71875 3.796875 39.4375 3.796875 31.640625 
C 3.796875 25.953125 3.90625 17.28125 7 9.671875 
C 11.296875 -0.609375 19 -2 22.90625 -2 
C 27.5 -2 34.5 -0.109375 38.59375 9.375 
C 41.59375 16.28125 42 24.359375 42 31.640625 
z
M 22.90625 -0.40625 
C 16.5 -0.40625 12.703125 5.078125 11.296875 12.6875 
C 10.203125 18.5625 10.203125 27.15625 10.203125 32.75 
C 10.203125 40.4375 10.203125 46.828125 11.5 52.921875 
C 13.40625 61.390625 19 64 22.90625 64 
C 27 64 32.296875 61.296875 34.203125 53.125 
C 35.5 47.4375 35.59375 40.734375 35.59375 32.75 
C 35.59375 26.25 35.59375 18.265625 34.40625 12.375 
C 32.296875 1.484375 26.40625 -0.40625 22.90625 -0.40625 
z
" id="CMR17-48"/>
       <path d="M 26.59375 63.40625 
C 26.59375 65.5 26.5 65.5 25.09375 65.5 
C 21.203125 61.1875 15.296875 59.796875 9.703125 59.796875 
C 9.40625 59.796875 8.90625 59.796875 8.796875 59.5 
C 8.703125 59.296875 8.703125 59.09375 8.703125 57 
C 11.796875 57 17 57.59375 21 59.984375 
L 21 7.203125 
C 21 3.6875 20.796875 2.5 12.203125 2.5 
L 9.203125 2.5 
L 9.203125 0 
C 14 0 19 0 23.796875 0 
C 28.59375 0 33.59375 0 38.40625 0 
L 38.40625 2.5 
L 35.40625 2.5 
C 26.796875 2.5 26.59375 3.59375 26.59375 7.15625 
z
" id="CMR17-49"/>
       <path d="M 33.59375 64.40625 
C 33.59375 66.5 33.5 66.5 31.703125 66.5 
L 2 19.59375 
L 2 17 
L 27.796875 17 
L 27.796875 7.140625 
C 27.796875 3.5 27.59375 2.5 20.59375 2.5 
L 18.703125 2.5 
L 18.703125 0 
C 21.90625 0 27.296875 0 30.703125 0 
C 34.09375 0 39.5 0 42.703125 0 
L 42.703125 2.5 
L 40.796875 2.5 
C 33.796875 2.5 33.59375 3.5 33.59375 7.140625 
L 33.59375 17 
L 43.796875 17 
L 43.796875 19.59375 
L 33.59375 19.59375 
z
M 28.09375 57.859375 
L 28.09375 19.59375 
L 4 19.59375 
z
" id="CMR17-52"/>
      </defs>
      <g transform="translate(81.188343 256.295879)rotate(-30)scale(0.12 -0.12)">
       <use transform="scale(0.996264)" xlink:href="#CMR17-50"/>
       <use transform="translate(45.690477 0)scale(0.996264)" xlink:href="#CMR17-48"/>
       <use transform="translate(91.380954 0)scale(0.996264)" xlink:href="#CMR17-49"/>
       <use transform="translate(137.071431 0)scale(0.996264)" xlink:href="#CMR17-52"/>
      </g>
     </g>
    </g>
    <g id="xtick_2">
     <g id="line2d_2">
      <g>
       <use style="stroke:#000000;stroke-width:0.8;" x="163.90163" xlink:href="#mf5aa10e26b" y="230.4"/>
      </g>
     </g>
     <g id="text_2">
      <!-- 2015 -->
      <defs>
       <path d="M 11.40625 57.6875 
C 12.40625 57.28125 16.5 56 20.703125 56 
C 30 56 35.09375 61.109375 38 64.0625 
C 38 64.953125 38 65.5 37.40625 65.5 
C 37.296875 65.5 37.09375 65.5 36.296875 65.046875 
C 32.796875 63.40625 28.703125 62.078125 23.703125 62.078125 
C 20.703125 62.078125 16.203125 62.484375 11.296875 64.671875 
C 10.203125 65.171875 10 65.171875 9.90625 65.171875 
C 9.40625 65.171875 9.296875 65.0625 9.296875 63.078125 
L 9.296875 34.421875 
C 9.296875 32.640625 9.296875 32.140625 10.296875 32.140625 
C 10.796875 32.140625 11 32.34375 11.5 33.03125 
C 14.703125 37.515625 19.09375 39.40625 24.09375 39.40625 
C 27.59375 39.40625 35.09375 37.21875 35.09375 20.140625 
C 35.09375 16.953125 35.09375 11.171875 32.09375 6.578125 
C 29.59375 2.484375 25.703125 0.390625 21.40625 0.390625 
C 14.796875 0.390625 8.09375 5 6.296875 12.71875 
C 6.703125 12.609375 7.5 12.421875 7.90625 12.421875 
C 9.203125 12.421875 11.703125 13.125 11.703125 16.21875 
C 11.703125 18.90625 9.796875 20 7.90625 20 
C 5.59375 20 4.09375 18.59375 4.09375 15.796875 
C 4.09375 7.09375 11 -2 21.59375 -2 
C 31.90625 -2 41.703125 6.875 41.703125 19.75 
C 41.703125 31.71875 33.90625 41 24.203125 41 
C 19.09375 41 14.796875 39.109375 11.40625 35.53125 
z
" id="CMR17-53"/>
      </defs>
      <g transform="translate(142.463979 256.295879)rotate(-30)scale(0.12 -0.12)">
       <use transform="scale(0.996264)" xlink:href="#CMR17-50"/>
       <use transform="translate(45.690477 0)scale(0.996264)" xlink:href="#CMR17-48"/>
       <use transform="translate(91.380954 0)scale(0.996264)" xlink:href="#CMR17-49"/>
       <use transform="translate(137.071431 0)scale(0.996264)" xlink:href="#CMR17-53"/>
      </g>
     </g>
    </g>
    <g id="xtick_3">
     <g id="line2d_3">
      <g>
       <use style="stroke:#000000;stroke-width:0.8;" x="225.177265" xlink:href="#mf5aa10e26b" y="230.4"/>
      </g>
     </g>
     <g id="text_3">
      <!-- 2016 -->
      <defs>
       <path d="M 10.59375 34 
C 10.59375 57.65625 21.796875 63 28.296875 63 
C 30.40625 63 35.5 62.640625 37.5 59 
C 35.90625 59 32.90625 59 32.90625 55.515625 
C 32.90625 52.828125 35.09375 51.921875 36.5 51.921875 
C 37.40625 51.921875 40.09375 52.3125 40.09375 55.625 
C 40.09375 61.78125 35.09375 65.296875 28.203125 65.296875 
C 16.296875 65.296875 3.796875 52.96875 3.796875 31 
C 3.796875 3.953125 15.09375 -2 23.09375 -2 
C 32.796875 -2 42 6.671875 42 20.046875 
C 42 32.515625 33.90625 41.59375 23.703125 41.59375 
C 17.59375 41.59375 13.09375 37.609375 10.59375 30.625 
z
M 23.09375 0.390625 
C 10.796875 0.390625 10.796875 18.75 10.796875 22.4375 
C 10.796875 29.625 14.203125 40 23.5 40 
C 25.203125 40 30.09375 40 33.40625 33.125 
C 35.203125 29.21875 35.203125 25.140625 35.203125 20.140625 
C 35.203125 14.75 35.203125 10.78125 33.09375 6.78125 
C 30.90625 2.671875 27.703125 0.390625 23.09375 0.390625 
z
" id="CMR17-54"/>
      </defs>
      <g transform="translate(203.739614 256.295879)rotate(-30)scale(0.12 -0.12)">
       <use transform="scale(0.996264)" xlink:href="#CMR17-50"/>
       <use transform="translate(45.690477 0)scale(0.996264)" xlink:href="#CMR17-48"/>
       <use transform="translate(91.380954 0)scale(0.996264)" xlink:href="#CMR17-49"/>
       <use transform="translate(137.071431 0)scale(0.996264)" xlink:href="#CMR17-54"/>
      </g>
     </g>
    </g>
    <g id="xtick_4">
     <g id="line2d_4">
      <g>
       <use style="stroke:#000000;stroke-width:0.8;" x="286.620779" xlink:href="#mf5aa10e26b" y="230.4"/>
      </g>
     </g>
     <g id="text_4">
      <!-- 2017 -->
      <defs>
       <path d="M 45.09375 61.578125 
L 45.09375 63.765625 
L 21.59375 63.765625 
C 9.90625 63.765625 9.703125 65.078125 9.296875 67 
L 7.5 67 
L 4.59375 48.34375 
L 6.40625 48.34375 
C 6.703125 50.234375 7.40625 55.3125 8.59375 57.203125 
C 9.203125 58 16.59375 58 18.296875 58 
L 40.296875 58 
L 29.203125 41.578125 
C 21.796875 30.53125 16.703125 15.609375 16.703125 2.578125 
C 16.703125 1.390625 16.703125 -2 20.296875 -2 
C 23.90625 -2 23.90625 1.390625 23.90625 2.671875 
L 23.90625 7.265625 
C 23.90625 23.5625 26.703125 34.3125 31.296875 41.1875 
z
" id="CMR17-55"/>
      </defs>
      <g transform="translate(265.183128 256.295879)rotate(-30)scale(0.12 -0.12)">
       <use transform="scale(0.996264)" xlink:href="#CMR17-50"/>
       <use transform="translate(45.690477 0)scale(0.996264)" xlink:href="#CMR17-48"/>
       <use transform="translate(91.380954 0)scale(0.996264)" xlink:href="#CMR17-49"/>
       <use transform="translate(137.071431 0)scale(0.996264)" xlink:href="#CMR17-55"/>
      </g>
     </g>
    </g>
    <g id="xtick_5">
     <g id="line2d_5">
      <g>
       <use style="stroke:#000000;stroke-width:0.8;" x="347.896415" xlink:href="#mf5aa10e26b" y="230.4"/>
      </g>
     </g>
     <g id="text_5">
      <!-- 2018 -->
      <defs>
       <path d="M 27.203125 35.375 
C 33.5 38.546875 39.90625 43.328125 39.90625 50.984375 
C 39.90625 60.015625 31.09375 65.296875 23 65.296875 
C 13.90625 65.296875 5.90625 58.734375 5.90625 49.6875 
C 5.90625 47.203125 6.5 42.921875 10.40625 39.140625 
C 11.40625 38.15625 15.59375 35.171875 18.296875 33.28125 
C 13.796875 30.984375 3.296875 25.53125 3.296875 14.59375 
C 3.296875 4.359375 13.09375 -2 22.796875 -2 
C 33.5 -2 42.5 5.65625 42.5 15.78125 
C 42.5 24.84375 36.40625 29.015625 32.40625 31.703125 
z
M 14.09375 44.09375 
C 13.296875 44.59375 9.296875 47.671875 9.296875 52.359375 
C 9.296875 58.421875 15.59375 63 22.796875 63 
C 30.703125 63 36.5 57.4375 36.5 50.96875 
C 36.5 41.703125 26.09375 36.421875 25.59375 36.421875 
C 25.5 36.421875 25.40625 36.421875 24.59375 37.03125 
z
M 32.5 23.734375 
C 34 22.640625 38.796875 19.375 38.796875 13.296875 
C 38.796875 5.953125 31.40625 0.390625 23 0.390625 
C 13.90625 0.390625 7 6.84375 7 14.6875 
C 7 22.546875 13.09375 29.09375 20 32.1875 
z
" id="CMR17-56"/>
      </defs>
      <g transform="translate(326.458764 256.295879)rotate(-30)scale(0.12 -0.12)">
       <use transform="scale(0.996264)" xlink:href="#CMR17-50"/>
       <use transform="translate(45.690477 0)scale(0.996264)" xlink:href="#CMR17-48"/>
       <use transform="translate(91.380954 0)scale(0.996264)" xlink:href="#CMR17-49"/>
       <use transform="translate(137.071431 0)scale(0.996264)" xlink:href="#CMR17-56"/>
      </g>
     </g>
    </g>
    <g id="text_6">
     <!-- date -->
     <defs>
      <path d="M 29.203125 67.59375 
L 29.203125 65 
C 35.09375 65 36 64.40625 36 59.6875 
L 36 36.640625 
C 35.59375 37.140625 31.5 43.59375 23.40625 43.59375 
C 13.203125 43.59375 3.296875 34.5 3.296875 21.3125 
C 3.296875 8.203125 12.59375 -1 22.40625 -1 
C 30.90625 -1 35.296875 5.265625 35.796875 5.9375 
L 35.796875 -0.984375 
L 47.90625 -0.984375 
L 47.90625 2 
C 42 2 41.09375 2.59375 41.09375 7.390625 
L 41.09375 68.6875 
z
M 35.796875 11.796875 
C 35.796875 8.796875 34 6.09375 31.703125 4.09375 
C 28.296875 1.09375 24.90625 0.59375 23 0.59375 
C 20.09375 0.59375 9.703125 2.09375 9.703125 21.1875 
C 9.703125 40.8125 21.296875 42 23.90625 42 
C 28.5 42 32.203125 39.40625 34.5 35.796875 
C 35.796875 33.703125 35.796875 33.40625 35.796875 31.609375 
z
" id="CMR17-100"/>
      <path d="M 36 25.828125 
C 36 32.375 36 35.84375 31.796875 39.734375 
C 28.09375 43 23.796875 44 20.40625 44 
C 12.5 44 6.796875 37.609375 6.796875 30.796875 
C 6.796875 27 9.796875 27 10.40625 27 
C 11.703125 27 14 27.78125 14 30.53125 
C 14 33 12.09375 34.078125 10.40625 34.078125 
C 10 34.078125 9.5 33.96875 9.203125 33.875 
C 11.296875 40.5 16.703125 42.40625 20.203125 42.40625 
C 25.203125 42.40625 30.703125 37.953125 30.703125 29.453125 
L 30.703125 25 
C 24.796875 25 17.703125 24.203125 12.09375 21.203125 
C 5.796875 17.703125 4 12.703125 4 8.90625 
C 4 1.203125 13 -1 18.296875 -1 
C 23.796875 -1 28.90625 2.171875 31.09375 7.984375 
C 31.296875 3.640625 34.09375 -0.28125 38.5 -0.28125 
C 40.59375 -0.28125 45.90625 1.09375 45.90625 8.859375 
L 45.90625 14.375 
L 44.09375 14.375 
L 44.09375 8.78125 
C 44.09375 2.78125 41.40625 2 40.09375 2 
C 36 2 36 7.15625 36 11.53125 
z
M 30.703125 13.59375 
C 30.703125 4.953125 24.5 0.59375 19 0.59375 
C 14 0.59375 10.09375 4.296875 10.09375 8.90625 
C 10.09375 11.890625 11.40625 17.1875 17.203125 20.390625 
C 22 23.09375 27.5 23.5 30.703125 23.5 
z
" id="CMR17-97"/>
      <path d="M 15.09375 40 
L 29.09375 40 
L 29.09375 42.578125 
L 15.09375 42.578125 
L 15.09375 61 
L 13.296875 61 
C 13.09375 50.703125 9.59375 41.6875 1.09375 41.6875 
L 1.09375 40 
L 9.796875 40 
L 9.796875 12.046875 
C 9.796875 10.15625 9.796875 -1 21.40625 -1 
C 27.296875 -1 30.703125 4.78125 30.703125 12.140625 
L 30.703125 17.8125 
L 28.90625 17.8125 
L 28.90625 12.234375 
C 28.90625 5.375 26.203125 0.796875 22 0.796875 
C 19.09375 0.796875 15.09375 2.78125 15.09375 11.84375 
z
" id="CMR17-116"/>
      <path d="M 38.09375 23 
C 38.5 23.40625 38.5 23.609375 38.5 24.625 
C 38.5 34.96875 33.09375 44 21.703125 44 
C 11.09375 44 2.703125 33.890625 2.703125 21.609375 
C 2.703125 8.609375 12.203125 -1 22.796875 -1 
C 34 -1 38.40625 9.484375 38.40625 11.5625 
C 38.40625 12.25 37.796875 12.25 37.59375 12.25 
C 36.90625 12.25 36.796875 12.046875 36.40625 10.875 
C 34.203125 4.140625 28.703125 0.796875 23.5 0.796875 
C 19.203125 0.796875 14.90625 3.171875 12.203125 7.5 
C 9.09375 12.546875 9.09375 18.375 9.09375 23 
z
M 9.203125 24.5 
C 9.90625 39.140625 17.59375 42.40625 21.59375 42.40625 
C 28.40625 42.40625 33 35.890625 33.09375 24.5 
z
" id="CMR17-101"/>
     </defs>
     <g transform="translate(210.344352 270.611218)scale(0.12 -0.12)">
      <use transform="scale(0.996264)" xlink:href="#CMR17-100"/>
      <use transform="translate(50.89537 0)scale(0.996264)" xlink:href="#CMR17-97"/>
      <use transform="translate(96.585847 0)scale(0.996264)" xlink:href="#CMR17-116"/>
      <use transform="translate(131.866615 0)scale(0.996264)" xlink:href="#CMR17-101"/>
     </g>
    </g>
   </g>
   <g id="matplotlib.axis_2">
    <g id="ytick_1">
     <g id="line2d_6">
      <defs>
       <path d="M 0 0 
L -3.5 0 
" id="mdf87e3ae0c" style="stroke:#000000;stroke-width:0.8;"/>
      </defs>
      <g>
       <use style="stroke:#000000;stroke-width:0.8;" x="54" xlink:href="#mdf87e3ae0c" y="221.498182"/>
      </g>
     </g>
     <g id="text_7">
      <!-- $0$ -->
      <g transform="translate(41.14701 225.649272)scale(0.12 -0.12)">
       <use transform="scale(0.996264)" xlink:href="#CMR17-48"/>
      </g>
     </g>
    </g>
    <g id="ytick_2">
     <g id="line2d_7">
      <g>
       <use style="stroke:#000000;stroke-width:0.8;" x="54" xlink:href="#mdf87e3ae0c" y="185.890909"/>
      </g>
     </g>
     <g id="text_8">
      <!-- $20$ -->
      <g transform="translate(35.294019 190.041999)scale(0.12 -0.12)">
       <use transform="scale(0.996264)" xlink:href="#CMR17-50"/>
       <use transform="translate(45.690477 0)scale(0.996264)" xlink:href="#CMR17-48"/>
      </g>
     </g>
    </g>
    <g id="ytick_3">
     <g id="line2d_8">
      <g>
       <use style="stroke:#000000;stroke-width:0.8;" x="54" xlink:href="#mdf87e3ae0c" y="150.283636"/>
      </g>
     </g>
     <g id="text_9">
      <!-- $40$ -->
      <g transform="translate(35.294019 154.434726)scale(0.12 -0.12)">
       <use transform="scale(0.996264)" xlink:href="#CMR17-52"/>
       <use transform="translate(45.690477 0)scale(0.996264)" xlink:href="#CMR17-48"/>
      </g>
     </g>
    </g>
    <g id="ytick_4">
     <g id="line2d_9">
      <g>
       <use style="stroke:#000000;stroke-width:0.8;" x="54" xlink:href="#mdf87e3ae0c" y="114.676364"/>
      </g>
     </g>
     <g id="text_10">
      <!-- $60$ -->
      <g transform="translate(35.294019 118.827454)scale(0.12 -0.12)">
       <use transform="scale(0.996264)" xlink:href="#CMR17-54"/>
       <use transform="translate(45.690477 0)scale(0.996264)" xlink:href="#CMR17-48"/>
      </g>
     </g>
    </g>
    <g id="ytick_5">
     <g id="line2d_10">
      <g>
       <use style="stroke:#000000;stroke-width:0.8;" x="54" xlink:href="#mdf87e3ae0c" y="79.069091"/>
      </g>
     </g>
     <g id="text_11">
      <!-- $80$ -->
      <g transform="translate(35.294019 83.220181)scale(0.12 -0.12)">
       <use transform="scale(0.996264)" xlink:href="#CMR17-56"/>
       <use transform="translate(45.690477 0)scale(0.996264)" xlink:href="#CMR17-48"/>
      </g>
     </g>
    </g>
    <g id="ytick_6">
     <g id="line2d_11">
      <g>
       <use style="stroke:#000000;stroke-width:0.8;" x="54" xlink:href="#mdf87e3ae0c" y="43.461818"/>
      </g>
     </g>
     <g id="text_12">
      <!-- $100$ -->
      <g transform="translate(29.441029 47.612908)scale(0.12 -0.12)">
       <use transform="scale(0.996264)" xlink:href="#CMR17-49"/>
       <use transform="translate(45.690477 0)scale(0.996264)" xlink:href="#CMR17-48"/>
       <use transform="translate(91.380954 0)scale(0.996264)" xlink:href="#CMR17-48"/>
      </g>
     </g>
    </g>
    <g id="text_13">
     <!-- dogs -->
     <defs>
      <path d="M 43.09375 21.1875 
C 43.09375 34 33.796875 44 22.90625 44 
C 12 44 2.703125 34 2.703125 21.1875 
C 2.703125 8.609375 12 -1 22.90625 -1 
C 33.796875 -1 43.09375 8.609375 43.09375 21.1875 
z
M 22.90625 0.796875 
C 18.203125 0.796875 14.203125 3.59375 11.90625 7.5 
C 9.40625 11.984375 9.09375 17.59375 9.09375 22 
C 9.09375 26.203125 9.296875 31.40625 11.90625 35.90625 
C 13.90625 39.203125 17.796875 42.40625 22.90625 42.40625 
C 27.40625 42.40625 31.203125 39.90625 33.59375 36.40625 
C 36.703125 31.703125 36.703125 25.109375 36.703125 22 
C 36.703125 18.09375 36.5 12.109375 33.796875 7.296875 
C 31 2.703125 26.703125 0.796875 22.90625 0.796875 
z
" id="CMR17-111"/>
      <path d="M 11.09375 18.1875 
C 13 16.6875 16.296875 15 20.296875 15 
C 28.203125 15 35 21.203125 35 29.5 
C 35 32.09375 34.203125 36.09375 31.203125 39.203125 
C 34 42.0625 38.09375 43 40.40625 43 
C 40.796875 43 41.40625 43 41.90625 42.71875 
C 41.5 42.625 40.59375 42.234375 40.59375 40.703125 
C 40.59375 39.484375 41.5 38.609375 42.796875 38.609375 
C 44.296875 38.609375 45.09375 39.578125 45.09375 40.84375 
C 45.09375 42.671875 43.59375 44.59375 40.40625 44.59375 
C 36.40625 44.59375 32.90625 42.78125 30.09375 40.3125 
C 27.09375 43.015625 23.5 44 20.296875 44 
C 12.40625 44 5.59375 37.796875 5.59375 29.5 
C 5.59375 23.78125 8.90625 20.1875 9.90625 19.1875 
C 6.90625 15.6875 6.90625 11.609375 6.90625 11.109375 
C 6.90625 8.515625 7.90625 4.71875 11.296875 2.625 
C 6.09375 1.328125 2 -2.640625 2 -7.59375 
C 2 -14.734375 11.5 -20 22.90625 -20 
C 33.90625 -20 43.796875 -14.9375 43.796875 -7.484375 
C 43.796875 6 29 6 21.296875 6 
C 19 6 14.90625 6 14.40625 6.109375 
C 11.296875 6.609375 9.203125 9.40625 9.203125 12.90625 
C 9.203125 13.796875 9.203125 16 11.09375 18.1875 
z
M 20.296875 16.6875 
C 11.5 16.6875 11.5 27.5 11.5 29.515625 
C 11.5 31.5 11.5 42.3125 20.296875 42.3125 
C 29.09375 42.3125 29.09375 31.5 29.09375 29.515625 
C 29.09375 27.5 29.09375 16.6875 20.296875 16.6875 
z
M 22.90625 -18.296875 
C 12.90625 -18.296875 6 -13.046875 6 -7.59375 
C 6 -4.515625 7.703125 -1.640625 9.90625 -0.0625 
C 12.40625 1.625 13.40625 1.625 20.203125 1.625 
C 28.40625 1.625 39.796875 1.625 39.796875 -7.59375 
C 39.796875 -13.046875 32.90625 -18.296875 22.90625 -18.296875 
z
" id="CMR17-103"/>
      <path d="M 30.90625 42.140625 
C 30.90625 43.953125 30.796875 44.046875 30.203125 44.046875 
C 29.796875 44.046875 29.703125 43.953125 28.5 42.453125 
C 28.203125 42.046875 27.296875 41.03125 27 40.640625 
C 23.796875 44.046875 19.296875 44.046875 17.59375 44.046875 
C 6.5 44.046875 2.5 38.234375 2.5 32.4375 
C 2.5 23.40625 12.703125 21.328125 15.59375 20.703125 
C 21.90625 19.421875 24.09375 19.015625 26.203125 17.203125 
C 27.5 16.015625 29.703125 13.8125 29.703125 10.21875 
C 29.703125 6 27.296875 0.59375 18.09375 0.59375 
C 9.40625 0.59375 6.296875 7.1875 4.5 15.953125 
C 4.203125 17.34375 4.203125 17.453125 3.40625 17.453125 
C 2.59375 17.453125 2.5 17.34375 2.5 15.359375 
L 2.5 0.984375 
C 2.5 -0.796875 2.59375 -0.90625 3.203125 -0.90625 
C 3.703125 -0.90625 3.796875 -0.796875 4.296875 0 
C 4.90625 0.890625 6.40625 3.296875 7 4.3125 
C 9 1.609375 12.5 -1 18.09375 -1 
C 28 -1 33.296875 4.421875 33.296875 12.25 
C 33.296875 17.375 30.59375 20.078125 29.296875 21.28125 
C 26.296875 24.390625 22.796875 25.09375 18.59375 25.890625 
C 13.09375 27.109375 6.09375 28.515625 6.09375 34.640625 
C 6.09375 37.234375 7.5 42.765625 17.59375 42.765625 
C 28.296875 42.765625 28.90625 32.71875 29.09375 29.5 
C 29.203125 29 29.703125 28.890625 30 28.890625 
C 30.90625 28.890625 30.90625 29.203125 30.90625 30.90625 
z
" id="CMR17-115"/>
     </defs>
     <g transform="translate(23.116433 143.893331)rotate(-90)scale(0.12 -0.12)">
      <use transform="scale(0.996264)" xlink:href="#CMR17-100"/>
      <use transform="translate(50.89537 0)scale(0.996264)" xlink:href="#CMR17-111"/>
      <use transform="translate(96.585847 0)scale(0.996264)" xlink:href="#CMR17-103"/>
      <use transform="translate(142.276324 0)scale(0.996264)" xlink:href="#CMR17-115"/>
     </g>
    </g>
   </g>
   <g id="line2d_12">
    <path clip-path="url(#p3e896ee2fc)" d="M 69.218182 193.012364 
L 70.393331 120.017455 
L 71.56848 166.306909 
L 72.743629 116.456727 
L 73.918779 169.867636 
L 75.093928 171.648 
L 76.269077 176.989091 
L 77.444226 118.237091 
L 78.619375 153.844364 
L 79.794524 176.989091 
L 80.969674 155.624727 
L 82.144823 157.405091 
L 83.319972 136.040727 
L 84.495121 200.133818 
L 85.67027 178.769455 
L 86.845419 169.867636 
L 88.020569 155.624727 
L 89.195718 132.48 
L 90.370867 134.260364 
L 91.546016 198.353455 
L 92.721165 82.629818 
L 93.896314 84.410182 
L 95.071464 198.353455 
L 96.246613 89.751273 
L 97.421762 155.624727 
L 98.596911 196.573091 
L 99.77206 193.012364 
L 100.94721 98.653091 
L 102.122359 182.330182 
L 103.297508 134.260364 
L 104.472657 109.335273 
L 105.647806 139.601455 
L 106.822955 86.190545 
L 107.998105 221.498182 
L 109.173254 87.970909 
L 110.348403 176.989091 
L 111.523552 134.260364 
L 112.698701 86.190545 
L 113.87385 150.283636 
L 115.049 176.989091 
L 117.399298 132.48 
L 118.574447 123.578182 
L 119.749596 121.797818 
L 120.924746 166.306909 
L 122.099895 153.844364 
L 123.275044 173.428364 
L 124.450193 200.133818 
L 125.625342 198.353455 
L 127.975641 105.774545 
L 129.15079 143.162182 
L 130.325939 146.722909 
L 131.501088 73.728 
L 132.676237 66.606545 
L 133.851386 193.012364 
L 135.026536 136.040727 
L 136.201685 221.498182 
L 137.376834 198.353455 
L 138.551983 193.012364 
L 139.727132 105.774545 
L 143.25258 176.989091 
L 144.427729 153.844364 
L 145.602878 153.844364 
L 146.778027 152.064 
L 147.953177 221.498182 
L 150.303475 130.699636 
L 151.478624 155.624727 
L 152.653773 155.624727 
L 153.828922 153.844364 
L 155.004072 175.208727 
L 156.179221 175.208727 
L 157.35437 198.353455 
L 158.529519 120.017455 
L 159.704668 194.792727 
L 160.879817 159.185455 
L 162.054967 132.48 
L 163.230116 180.549818 
L 164.405265 221.498182 
L 165.580414 221.498182 
L 167.930713 168.087273 
L 169.105862 175.208727 
L 170.281011 200.133818 
L 171.45616 200.133818 
L 172.631309 155.624727 
L 173.806458 132.48 
L 174.981608 137.821091 
L 176.156757 73.728 
L 177.331906 175.208727 
L 178.507055 221.498182 
L 179.682204 166.306909 
L 180.857353 200.133818 
L 182.032503 139.601455 
L 183.207652 160.965818 
L 184.382801 176.989091 
L 185.55795 201.914182 
L 186.733099 180.549818 
L 187.908249 123.578182 
L 189.083398 160.965818 
L 190.258547 176.989091 
L 191.433696 160.965818 
L 192.608845 175.208727 
L 193.783994 152.064 
L 194.959144 134.260364 
L 196.134293 200.133818 
L 197.309442 160.965818 
L 198.484591 132.48 
L 199.65974 144.942545 
L 200.834889 150.283636 
L 202.010039 171.648 
L 203.185188 150.283636 
L 204.360337 160.965818 
L 206.710635 164.526545 
L 207.885784 182.330182 
L 209.060934 176.989091 
L 210.236083 201.914182 
L 211.411232 175.208727 
L 212.586381 160.965818 
L 213.76153 121.797818 
L 214.93668 175.208727 
L 216.111829 159.185455 
L 217.286978 100.433455 
L 218.462127 176.989091 
L 219.637276 148.503273 
L 220.812425 93.312 
L 221.987575 86.190545 
L 223.162724 155.624727 
L 224.337873 118.237091 
L 225.513022 141.381818 
L 226.688171 132.48 
L 227.86332 82.629818 
L 229.03847 93.312 
L 230.213619 111.115636 
L 231.388768 162.746182 
L 232.563917 107.554909 
L 233.739066 102.213818 
L 234.914216 84.410182 
L 236.089365 98.653091 
L 237.264514 116.456727 
L 239.614812 148.503273 
L 240.789961 143.162182 
L 241.965111 132.48 
L 243.14026 125.358545 
L 244.315409 146.722909 
L 245.490558 109.335273 
L 246.665707 87.970909 
L 247.840856 95.092364 
L 249.016006 155.624727 
L 250.191155 146.722909 
L 251.366304 121.797818 
L 252.541453 137.821091 
L 253.716602 105.774545 
L 254.891751 159.185455 
L 256.066901 118.237091 
L 257.24205 132.48 
L 258.417199 153.844364 
L 259.592348 109.335273 
L 260.767497 137.821091 
L 261.942647 157.405091 
L 263.117796 134.260364 
L 264.292945 136.040727 
L 265.468094 139.601455 
L 267.818392 98.653091 
L 268.993542 107.554909 
L 270.168691 114.676364 
L 271.34384 139.601455 
L 272.518989 132.48 
L 273.694138 91.531636 
L 274.869287 157.405091 
L 276.044437 157.405091 
L 277.219586 112.896 
L 278.394735 91.531636 
L 279.569884 166.306909 
L 280.745033 111.115636 
L 281.920183 127.138909 
L 283.095332 118.237091 
L 284.270481 125.358545 
L 285.44563 127.138909 
L 286.620779 178.769455 
L 287.795928 118.237091 
L 288.971078 118.237091 
L 290.146227 141.381818 
L 291.321376 112.896 
L 292.496525 132.48 
L 293.671674 100.433455 
L 294.846823 128.919273 
L 296.021973 121.797818 
L 297.197122 176.989091 
L 298.372271 132.48 
L 300.722569 146.722909 
L 301.897718 43.461818 
L 303.072868 107.554909 
L 304.248017 120.017455 
L 305.423166 153.844364 
L 306.598315 143.162182 
L 307.773464 84.410182 
L 308.948614 150.283636 
L 310.123763 132.48 
L 311.298912 143.162182 
L 312.474061 143.162182 
L 313.64921 111.115636 
L 314.824359 153.844364 
L 317.174658 70.167273 
L 318.349807 157.405091 
L 319.524956 136.040727 
L 320.700105 171.648 
L 321.875254 120.017455 
L 323.050404 127.138909 
L 324.225553 68.386909 
L 325.400702 98.653091 
L 326.575851 139.601455 
L 327.751 89.751273 
L 328.92615 143.162182 
L 330.101299 136.040727 
L 331.276448 157.405091 
L 332.451597 54.144 
L 333.626746 107.554909 
L 334.801895 150.283636 
L 337.152194 105.774545 
L 338.327343 146.722909 
L 339.502492 136.040727 
L 340.677641 150.283636 
L 341.85279 109.335273 
L 343.02794 152.064 
L 344.203089 123.578182 
L 345.378238 107.554909 
L 346.553387 169.867636 
L 348.903686 143.162182 
L 350.078835 132.48 
L 351.253984 109.335273 
L 352.429133 123.578182 
L 353.604282 128.919273 
L 354.779431 150.283636 
L 355.954581 116.456727 
L 357.12973 121.797818 
L 358.304879 71.947636 
L 359.480028 121.797818 
L 360.655177 160.965818 
L 361.830326 132.48 
L 363.005476 141.381818 
L 364.180625 125.358545 
L 365.355774 121.797818 
L 366.530923 116.456727 
L 367.706072 79.069091 
L 368.881221 150.283636 
L 370.056371 132.48 
L 371.23152 176.989091 
L 372.406669 111.115636 
L 373.581818 107.554909 
L 373.581818 107.554909 
" style="fill:none;stroke:#0000ff;stroke-linecap:square;stroke-width:1.5;"/>
   </g>
   <g id="patch_3">
    <path d="M 54 230.4 
L 54 34.56 
" style="fill:none;stroke:#000000;stroke-linecap:square;stroke-linejoin:miter;stroke-width:0.8;"/>
   </g>
   <g id="patch_4">
    <path d="M 388.8 230.4 
L 388.8 34.56 
" style="fill:none;stroke:#000000;stroke-linecap:square;stroke-linejoin:miter;stroke-width:0.8;"/>
   </g>
   <g id="patch_5">
    <path d="M 54 230.4 
L 388.8 230.4 
" style="fill:none;stroke:#000000;stroke-linecap:square;stroke-linejoin:miter;stroke-width:0.8;"/>
   </g>
   <g id="patch_6">
    <path d="M 54 34.56 
L 388.8 34.56 
" style="fill:none;stroke:#000000;stroke-linecap:square;stroke-linejoin:miter;stroke-width:0.8;"/>
   </g>
  </g>
  <g id="axes_2">
   <g id="matplotlib.axis_3">
    <g id="ytick_7">
     <g id="line2d_13">
      <defs>
       <path d="M 0 0 
L 3.5 0 
" id="mdcea58b787" style="stroke:#000000;stroke-width:0.8;"/>
      </defs>
      <g>
       <use style="stroke:#000000;stroke-width:0.8;" x="388.8" xlink:href="#mdcea58b787" y="215.012721"/>
      </g>
     </g>
     <g id="text_14">
      <!-- $16$ -->
      <g transform="translate(395.8 219.163811)scale(0.12 -0.12)">
       <use transform="scale(0.996264)" xlink:href="#CMR17-49"/>
       <use transform="translate(45.690477 0)scale(0.996264)" xlink:href="#CMR17-54"/>
      </g>
     </g>
    </g>
    <g id="ytick_8">
     <g id="line2d_14">
      <g>
       <use style="stroke:#000000;stroke-width:0.8;" x="388.8" xlink:href="#mdcea58b787" y="185.723542"/>
      </g>
     </g>
     <g id="text_15">
      <!-- $18$ -->
      <g transform="translate(395.8 189.874632)scale(0.12 -0.12)">
       <use transform="scale(0.996264)" xlink:href="#CMR17-49"/>
       <use transform="translate(45.690477 0)scale(0.996264)" xlink:href="#CMR17-56"/>
      </g>
     </g>
    </g>
    <g id="ytick_9">
     <g id="line2d_15">
      <g>
       <use style="stroke:#000000;stroke-width:0.8;" x="388.8" xlink:href="#mdcea58b787" y="156.434364"/>
      </g>
     </g>
     <g id="text_16">
      <!-- $20$ -->
      <g transform="translate(395.8 160.585454)scale(0.12 -0.12)">
       <use transform="scale(0.996264)" xlink:href="#CMR17-50"/>
       <use transform="translate(45.690477 0)scale(0.996264)" xlink:href="#CMR17-48"/>
      </g>
     </g>
    </g>
    <g id="ytick_10">
     <g id="line2d_16">
      <g>
       <use style="stroke:#000000;stroke-width:0.8;" x="388.8" xlink:href="#mdcea58b787" y="127.145185"/>
      </g>
     </g>
     <g id="text_17">
      <!-- $22$ -->
      <g transform="translate(395.8 131.296275)scale(0.12 -0.12)">
       <use transform="scale(0.996264)" xlink:href="#CMR17-50"/>
       <use transform="translate(45.690477 0)scale(0.996264)" xlink:href="#CMR17-50"/>
      </g>
     </g>
    </g>
    <g id="ytick_11">
     <g id="line2d_17">
      <g>
       <use style="stroke:#000000;stroke-width:0.8;" x="388.8" xlink:href="#mdcea58b787" y="97.856007"/>
      </g>
     </g>
     <g id="text_18">
      <!-- $24$ -->
      <g transform="translate(395.8 102.007097)scale(0.12 -0.12)">
       <use transform="scale(0.996264)" xlink:href="#CMR17-50"/>
       <use transform="translate(45.690477 0)scale(0.996264)" xlink:href="#CMR17-52"/>
      </g>
     </g>
    </g>
    <g id="ytick_12">
     <g id="line2d_18">
      <g>
       <use style="stroke:#000000;stroke-width:0.8;" x="388.8" xlink:href="#mdcea58b787" y="68.566828"/>
      </g>
     </g>
     <g id="text_19">
      <!-- $26$ -->
      <g transform="translate(395.8 72.717918)scale(0.12 -0.12)">
       <use transform="scale(0.996264)" xlink:href="#CMR17-50"/>
       <use transform="translate(45.690477 0)scale(0.996264)" xlink:href="#CMR17-54"/>
      </g>
     </g>
    </g>
    <g id="ytick_13">
     <g id="line2d_19">
      <g>
       <use style="stroke:#000000;stroke-width:0.8;" x="388.8" xlink:href="#mdcea58b787" y="39.27765"/>
      </g>
     </g>
     <g id="text_20">
      <!-- $28$ -->
      <g transform="translate(395.8 43.42874)scale(0.12 -0.12)">
       <use transform="scale(0.996264)" xlink:href="#CMR17-50"/>
       <use transform="translate(45.690477 0)scale(0.996264)" xlink:href="#CMR17-56"/>
      </g>
     </g>
    </g>
    <g id="text_21">
     <!-- minTemp -->
     <defs>
      <path d="M 67.59375 30.203125 
C 67.59375 35.1875 66.703125 43.59375 54.796875 43.59375 
C 48 43.59375 43.296875 39 41.5 33.609375 
L 41.40625 33.609375 
C 40.203125 41.8125 34.296875 43.59375 28.703125 43.59375 
C 20.796875 43.59375 16.703125 37.5 15.203125 33.5 
L 15.09375 33.5 
L 15.09375 43.59375 
L 3.296875 42.5 
L 3.296875 39.90625 
C 9.203125 39.90625 10.09375 39.296875 10.09375 34.5 
L 10.09375 6.6875 
C 10.09375 2.875 9.703125 2.390625 3.296875 2.390625 
L 3.296875 -0.203125 
C 5.703125 0 10.09375 0 12.703125 0 
C 15.296875 0 19.796875 0 22.203125 -0.203125 
L 22.203125 2.390625 
C 15.796875 2.390625 15.40625 2.78125 15.40625 6.6875 
L 15.40625 25.90625 
C 15.40625 35.109375 21 42 28 42 
C 35.40625 42 36.203125 35.40625 36.203125 30.59375 
L 36.203125 6.6875 
C 36.203125 2.875 35.796875 2.390625 29.40625 2.390625 
L 29.40625 -0.203125 
C 31.796875 0 36.203125 0 38.796875 0 
C 41.40625 0 45.90625 0 48.296875 -0.203125 
L 48.296875 2.390625 
C 41.90625 2.390625 41.5 2.78125 41.5 6.6875 
L 41.5 25.90625 
C 41.5 35.109375 47.09375 42 54.09375 42 
C 61.5 42 62.296875 35.40625 62.296875 30.59375 
L 62.296875 6.6875 
C 62.296875 2.875 61.90625 2.390625 55.5 2.390625 
L 55.5 -0.203125 
C 57.90625 0 62.296875 0 64.90625 0 
C 67.5 0 72 0 74.40625 -0.203125 
L 74.40625 2.390625 
C 68 2.390625 67.59375 2.78125 67.59375 6.6875 
z
" id="CMR17-109"/>
      <path d="M 15.5 61.078125 
C 15.5 63.265625 13.703125 65.15625 11.40625 65.15625 
C 9.203125 65.15625 7.296875 63.375 7.296875 61.078125 
C 7.296875 58.890625 9.09375 57 11.40625 57 
C 13.59375 57 15.5 58.796875 15.5 61.078125 
z
M 3.796875 42.28125 
L 3.796875 39.703125 
C 9.40625 39.703125 10.203125 39.09375 10.203125 34.328125 
L 10.203125 6.671875 
C 10.203125 2.875 9.796875 2.390625 3.40625 2.390625 
L 3.40625 -0.203125 
C 5.796875 0 10.09375 0 12.59375 0 
C 15 0 19.09375 0 21.40625 -0.203125 
L 21.40625 2.390625 
C 15.5 2.390625 15.296875 2.984375 15.296875 6.5625 
L 15.296875 43.375 
z
" id="CMR17-105"/>
      <path d="M 41.5 30.203125 
C 41.5 35.296875 40.5 43.59375 28.703125 43.59375 
C 20.796875 43.59375 16.703125 37.5 15.203125 33.5 
L 15.09375 33.5 
L 15.09375 43.59375 
L 3.296875 42.5 
L 3.296875 39.90625 
C 9.203125 39.90625 10.09375 39.296875 10.09375 34.5 
L 10.09375 6.6875 
C 10.09375 2.875 9.703125 2.390625 3.296875 2.390625 
L 3.296875 -0.203125 
C 5.703125 0 10.09375 0 12.703125 0 
C 15.296875 0 19.796875 0 22.203125 -0.203125 
L 22.203125 2.390625 
C 15.796875 2.390625 15.40625 2.78125 15.40625 6.6875 
L 15.40625 25.90625 
C 15.40625 35.109375 21 42 28 42 
C 35.40625 42 36.203125 35.40625 36.203125 30.59375 
L 36.203125 6.6875 
C 36.203125 2.875 35.796875 2.390625 29.40625 2.390625 
L 29.40625 -0.203125 
C 31.796875 0 36.203125 0 38.796875 0 
C 41.40625 0 45.90625 0 48.296875 -0.203125 
L 48.296875 2.390625 
C 41.90625 2.390625 41.5 2.78125 41.5 6.6875 
z
" id="CMR17-110"/>
      <path d="M 62.203125 67.59375 
L 4.5 67.59375 
L 2.796875 45.59375 
L 4.59375 45.59375 
C 5.90625 62.125 7.296875 65 22.703125 65 
C 24.5 65 27.40625 65 28.203125 64.90625 
C 30.09375 64.609375 30.09375 63.40625 30.09375 61.125 
L 30.09375 7.171875 
C 30.09375 3.59375 29.796875 2.5 21.5 2.5 
L 18.703125 2.5 
L 18.703125 0 
C 23.5 0 28.5 0 33.40625 0 
C 38.296875 0 43.296875 0 48.09375 0 
L 48.09375 2.5 
L 45.296875 2.5 
C 37 2.5 36.703125 3.59375 36.703125 7.171875 
L 36.703125 61.125 
C 36.703125 63.3125 36.703125 64.515625 38.5 64.90625 
C 39.296875 65 42.203125 65 44 65 
C 59.296875 65 60.796875 62.125 62.09375 45.59375 
L 63.90625 45.59375 
z
" id="CMR17-84"/>
      <path d="M 22 -16.609375 
C 15.59375 -16.609375 15.203125 -16.203125 15.203125 -12.328125 
L 15.203125 6.28125 
C 18.09375 2.09375 22.296875 -0.59375 27.59375 -0.59375 
C 37.59375 -0.59375 47.703125 8.171875 47.703125 21.6875 
C 47.703125 34.234375 39 43.78125 28.703125 43.78125 
C 22.703125 43.78125 17.796875 40.5 15 36.53125 
L 15 43.78125 
L 3.09375 42.6875 
L 3.09375 40.109375 
C 9 40.109375 9.90625 39.5 9.90625 34.734375 
L 9.90625 -12.328125 
C 9.90625 -16.109375 9.5 -16.609375 3.09375 -16.609375 
L 3.09375 -19.1875 
C 5.5 -19 9.90625 -19 12.5 -19 
C 15.09375 -19 19.59375 -19 22 -19.1875 
z
M 15.203125 31.4375 
C 15.203125 32.84375 15.203125 34.921875 19.09375 38.609375 
C 19.59375 39.015625 23 42 28 42 
C 35.296875 42 41.296875 32.9375 41.296875 21.59375 
C 41.296875 10.25 34.90625 1 27 1 
C 23.40625 1 19.5 2.6875 16.5 7.375 
C 15.203125 9.5625 15.203125 10.15625 15.203125 11.75 
z
" id="CMR17-112"/>
     </defs>
     <g transform="translate(419.80816 156.704876)rotate(-90)scale(0.12 -0.12)">
      <use transform="scale(0.996264)" xlink:href="#CMR17-109"/>
      <use transform="translate(76.91959 0)scale(0.996264)" xlink:href="#CMR17-105"/>
      <use transform="translate(101.790648 0)scale(0.996264)" xlink:href="#CMR17-110"/>
      <use transform="translate(152.686018 0)scale(0.996264)" xlink:href="#CMR17-84"/>
      <use transform="translate(211.388643 0)scale(0.996264)" xlink:href="#CMR17-101"/>
      <use transform="translate(251.874304 0)scale(0.996264)" xlink:href="#CMR17-109"/>
      <use transform="translate(328.793894 0)scale(0.996264)" xlink:href="#CMR17-112"/>
     </g>
    </g>
   </g>
   <g id="line2d_20">
    <path clip-path="url(#p3e896ee2fc)" d="M 69.218182 134.46748 
L 70.393331 139.279274 
L 71.56848 145.764735 
L 72.743629 164.802701 
L 73.918779 115.011097 
L 75.093928 162.082991 
L 76.269077 171.706578 
L 77.444226 193.464254 
L 78.619375 204.133883 
L 79.794524 152.250195 
L 80.969674 152.668612 
L 82.144823 124.216267 
L 83.319972 134.258272 
L 85.67027 86.767961 
L 86.845419 103.086217 
L 88.020569 101.621758 
L 89.195718 85.51271 
L 90.370867 79.236458 
L 91.546016 88.650836 
L 92.721165 81.956167 
L 93.896314 94.717881 
L 95.071464 99.738883 
L 96.246613 93.46263 
L 97.421762 74.215456 
L 98.596911 78.608832 
L 99.77206 75.470706 
L 100.94721 92.835005 
L 102.122359 92.625796 
L 103.297508 65.847119 
L 104.472657 76.935165 
L 105.647806 97.019173 
L 106.822955 86.140335 
L 107.998105 95.136297 
L 109.173254 85.931127 
L 110.348403 68.566828 
L 111.523552 91.579754 
L 112.698701 71.914163 
L 113.87385 81.746959 
L 115.049 95.554714 
L 116.224149 77.981207 
L 117.399298 98.065215 
L 118.574447 82.583792 
L 119.749596 86.349544 
L 120.924746 96.600756 
L 122.099895 80.073291 
L 123.275044 84.675877 
L 124.450193 127.563602 
L 125.625342 99.111257 
L 126.800491 108.107219 
L 127.975641 106.851969 
L 129.15079 106.433552 
L 130.325939 176.099955 
L 131.501088 153.923863 
L 132.676237 193.673462 
L 133.851386 189.280085 
L 135.026536 178.192039 
L 136.201685 158.735656 
L 137.376834 176.936789 
L 138.551983 149.739694 
L 139.727132 167.940827 
L 140.902282 184.259083 
L 142.077431 221.498182 
L 143.25258 200.786548 
L 144.427729 177.145997 
L 145.602878 147.019985 
L 147.953177 115.011097 
L 149.128326 123.588642 
L 150.303475 101.41255 
L 151.478624 97.856007 
L 152.653773 97.856007 
L 153.828922 106.015135 
L 155.004072 91.788963 
L 156.179221 67.520786 
L 157.35437 76.30754 
L 158.529519 83.420626 
L 160.879817 55.595906 
L 162.054967 44.089443 
L 163.230116 62.290576 
L 164.405265 87.814003 
L 165.580414 84.25746 
L 166.755563 74.215456 
L 167.930713 68.776037 
L 169.105862 94.090255 
L 170.281011 79.654874 
L 171.45616 98.902049 
L 172.631309 76.725957 
L 173.806458 79.864083 
L 174.981608 81.53775 
L 176.156757 46.390736 
L 177.331906 80.2825 
L 178.507055 96.391548 
L 179.682204 83.002209 
L 180.857353 92.20738 
L 182.032503 80.2825 
L 183.207652 95.554714 
L 184.382801 148.693652 
L 185.55795 149.948903 
L 186.733099 169.196077 
L 187.908249 124.843893 
L 189.083398 117.730807 
L 190.258547 114.383472 
L 191.433696 128.400436 
L 192.608845 136.977981 
L 193.783994 174.844705 
L 194.959144 170.242119 
L 196.134293 154.133071 
L 197.309442 208.52726 
L 199.65974 150.994945 
L 200.834889 172.334204 
L 202.010039 170.032911 
L 203.185188 182.585416 
L 204.360337 125.680726 
L 205.535486 127.633338 
L 206.710635 143.881859 
L 207.885784 110.199303 
L 209.060934 125.053101 
L 210.236083 108.525636 
L 211.411232 103.923051 
L 212.586381 101.203342 
L 213.76153 97.228382 
L 214.93668 74.424664 
L 216.111829 63.964243 
L 217.286978 67.102369 
L 218.462127 79.027249 
L 219.637276 67.520786 
L 220.812425 68.776037 
L 221.987575 71.495746 
L 223.162724 72.227976 
L 224.337873 95.345506 
L 225.513022 66.893161 
L 226.688171 56.43274 
L 227.86332 77.144373 
L 229.03847 76.516748 
L 230.213619 69.194454 
L 231.388768 75.261498 
L 232.563917 79.027249 
L 233.739066 80.910125 
L 234.914216 75.261498 
L 236.089365 56.43274 
L 237.264514 65.428702 
L 238.439663 69.194454 
L 239.614812 70.449704 
L 240.789961 80.910125 
L 241.965111 78.818041 
L 243.14026 79.864083 
L 244.315409 84.25746 
L 245.490558 87.395586 
L 246.665707 79.027249 
L 247.840856 91.579754 
L 249.016006 92.835005 
L 250.191155 86.977169 
L 251.366304 93.46263 
L 252.541453 94.090255 
L 253.716602 107.270386 
L 254.891751 140.952941 
L 256.066901 128.818853 
L 257.24205 150.785737 
L 258.417199 162.919825 
L 259.592348 177.355206 
L 260.767497 158.31724 
L 261.942647 197.020797 
L 263.117796 152.877821 
L 264.292945 151.413362 
L 265.468094 121.914975 
L 266.643243 100.366508 
L 267.818392 105.805927 
L 268.993542 88.023211 
L 270.168691 85.721919 
L 271.34384 77.56279 
L 272.518989 89.278462 
L 273.694138 90.952129 
L 274.869287 85.721919 
L 276.044437 87.604794 
L 277.219586 76.725957 
L 278.394735 43.461818 
L 279.569884 90.324504 
L 280.745033 94.508672 
L 281.920183 75.679915 
L 283.095332 67.590522 
L 284.270481 84.466668 
L 285.44563 88.23242 
L 286.620779 89.278462 
L 287.795928 75.052289 
L 288.971078 47.018361 
L 290.146227 79.864083 
L 291.321376 94.299464 
L 292.496525 84.885085 
L 293.671674 93.671838 
L 294.846823 71.495746 
L 296.021973 72.750997 
L 297.197122 94.508672 
L 298.372271 83.839043 
L 299.54742 84.466668 
L 300.722569 91.788963 
L 301.897718 79.445666 
L 303.072868 84.466668 
L 304.248017 115.220306 
L 305.423166 86.558752 
L 306.598315 101.621758 
L 307.773464 110.199303 
L 308.948614 127.772811 
L 310.123763 122.333392 
L 311.298912 108.944053 
L 312.474061 123.797851 
L 313.64921 153.505446 
L 314.824359 176.309164 
L 315.999509 152.040987 
L 317.174658 158.944865 
L 318.349807 120.868933 
L 319.524956 138.651648 
L 320.700105 153.505446 
L 321.875254 145.555526 
L 323.050404 146.810777 
L 324.225553 151.62257 
L 325.400702 140.325316 
L 326.575851 150.785737 
L 327.751 172.543412 
L 328.92615 152.877821 
L 330.101299 122.124183 
L 331.276448 106.224344 
L 332.451597 78.608832 
L 333.626746 77.144373 
L 334.801895 72.750997 
L 335.977045 81.746959 
L 337.152194 73.58783 
L 338.327343 89.696879 
L 339.502492 86.558752 
L 340.677641 91.161337 
L 341.85279 90.324504 
L 344.203089 51.20253 
L 345.378238 70.868121 
L 346.553387 73.797039 
L 348.903686 73.58783 
L 350.078835 88.650836 
L 351.253984 93.044213 
L 352.429133 100.157299 
L 353.604282 85.094293 
L 354.779431 88.650836 
L 355.954581 91.370546 
L 357.12973 79.445666 
L 358.304879 84.25746 
L 359.480028 70.868121 
L 360.655177 87.186378 
L 361.830326 86.977169 
L 363.005476 61.872159 
L 364.180625 89.278462 
L 365.355774 93.253422 
L 366.530923 90.324504 
L 367.706072 118.56764 
L 368.881221 96.600756 
L 370.056371 122.333392 
L 371.23152 170.869745 
L 372.406669 127.772811 
L 373.581818 132.166187 
L 373.581818 132.166187 
" style="fill:none;stroke:#ff0000;stroke-dasharray:5.55,2.4;stroke-dashoffset:0;stroke-width:1.5;"/>
   </g>
   <g id="patch_7">
    <path d="M 54 230.4 
L 54 34.56 
" style="fill:none;stroke:#000000;stroke-linecap:square;stroke-linejoin:miter;stroke-width:0.8;"/>
   </g>
   <g id="patch_8">
    <path d="M 388.8 230.4 
L 388.8 34.56 
" style="fill:none;stroke:#000000;stroke-linecap:square;stroke-linejoin:miter;stroke-width:0.8;"/>
   </g>
   <g id="patch_9">
    <path d="M 54 230.4 
L 388.8 230.4 
" style="fill:none;stroke:#000000;stroke-linecap:square;stroke-linejoin:miter;stroke-width:0.8;"/>
   </g>
   <g id="patch_10">
    <path d="M 54 34.56 
L 388.8 34.56 
" style="fill:none;stroke:#000000;stroke-linecap:square;stroke-linejoin:miter;stroke-width:0.8;"/>
   </g>
   <g id="legend_1">
    <g id="patch_11">
     <path d="M 293.550247 224.4 
L 380.4 224.4 
Q 382.8 224.4 382.8 222 
L 382.8 173.026213 
Q 382.8 170.626213 380.4 170.626213 
L 293.550247 170.626213 
Q 291.150247 170.626213 291.150247 173.026213 
L 291.150247 222 
Q 291.150247 224.4 293.550247 224.4 
z
" style="fill:#ffffff;opacity:0.8;stroke:#cccccc;stroke-linejoin:miter;"/>
    </g>
    <g id="line2d_21">
     <path d="M 295.950247 179.626213 
L 319.950247 179.626213 
" style="fill:none;stroke:#ff0000;stroke-dasharray:5.55,2.4;stroke-dashoffset:0;stroke-width:1.5;"/>
    </g>
    <g id="line2d_22"/>
    <g id="text_22">
     <!-- minTemp -->
     <g transform="translate(329.550247 183.826213)scale(0.12 -0.12)">
      <use transform="scale(0.996264)" xlink:href="#CMR17-109"/>
      <use transform="translate(76.91959 0)scale(0.996264)" xlink:href="#CMR17-105"/>
      <use transform="translate(101.790648 0)scale(0.996264)" xlink:href="#CMR17-110"/>
      <use transform="translate(152.686018 0)scale(0.996264)" xlink:href="#CMR17-84"/>
      <use transform="translate(211.388643 0)scale(0.996264)" xlink:href="#CMR17-101"/>
      <use transform="translate(251.874304 0)scale(0.996264)" xlink:href="#CMR17-109"/>
      <use transform="translate(328.793894 0)scale(0.996264)" xlink:href="#CMR17-112"/>
     </g>
    </g>
    <g id="line2d_23">
     <path d="M 295.950247 196.350808 
L 319.950247 196.350808 
" style="fill:none;stroke:#0000ff;stroke-linecap:square;stroke-width:1.5;"/>
    </g>
    <g id="line2d_24"/>
    <g id="text_23">
     <!-- dogs -->
     <g transform="translate(329.550247 200.550808)scale(0.12 -0.12)">
      <use transform="scale(0.996264)" xlink:href="#CMR17-100"/>
      <use transform="translate(50.89537 0)scale(0.996264)" xlink:href="#CMR17-111"/>
      <use transform="translate(96.585847 0)scale(0.996264)" xlink:href="#CMR17-103"/>
      <use transform="translate(142.276324 0)scale(0.996264)" xlink:href="#CMR17-115"/>
     </g>
    </g>
    <g id="patch_12">
     <path d="M 295.950247 217.275404 
L 319.950247 217.275404 
L 319.950247 208.875404 
L 295.950247 208.875404 
z
" style="fill:none;"/>
    </g>
    <g id="text_24">
     <!-- $\rho=0.14 $ -->
     <defs>
      <path d="M 3.09375 -17.296875 
C 3 -17.796875 2.796875 -18.390625 2.796875 -19 
C 2.796875 -20.5 4 -21.5 5.5 -21.5 
C 7 -21.5 8.40625 -20.5 9 -19.09375 
C 9.40625 -18.1875 12.203125 -6.203125 15.40625 6.09375 
C 17.40625 1.09375 21.09375 -1 25 -1 
C 36.296875 -1 49.09375 12.96875 49.09375 28.046875 
C 49.09375 38.71875 42.59375 44 35.703125 44 
C 26.90625 44 16.203125 34.921875 12.90625 21.640625 
z
M 24.90625 1 
C 18.09375 1 16.40625 8.890625 16.40625 10.078125 
C 16.40625 10.6875 18.90625 20.234375 19.203125 21.734375 
C 24.296875 41.71875 34.09375 41.71875 35.59375 41.71875 
C 40.09375 41.71875 42.59375 37.65625 42.59375 31.8125 
C 42.59375 26.75 39.90625 16.9375 38.203125 12.796875 
C 35.203125 5.953125 30 1 24.90625 1 
z
" id="CMMI12-26"/>
      <path d="M 64.296875 31.515625 
C 65.796875 31.515625 67.296875 31.515625 67.296875 33.203125 
C 67.296875 35 65.59375 35 63.90625 35 
L 8 35 
C 6.296875 35 4.59375 35 4.59375 33.203125 
C 4.59375 31.515625 6.09375 31.515625 7.59375 31.515625 
z
M 63.90625 14 
C 65.59375 14 67.296875 14 67.296875 15.796875 
C 67.296875 17.484375 65.796875 17.484375 64.296875 17.484375 
L 7.59375 17.484375 
C 6.09375 17.484375 4.59375 17.484375 4.59375 15.796875 
C 4.59375 14 6.296875 14 8 14 
z
" id="CMR17-61"/>
      <path d="M 18.40625 4.796875 
C 18.40625 7.6875 16 9.671875 13.59375 9.671875 
C 10.703125 9.671875 8.703125 7.28125 8.703125 4.890625 
C 8.703125 2 11.09375 0 13.5 0 
C 16.40625 0 18.40625 2.390625 18.40625 4.796875 
z
" id="CMMI12-58"/>
     </defs>
     <g transform="translate(329.550247 217.275404)scale(0.12 -0.12)">
      <use transform="scale(0.996264)" xlink:href="#CMMI12-26"/>
      <use transform="translate(77.988382 0)scale(0.996264)" xlink:href="#CMR17-61"/>
      <use transform="translate(177.377179 0)scale(0.996264)" xlink:href="#CMR17-48"/>
      <use transform="translate(223.067656 0)scale(0.996264)" xlink:href="#CMMI12-58"/>
      <use transform="translate(250.164833 0)scale(0.996264)" xlink:href="#CMR17-49"/>
      <use transform="translate(295.85531 0)scale(0.996264)" xlink:href="#CMR17-52"/>
     </g>
    </g>
   </g>
  </g>
 </g>
 <defs>
  <clipPath id="p3e896ee2fc">
   <rect height="195.84" width="334.8" x="54" y="34.56"/>
  </clipPath>
 </defs>
</svg>
