<?xml version="1.0" encoding="utf-8" standalone="no"?>
<!DOCTYPE svg PUBLIC "-//W3C//DTD SVG 1.1//EN"
  "http://www.w3.org/Graphics/SVG/1.1/DTD/svg11.dtd">
<!-- Created with matplotlib (http://matplotlib.org/) -->
<svg height="345.6pt" version="1.1" viewBox="0 0 460.8 345.6" width="460.8pt" xmlns="http://www.w3.org/2000/svg" xmlns:xlink="http://www.w3.org/1999/xlink">
 <defs>
  <style type="text/css">
*{stroke-linecap:butt;stroke-linejoin:round;}
  </style>
 </defs>
 <g id="figure_1">
  <g id="patch_1">
   <path d="M 0 345.6 
L 460.8 345.6 
L 460.8 0 
L 0 0 
z
" style="fill:#ffffff;"/>
  </g>
  <g id="axes_1">
   <g id="patch_2">
    <path d="M 57.6 276.48 
L 414.72 276.48 
L 414.72 41.472 
L 57.6 41.472 
z
" style="fill:#ffffff;"/>
   </g>
   <g id="matplotlib.axis_1">
    <g id="xtick_1">
     <g id="line2d_1">
      <defs>
       <path d="M 0 0 
L 0 3.5 
" id="m248c333b8e" style="stroke:#000000;stroke-width:0.8;"/>
      </defs>
      <g>
       <use style="stroke:#000000;stroke-width:0.8;" x="107.480397" xlink:href="#m248c333b8e" y="276.48"/>
      </g>
     </g>
     <g id="text_1">
      <!-- 2014 -->
      <defs>
       <path d="M 41.703125 15.453125 
L 39.90625 15.453125 
C 38.90625 8.375 38.09375 7.171875 37.703125 6.5625 
C 37.203125 5.765625 30 5.765625 28.59375 5.765625 
L 9.40625 5.765625 
C 13 9.671875 20 16.75 28.5 24.953125 
C 34.59375 30.734375 41.703125 37.53125 41.703125 47.421875 
C 41.703125 59.21875 32.296875 66 21.796875 66 
C 10.796875 66 4.09375 56.3125 4.09375 47.34375 
C 4.09375 43.4375 7 42.9375 8.203125 42.9375 
C 9.203125 42.9375 12.203125 43.546875 12.203125 47.03125 
C 12.203125 50.109375 9.59375 51 8.203125 51 
C 7.59375 51 7 50.90625 6.59375 50.703125 
C 8.5 59.21875 14.296875 63.40625 20.40625 63.40625 
C 29.09375 63.40625 34.796875 56.515625 34.796875 47.421875 
C 34.796875 38.734375 29.703125 31.25 24 24.75 
L 4.09375 2.28125 
L 4.09375 0 
L 39.296875 0 
z
" id="CMR17-50"/>
       <path d="M 42 31.640625 
C 42 37.75 41.90625 48.125 37.703125 56.109375 
C 34 63.109375 28.09375 65.59375 22.90625 65.59375 
C 18.09375 65.59375 12 63.40625 8.203125 56.203125 
C 4.203125 48.71875 3.796875 39.4375 3.796875 31.640625 
C 3.796875 25.953125 3.90625 17.28125 7 9.671875 
C 11.296875 -0.609375 19 -2 22.90625 -2 
C 27.5 -2 34.5 -0.109375 38.59375 9.375 
C 41.59375 16.28125 42 24.359375 42 31.640625 
z
M 22.90625 -0.40625 
C 16.5 -0.40625 12.703125 5.078125 11.296875 12.6875 
C 10.203125 18.5625 10.203125 27.15625 10.203125 32.75 
C 10.203125 40.4375 10.203125 46.828125 11.5 52.921875 
C 13.40625 61.390625 19 64 22.90625 64 
C 27 64 32.296875 61.296875 34.203125 53.125 
C 35.5 47.4375 35.59375 40.734375 35.59375 32.75 
C 35.59375 26.25 35.59375 18.265625 34.40625 12.375 
C 32.296875 1.484375 26.40625 -0.40625 22.90625 -0.40625 
z
" id="CMR17-48"/>
       <path d="M 26.59375 63.40625 
C 26.59375 65.5 26.5 65.5 25.09375 65.5 
C 21.203125 61.1875 15.296875 59.796875 9.703125 59.796875 
C 9.40625 59.796875 8.90625 59.796875 8.796875 59.5 
C 8.703125 59.296875 8.703125 59.09375 8.703125 57 
C 11.796875 57 17 57.59375 21 59.984375 
L 21 7.203125 
C 21 3.6875 20.796875 2.5 12.203125 2.5 
L 9.203125 2.5 
L 9.203125 0 
C 14 0 19 0 23.796875 0 
C 28.59375 0 33.59375 0 38.40625 0 
L 38.40625 2.5 
L 35.40625 2.5 
C 26.796875 2.5 26.59375 3.59375 26.59375 7.15625 
z
" id="CMR17-49"/>
       <path d="M 33.59375 64.40625 
C 33.59375 66.5 33.5 66.5 31.703125 66.5 
L 2 19.59375 
L 2 17 
L 27.796875 17 
L 27.796875 7.140625 
C 27.796875 3.5 27.59375 2.5 20.59375 2.5 
L 18.703125 2.5 
L 18.703125 0 
C 21.90625 0 27.296875 0 30.703125 0 
C 34.09375 0 39.5 0 42.703125 0 
L 42.703125 2.5 
L 40.796875 2.5 
C 33.796875 2.5 33.59375 3.5 33.59375 7.140625 
L 33.59375 17 
L 43.796875 17 
L 43.796875 19.59375 
L 33.59375 19.59375 
z
M 28.09375 57.859375 
L 28.09375 19.59375 
L 4 19.59375 
z
" id="CMR17-52"/>
      </defs>
      <g transform="translate(86.042746 302.375879)rotate(-30)scale(0.12 -0.12)">
       <use transform="scale(0.996264)" xlink:href="#CMR17-50"/>
       <use transform="translate(45.690477 0)scale(0.996264)" xlink:href="#CMR17-48"/>
       <use transform="translate(91.380954 0)scale(0.996264)" xlink:href="#CMR17-49"/>
       <use transform="translate(137.071431 0)scale(0.996264)" xlink:href="#CMR17-52"/>
      </g>
     </g>
    </g>
    <g id="xtick_2">
     <g id="line2d_2">
      <g>
       <use style="stroke:#000000;stroke-width:0.8;" x="173.866341" xlink:href="#m248c333b8e" y="276.48"/>
      </g>
     </g>
     <g id="text_2">
      <!-- 2015 -->
      <defs>
       <path d="M 11.40625 57.6875 
C 12.40625 57.28125 16.5 56 20.703125 56 
C 30 56 35.09375 61.109375 38 64.0625 
C 38 64.953125 38 65.5 37.40625 65.5 
C 37.296875 65.5 37.09375 65.5 36.296875 65.046875 
C 32.796875 63.40625 28.703125 62.078125 23.703125 62.078125 
C 20.703125 62.078125 16.203125 62.484375 11.296875 64.671875 
C 10.203125 65.171875 10 65.171875 9.90625 65.171875 
C 9.40625 65.171875 9.296875 65.0625 9.296875 63.078125 
L 9.296875 34.421875 
C 9.296875 32.640625 9.296875 32.140625 10.296875 32.140625 
C 10.796875 32.140625 11 32.34375 11.5 33.03125 
C 14.703125 37.515625 19.09375 39.40625 24.09375 39.40625 
C 27.59375 39.40625 35.09375 37.21875 35.09375 20.140625 
C 35.09375 16.953125 35.09375 11.171875 32.09375 6.578125 
C 29.59375 2.484375 25.703125 0.390625 21.40625 0.390625 
C 14.796875 0.390625 8.09375 5 6.296875 12.71875 
C 6.703125 12.609375 7.5 12.421875 7.90625 12.421875 
C 9.203125 12.421875 11.703125 13.125 11.703125 16.21875 
C 11.703125 18.90625 9.796875 20 7.90625 20 
C 5.59375 20 4.09375 18.59375 4.09375 15.796875 
C 4.09375 7.09375 11 -2 21.59375 -2 
C 31.90625 -2 41.703125 6.875 41.703125 19.75 
C 41.703125 31.71875 33.90625 41 24.203125 41 
C 19.09375 41 14.796875 39.109375 11.40625 35.53125 
z
" id="CMR17-53"/>
      </defs>
      <g transform="translate(152.42869 302.375879)rotate(-30)scale(0.12 -0.12)">
       <use transform="scale(0.996264)" xlink:href="#CMR17-50"/>
       <use transform="translate(45.690477 0)scale(0.996264)" xlink:href="#CMR17-48"/>
       <use transform="translate(91.380954 0)scale(0.996264)" xlink:href="#CMR17-49"/>
       <use transform="translate(137.071431 0)scale(0.996264)" xlink:href="#CMR17-53"/>
      </g>
     </g>
    </g>
    <g id="xtick_3">
     <g id="line2d_3">
      <g>
       <use style="stroke:#000000;stroke-width:0.8;" x="240.252284" xlink:href="#m248c333b8e" y="276.48"/>
      </g>
     </g>
     <g id="text_3">
      <!-- 2016 -->
      <defs>
       <path d="M 10.59375 34 
C 10.59375 57.65625 21.796875 63 28.296875 63 
C 30.40625 63 35.5 62.640625 37.5 59 
C 35.90625 59 32.90625 59 32.90625 55.515625 
C 32.90625 52.828125 35.09375 51.921875 36.5 51.921875 
C 37.40625 51.921875 40.09375 52.3125 40.09375 55.625 
C 40.09375 61.78125 35.09375 65.296875 28.203125 65.296875 
C 16.296875 65.296875 3.796875 52.96875 3.796875 31 
C 3.796875 3.953125 15.09375 -2 23.09375 -2 
C 32.796875 -2 42 6.671875 42 20.046875 
C 42 32.515625 33.90625 41.59375 23.703125 41.59375 
C 17.59375 41.59375 13.09375 37.609375 10.59375 30.625 
z
M 23.09375 0.390625 
C 10.796875 0.390625 10.796875 18.75 10.796875 22.4375 
C 10.796875 29.625 14.203125 40 23.5 40 
C 25.203125 40 30.09375 40 33.40625 33.125 
C 35.203125 29.21875 35.203125 25.140625 35.203125 20.140625 
C 35.203125 14.75 35.203125 10.78125 33.09375 6.78125 
C 30.90625 2.671875 27.703125 0.390625 23.09375 0.390625 
z
" id="CMR17-54"/>
      </defs>
      <g transform="translate(218.814633 302.375879)rotate(-30)scale(0.12 -0.12)">
       <use transform="scale(0.996264)" xlink:href="#CMR17-50"/>
       <use transform="translate(45.690477 0)scale(0.996264)" xlink:href="#CMR17-48"/>
       <use transform="translate(91.380954 0)scale(0.996264)" xlink:href="#CMR17-49"/>
       <use transform="translate(137.071431 0)scale(0.996264)" xlink:href="#CMR17-54"/>
      </g>
     </g>
    </g>
    <g id="xtick_4">
     <g id="line2d_4">
      <g>
       <use style="stroke:#000000;stroke-width:0.8;" x="306.820107" xlink:href="#m248c333b8e" y="276.48"/>
      </g>
     </g>
     <g id="text_4">
      <!-- 2017 -->
      <defs>
       <path d="M 45.09375 61.578125 
L 45.09375 63.765625 
L 21.59375 63.765625 
C 9.90625 63.765625 9.703125 65.078125 9.296875 67 
L 7.5 67 
L 4.59375 48.34375 
L 6.40625 48.34375 
C 6.703125 50.234375 7.40625 55.3125 8.59375 57.203125 
C 9.203125 58 16.59375 58 18.296875 58 
L 40.296875 58 
L 29.203125 41.578125 
C 21.796875 30.53125 16.703125 15.609375 16.703125 2.578125 
C 16.703125 1.390625 16.703125 -2 20.296875 -2 
C 23.90625 -2 23.90625 1.390625 23.90625 2.671875 
L 23.90625 7.265625 
C 23.90625 23.5625 26.703125 34.3125 31.296875 41.1875 
z
" id="CMR17-55"/>
      </defs>
      <g transform="translate(285.382456 302.375879)rotate(-30)scale(0.12 -0.12)">
       <use transform="scale(0.996264)" xlink:href="#CMR17-50"/>
       <use transform="translate(45.690477 0)scale(0.996264)" xlink:href="#CMR17-48"/>
       <use transform="translate(91.380954 0)scale(0.996264)" xlink:href="#CMR17-49"/>
       <use transform="translate(137.071431 0)scale(0.996264)" xlink:href="#CMR17-55"/>
      </g>
     </g>
    </g>
    <g id="xtick_5">
     <g id="line2d_5">
      <g>
       <use style="stroke:#000000;stroke-width:0.8;" x="373.20605" xlink:href="#m248c333b8e" y="276.48"/>
      </g>
     </g>
     <g id="text_5">
      <!-- 2018 -->
      <defs>
       <path d="M 27.203125 35.375 
C 33.5 38.546875 39.90625 43.328125 39.90625 50.984375 
C 39.90625 60.015625 31.09375 65.296875 23 65.296875 
C 13.90625 65.296875 5.90625 58.734375 5.90625 49.6875 
C 5.90625 47.203125 6.5 42.921875 10.40625 39.140625 
C 11.40625 38.15625 15.59375 35.171875 18.296875 33.28125 
C 13.796875 30.984375 3.296875 25.53125 3.296875 14.59375 
C 3.296875 4.359375 13.09375 -2 22.796875 -2 
C 33.5 -2 42.5 5.65625 42.5 15.78125 
C 42.5 24.84375 36.40625 29.015625 32.40625 31.703125 
z
M 14.09375 44.09375 
C 13.296875 44.59375 9.296875 47.671875 9.296875 52.359375 
C 9.296875 58.421875 15.59375 63 22.796875 63 
C 30.703125 63 36.5 57.4375 36.5 50.96875 
C 36.5 41.703125 26.09375 36.421875 25.59375 36.421875 
C 25.5 36.421875 25.40625 36.421875 24.59375 37.03125 
z
M 32.5 23.734375 
C 34 22.640625 38.796875 19.375 38.796875 13.296875 
C 38.796875 5.953125 31.40625 0.390625 23 0.390625 
C 13.90625 0.390625 7 6.84375 7 14.6875 
C 7 22.546875 13.09375 29.09375 20 32.1875 
z
" id="CMR17-56"/>
      </defs>
      <g transform="translate(351.7684 302.375879)rotate(-30)scale(0.12 -0.12)">
       <use transform="scale(0.996264)" xlink:href="#CMR17-50"/>
       <use transform="translate(45.690477 0)scale(0.996264)" xlink:href="#CMR17-48"/>
       <use transform="translate(91.380954 0)scale(0.996264)" xlink:href="#CMR17-49"/>
       <use transform="translate(137.071431 0)scale(0.996264)" xlink:href="#CMR17-56"/>
      </g>
     </g>
    </g>
    <g id="text_6">
     <!-- date -->
     <defs>
      <path d="M 29.203125 67.59375 
L 29.203125 65 
C 35.09375 65 36 64.40625 36 59.6875 
L 36 36.640625 
C 35.59375 37.140625 31.5 43.59375 23.40625 43.59375 
C 13.203125 43.59375 3.296875 34.5 3.296875 21.3125 
C 3.296875 8.203125 12.59375 -1 22.40625 -1 
C 30.90625 -1 35.296875 5.265625 35.796875 5.9375 
L 35.796875 -0.984375 
L 47.90625 -0.984375 
L 47.90625 2 
C 42 2 41.09375 2.59375 41.09375 7.390625 
L 41.09375 68.6875 
z
M 35.796875 11.796875 
C 35.796875 8.796875 34 6.09375 31.703125 4.09375 
C 28.296875 1.09375 24.90625 0.59375 23 0.59375 
C 20.09375 0.59375 9.703125 2.09375 9.703125 21.1875 
C 9.703125 40.8125 21.296875 42 23.90625 42 
C 28.5 42 32.203125 39.40625 34.5 35.796875 
C 35.796875 33.703125 35.796875 33.40625 35.796875 31.609375 
z
" id="CMR17-100"/>
      <path d="M 36 25.828125 
C 36 32.375 36 35.84375 31.796875 39.734375 
C 28.09375 43 23.796875 44 20.40625 44 
C 12.5 44 6.796875 37.609375 6.796875 30.796875 
C 6.796875 27 9.796875 27 10.40625 27 
C 11.703125 27 14 27.78125 14 30.53125 
C 14 33 12.09375 34.078125 10.40625 34.078125 
C 10 34.078125 9.5 33.96875 9.203125 33.875 
C 11.296875 40.5 16.703125 42.40625 20.203125 42.40625 
C 25.203125 42.40625 30.703125 37.953125 30.703125 29.453125 
L 30.703125 25 
C 24.796875 25 17.703125 24.203125 12.09375 21.203125 
C 5.796875 17.703125 4 12.703125 4 8.90625 
C 4 1.203125 13 -1 18.296875 -1 
C 23.796875 -1 28.90625 2.171875 31.09375 7.984375 
C 31.296875 3.640625 34.09375 -0.28125 38.5 -0.28125 
C 40.59375 -0.28125 45.90625 1.09375 45.90625 8.859375 
L 45.90625 14.375 
L 44.09375 14.375 
L 44.09375 8.78125 
C 44.09375 2.78125 41.40625 2 40.09375 2 
C 36 2 36 7.15625 36 11.53125 
z
M 30.703125 13.59375 
C 30.703125 4.953125 24.5 0.59375 19 0.59375 
C 14 0.59375 10.09375 4.296875 10.09375 8.90625 
C 10.09375 11.890625 11.40625 17.1875 17.203125 20.390625 
C 22 23.09375 27.5 23.5 30.703125 23.5 
z
" id="CMR17-97"/>
      <path d="M 15.09375 40 
L 29.09375 40 
L 29.09375 42.578125 
L 15.09375 42.578125 
L 15.09375 61 
L 13.296875 61 
C 13.09375 50.703125 9.59375 41.6875 1.09375 41.6875 
L 1.09375 40 
L 9.796875 40 
L 9.796875 12.046875 
C 9.796875 10.15625 9.796875 -1 21.40625 -1 
C 27.296875 -1 30.703125 4.78125 30.703125 12.140625 
L 30.703125 17.8125 
L 28.90625 17.8125 
L 28.90625 12.234375 
C 28.90625 5.375 26.203125 0.796875 22 0.796875 
C 19.09375 0.796875 15.09375 2.78125 15.09375 11.84375 
z
" id="CMR17-116"/>
      <path d="M 38.09375 23 
C 38.5 23.40625 38.5 23.609375 38.5 24.625 
C 38.5 34.96875 33.09375 44 21.703125 44 
C 11.09375 44 2.703125 33.890625 2.703125 21.609375 
C 2.703125 8.609375 12.203125 -1 22.796875 -1 
C 34 -1 38.40625 9.484375 38.40625 11.5625 
C 38.40625 12.25 37.796875 12.25 37.59375 12.25 
C 36.90625 12.25 36.796875 12.046875 36.40625 10.875 
C 34.203125 4.140625 28.703125 0.796875 23.5 0.796875 
C 19.203125 0.796875 14.90625 3.171875 12.203125 7.5 
C 9.09375 12.546875 9.09375 18.375 9.09375 23 
z
M 9.203125 24.5 
C 9.90625 39.140625 17.59375 42.40625 21.59375 42.40625 
C 28.40625 42.40625 33 35.890625 33.09375 24.5 
z
" id="CMR17-101"/>
     </defs>
     <g transform="translate(225.104352 316.691218)scale(0.12 -0.12)">
      <use transform="scale(0.996264)" xlink:href="#CMR17-100"/>
      <use transform="translate(50.89537 0)scale(0.996264)" xlink:href="#CMR17-97"/>
      <use transform="translate(96.585847 0)scale(0.996264)" xlink:href="#CMR17-116"/>
      <use transform="translate(131.866615 0)scale(0.996264)" xlink:href="#CMR17-101"/>
     </g>
    </g>
   </g>
   <g id="matplotlib.axis_2">
    <g id="ytick_1">
     <g id="line2d_6">
      <defs>
       <path d="M 0 0 
L -3.5 0 
" id="m285dbdd1e9" style="stroke:#000000;stroke-width:0.8;"/>
      </defs>
      <g>
       <use style="stroke:#000000;stroke-width:0.8;" x="57.6" xlink:href="#m285dbdd1e9" y="273.496688"/>
      </g>
     </g>
     <g id="text_7">
      <!-- $40$ -->
      <g transform="translate(38.894019 277.647778)scale(0.12 -0.12)">
       <use transform="scale(0.996264)" xlink:href="#CMR17-52"/>
       <use transform="translate(45.690477 0)scale(0.996264)" xlink:href="#CMR17-48"/>
      </g>
     </g>
    </g>
    <g id="ytick_2">
     <g id="line2d_7">
      <g>
       <use style="stroke:#000000;stroke-width:0.8;" x="57.6" xlink:href="#m285dbdd1e9" y="225.378752"/>
      </g>
     </g>
     <g id="text_8">
      <!-- $50$ -->
      <g transform="translate(38.894019 229.529842)scale(0.12 -0.12)">
       <use transform="scale(0.996264)" xlink:href="#CMR17-53"/>
       <use transform="translate(45.690477 0)scale(0.996264)" xlink:href="#CMR17-48"/>
      </g>
     </g>
    </g>
    <g id="ytick_3">
     <g id="line2d_8">
      <g>
       <use style="stroke:#000000;stroke-width:0.8;" x="57.6" xlink:href="#m285dbdd1e9" y="177.260816"/>
      </g>
     </g>
     <g id="text_9">
      <!-- $60$ -->
      <g transform="translate(38.894019 181.411906)scale(0.12 -0.12)">
       <use transform="scale(0.996264)" xlink:href="#CMR17-54"/>
       <use transform="translate(45.690477 0)scale(0.996264)" xlink:href="#CMR17-48"/>
      </g>
     </g>
    </g>
    <g id="ytick_4">
     <g id="line2d_9">
      <g>
       <use style="stroke:#000000;stroke-width:0.8;" x="57.6" xlink:href="#m285dbdd1e9" y="129.14288"/>
      </g>
     </g>
     <g id="text_10">
      <!-- $70$ -->
      <g transform="translate(38.894019 133.29397)scale(0.12 -0.12)">
       <use transform="scale(0.996264)" xlink:href="#CMR17-55"/>
       <use transform="translate(45.690477 0)scale(0.996264)" xlink:href="#CMR17-48"/>
      </g>
     </g>
    </g>
    <g id="ytick_5">
     <g id="line2d_10">
      <g>
       <use style="stroke:#000000;stroke-width:0.8;" x="57.6" xlink:href="#m285dbdd1e9" y="81.024943"/>
      </g>
     </g>
     <g id="text_11">
      <!-- $80$ -->
      <g transform="translate(38.894019 85.176033)scale(0.12 -0.12)">
       <use transform="scale(0.996264)" xlink:href="#CMR17-56"/>
       <use transform="translate(45.690477 0)scale(0.996264)" xlink:href="#CMR17-48"/>
      </g>
     </g>
    </g>
    <g id="text_12">
     <!-- depression -->
     <defs>
      <path d="M 22 -16.609375 
C 15.59375 -16.609375 15.203125 -16.203125 15.203125 -12.328125 
L 15.203125 6.28125 
C 18.09375 2.09375 22.296875 -0.59375 27.59375 -0.59375 
C 37.59375 -0.59375 47.703125 8.171875 47.703125 21.6875 
C 47.703125 34.234375 39 43.78125 28.703125 43.78125 
C 22.703125 43.78125 17.796875 40.5 15 36.53125 
L 15 43.78125 
L 3.09375 42.6875 
L 3.09375 40.109375 
C 9 40.109375 9.90625 39.5 9.90625 34.734375 
L 9.90625 -12.328125 
C 9.90625 -16.109375 9.5 -16.609375 3.09375 -16.609375 
L 3.09375 -19.1875 
C 5.5 -19 9.90625 -19 12.5 -19 
C 15.09375 -19 19.59375 -19 22 -19.1875 
z
M 15.203125 31.4375 
C 15.203125 32.84375 15.203125 34.921875 19.09375 38.609375 
C 19.59375 39.015625 23 42 28 42 
C 35.296875 42 41.296875 32.9375 41.296875 21.59375 
C 41.296875 10.25 34.90625 1 27 1 
C 23.40625 1 19.5 2.6875 16.5 7.375 
C 15.203125 9.5625 15.203125 10.15625 15.203125 11.75 
z
" id="CMR17-112"/>
      <path d="M 15 23.390625 
C 15 33 19.09375 42 26.59375 42 
C 27.296875 42 28 41.90625 28.703125 41.59375 
C 28.703125 41.59375 26.5 40.890625 26.5 38.3125 
C 26.5 35.90625 28.40625 34.90625 29.90625 34.90625 
C 31.09375 34.90625 33.296875 35.609375 33.296875 38.40625 
C 33.296875 41.609375 30.09375 43.59375 26.703125 43.59375 
C 19.09375 43.59375 15.796875 36.203125 14.796875 32.703125 
L 14.703125 32.703125 
L 14.703125 43.59375 
L 3.09375 42.5 
L 3.09375 39.90625 
C 9 39.90625 9.90625 39.296875 9.90625 34.5 
L 9.90625 6.6875 
C 9.90625 2.875 9.5 2.390625 3.09375 2.390625 
L 3.09375 -0.203125 
C 5.5 0 10.09375 0 12.703125 0 
C 15.59375 0 20.703125 0 23.40625 -0.203125 
L 23.40625 2.390625 
C 16.203125 2.390625 15 2.390625 15 6.875 
z
" id="CMR17-114"/>
      <path d="M 30.90625 42.140625 
C 30.90625 43.953125 30.796875 44.046875 30.203125 44.046875 
C 29.796875 44.046875 29.703125 43.953125 28.5 42.453125 
C 28.203125 42.046875 27.296875 41.03125 27 40.640625 
C 23.796875 44.046875 19.296875 44.046875 17.59375 44.046875 
C 6.5 44.046875 2.5 38.234375 2.5 32.4375 
C 2.5 23.40625 12.703125 21.328125 15.59375 20.703125 
C 21.90625 19.421875 24.09375 19.015625 26.203125 17.203125 
C 27.5 16.015625 29.703125 13.8125 29.703125 10.21875 
C 29.703125 6 27.296875 0.59375 18.09375 0.59375 
C 9.40625 0.59375 6.296875 7.1875 4.5 15.953125 
C 4.203125 17.34375 4.203125 17.453125 3.40625 17.453125 
C 2.59375 17.453125 2.5 17.34375 2.5 15.359375 
L 2.5 0.984375 
C 2.5 -0.796875 2.59375 -0.90625 3.203125 -0.90625 
C 3.703125 -0.90625 3.796875 -0.796875 4.296875 0 
C 4.90625 0.890625 6.40625 3.296875 7 4.3125 
C 9 1.609375 12.5 -1 18.09375 -1 
C 28 -1 33.296875 4.421875 33.296875 12.25 
C 33.296875 17.375 30.59375 20.078125 29.296875 21.28125 
C 26.296875 24.390625 22.796875 25.09375 18.59375 25.890625 
C 13.09375 27.109375 6.09375 28.515625 6.09375 34.640625 
C 6.09375 37.234375 7.5 42.765625 17.59375 42.765625 
C 28.296875 42.765625 28.90625 32.71875 29.09375 29.5 
C 29.203125 29 29.703125 28.890625 30 28.890625 
C 30.90625 28.890625 30.90625 29.203125 30.90625 30.90625 
z
" id="CMR17-115"/>
      <path d="M 15.5 61.078125 
C 15.5 63.265625 13.703125 65.15625 11.40625 65.15625 
C 9.203125 65.15625 7.296875 63.375 7.296875 61.078125 
C 7.296875 58.890625 9.09375 57 11.40625 57 
C 13.59375 57 15.5 58.796875 15.5 61.078125 
z
M 3.796875 42.28125 
L 3.796875 39.703125 
C 9.40625 39.703125 10.203125 39.09375 10.203125 34.328125 
L 10.203125 6.671875 
C 10.203125 2.875 9.796875 2.390625 3.40625 2.390625 
L 3.40625 -0.203125 
C 5.796875 0 10.09375 0 12.59375 0 
C 15 0 19.09375 0 21.40625 -0.203125 
L 21.40625 2.390625 
C 15.5 2.390625 15.296875 2.984375 15.296875 6.5625 
L 15.296875 43.375 
z
" id="CMR17-105"/>
      <path d="M 43.09375 21.1875 
C 43.09375 34 33.796875 44 22.90625 44 
C 12 44 2.703125 34 2.703125 21.1875 
C 2.703125 8.609375 12 -1 22.90625 -1 
C 33.796875 -1 43.09375 8.609375 43.09375 21.1875 
z
M 22.90625 0.796875 
C 18.203125 0.796875 14.203125 3.59375 11.90625 7.5 
C 9.40625 11.984375 9.09375 17.59375 9.09375 22 
C 9.09375 26.203125 9.296875 31.40625 11.90625 35.90625 
C 13.90625 39.203125 17.796875 42.40625 22.90625 42.40625 
C 27.40625 42.40625 31.203125 39.90625 33.59375 36.40625 
C 36.703125 31.703125 36.703125 25.109375 36.703125 22 
C 36.703125 18.09375 36.5 12.109375 33.796875 7.296875 
C 31 2.703125 26.703125 0.796875 22.90625 0.796875 
z
" id="CMR17-111"/>
      <path d="M 41.5 30.203125 
C 41.5 35.296875 40.5 43.59375 28.703125 43.59375 
C 20.796875 43.59375 16.703125 37.5 15.203125 33.5 
L 15.09375 33.5 
L 15.09375 43.59375 
L 3.296875 42.5 
L 3.296875 39.90625 
C 9.203125 39.90625 10.09375 39.296875 10.09375 34.5 
L 10.09375 6.6875 
C 10.09375 2.875 9.703125 2.390625 3.296875 2.390625 
L 3.296875 -0.203125 
C 5.703125 0 10.09375 0 12.703125 0 
C 15.296875 0 19.796875 0 22.203125 -0.203125 
L 22.203125 2.390625 
C 15.796875 2.390625 15.40625 2.78125 15.40625 6.6875 
L 15.40625 25.90625 
C 15.40625 35.109375 21 42 28 42 
C 35.40625 42 36.203125 35.40625 36.203125 30.59375 
L 36.203125 6.6875 
C 36.203125 2.875 35.796875 2.390625 29.40625 2.390625 
L 29.40625 -0.203125 
C 31.796875 0 36.203125 0 38.796875 0 
C 41.40625 0 45.90625 0 48.296875 -0.203125 
L 48.296875 2.390625 
C 41.90625 2.390625 41.5 2.78125 41.5 6.6875 
z
" id="CMR17-110"/>
     </defs>
     <g transform="translate(32.569424 185.379489)rotate(-90)scale(0.12 -0.12)">
      <use transform="scale(0.996264)" xlink:href="#CMR17-100"/>
      <use transform="translate(50.89537 0)scale(0.996264)" xlink:href="#CMR17-101"/>
      <use transform="translate(91.38103 0)scale(0.996264)" xlink:href="#CMR17-112"/>
      <use transform="translate(142.2764 0)scale(0.996264)" xlink:href="#CMR17-114"/>
      <use transform="translate(177.557168 0)scale(0.996264)" xlink:href="#CMR17-101"/>
      <use transform="translate(218.042828 0)scale(0.996264)" xlink:href="#CMR17-115"/>
      <use transform="translate(253.844166 0)scale(0.996264)" xlink:href="#CMR17-115"/>
      <use transform="translate(289.645504 0)scale(0.996264)" xlink:href="#CMR17-105"/>
      <use transform="translate(314.516562 0)scale(0.996264)" xlink:href="#CMR17-111"/>
      <use transform="translate(360.207039 0)scale(0.996264)" xlink:href="#CMR17-110"/>
     </g>
    </g>
   </g>
   <g id="line2d_11">
    <path clip-path="url(#pab8b759ead)" d="M 73.832727 239.814133 
L 75.105882 233.077622 
L 76.379037 235.002339 
L 77.652193 229.228187 
L 78.925348 209.018654 
L 80.198503 205.169219 
L 82.744813 180.147892 
L 84.017968 165.712511 
L 85.291123 173.411381 
L 86.564278 165.712511 
L 87.837433 177.260816 
L 89.110588 181.110251 
L 90.383743 176.298457 
L 91.656898 182.072609 
L 92.930053 176.298457 
L 94.203209 168.599587 
L 95.476364 165.712511 
L 96.749519 180.147892 
L 98.022674 179.185533 
L 99.295829 201.319784 
L 101.842139 226.341111 
L 103.115294 225.378752 
L 104.388449 229.228187 
L 105.661604 242.701209 
L 106.934759 239.814133 
L 108.207914 246.550644 
L 109.48107 239.814133 
L 110.754225 231.152904 
L 112.02738 206.131577 
L 113.300535 206.131577 
L 114.57369 171.486663 
L 115.846845 175.336098 
L 117.12 161.863076 
L 118.393155 154.164206 
L 119.66631 151.27713 
L 120.939465 163.787794 
L 122.21262 155.126565 
L 123.485775 175.336098 
L 124.75893 184.959686 
L 126.032086 176.298457 
L 127.305241 179.185533 
L 128.578396 174.37374 
L 129.851551 148.390054 
L 131.124706 126.255803 
L 132.397861 137.804108 
L 133.671016 124.331086 
L 134.944171 136.841749 
L 136.217326 153.201848 
L 137.490481 176.298457 
L 138.763636 187.846762 
L 140.036791 196.50799 
L 141.309947 189.771479 
L 142.583102 188.80912 
L 143.856257 183.034968 
L 145.129412 127.218162 
L 147.675722 97.385042 
L 148.948877 77.175509 
L 150.222032 52.154182 
L 152.768342 101.234477 
L 155.314652 139.728826 
L 156.587807 160.900717 
L 157.860963 152.239489 
L 159.134118 157.051283 
L 160.407273 151.27713 
L 161.680428 149.352413 
L 162.953583 155.126565 
L 164.226738 182.072609 
L 165.499893 181.110251 
L 168.046203 211.90573 
L 169.319358 238.851774 
L 170.592513 250.400079 
L 171.865668 260.023666 
L 173.138824 250.400079 
L 174.411979 247.513002 
L 175.685134 223.454034 
L 178.231444 187.846762 
L 179.504599 183.997327 
L 180.777754 172.449022 
L 182.050909 163.787794 
L 183.324064 154.164206 
L 184.597219 147.427695 
L 185.870374 143.57826 
L 187.143529 142.615902 
L 188.416684 150.314771 
L 189.68984 155.126565 
L 190.962995 151.27713 
L 192.23615 142.615902 
L 193.509305 135.879391 
L 194.78246 119.519292 
L 196.055615 115.669857 
L 197.32877 105.083912 
L 198.601925 117.594575 
L 199.87508 113.74514 
L 201.148235 130.105238 
L 202.42139 144.540619 
L 203.694545 175.336098 
L 204.967701 178.223174 
L 206.240856 192.658555 
L 207.514011 199.395066 
L 208.787166 191.696197 
L 210.060321 183.034968 
L 211.333476 183.997327 
L 212.606631 175.336098 
L 213.879786 146.465337 
L 215.152941 144.540619 
L 216.426096 122.406369 
L 217.699251 107.008629 
L 218.972406 112.782781 
L 220.245561 134.917032 
L 221.518717 132.992314 
L 222.791872 142.615902 
L 224.065027 154.164206 
L 226.611337 131.067597 
L 227.884492 137.804108 
L 229.157647 158.013641 
L 230.430802 158.976 
L 231.703957 183.034968 
L 234.250267 214.792806 
L 235.523422 218.642241 
L 236.796578 236.927057 
L 238.069733 237.889415 
L 239.342888 242.701209 
L 240.616043 234.03998 
L 241.889198 228.265828 
L 243.162353 209.981012 
L 244.435508 201.319784 
L 245.708663 190.733838 
L 246.981818 183.997327 
L 248.254973 180.147892 
L 249.528128 174.37374 
L 250.801283 158.013641 
L 252.074439 152.239489 
L 254.620749 148.390054 
L 255.893904 144.540619 
L 257.167059 153.201848 
L 258.440214 146.465337 
L 260.986524 134.917032 
L 262.259679 127.218162 
L 263.532834 142.615902 
L 264.805989 141.653543 
L 266.079144 150.314771 
L 267.352299 165.712511 
L 268.625455 202.282143 
L 269.89861 201.319784 
L 271.171765 226.341111 
L 272.44492 236.927057 
L 273.718075 235.002339 
L 274.99123 213.830447 
L 276.264385 203.244501 
L 277.53754 197.470349 
L 278.810695 183.034968 
L 280.08385 178.223174 
L 281.357005 174.37374 
L 282.63016 169.561946 
L 283.903316 168.599587 
L 285.176471 183.997327 
L 286.449626 193.620914 
L 287.722781 191.696197 
L 288.995936 193.620914 
L 290.269091 184.959686 
L 291.542246 171.486663 
L 292.815401 149.352413 
L 294.088556 151.27713 
L 295.361711 158.013641 
L 296.634866 177.260816 
L 297.908021 183.997327 
L 299.181176 207.093936 
L 300.454332 219.6046 
L 301.727487 238.851774 
L 303.000642 232.115263 
L 304.273797 234.03998 
L 305.546952 236.927057 
L 306.820107 245.588285 
L 308.093262 245.588285 
L 309.366417 246.550644 
L 310.639572 244.625926 
L 311.912727 233.077622 
L 314.459037 180.147892 
L 317.005348 143.57826 
L 318.278503 128.180521 
L 319.551658 154.164206 
L 320.824813 174.37374 
L 322.097968 189.771479 
L 323.371123 202.282143 
L 324.644278 216.717523 
L 325.917433 191.696197 
L 327.190588 160.900717 
L 328.463743 156.088924 
L 329.736898 149.352413 
L 331.010053 136.841749 
L 332.283209 148.390054 
L 333.556364 176.298457 
L 334.829519 188.80912 
L 336.102674 213.830447 
L 337.375829 242.701209 
L 338.648984 250.400079 
L 339.922139 243.663568 
L 341.195294 225.378752 
L 342.468449 216.717523 
L 343.741604 190.733838 
L 345.014759 181.110251 
L 346.287914 148.390054 
L 347.56107 143.57826 
L 348.834225 135.879391 
L 350.10738 141.653543 
L 351.380535 132.992314 
L 352.65369 168.599587 
L 353.926845 183.997327 
L 356.473155 164.750152 
L 357.74631 172.449022 
L 359.019465 158.013641 
L 360.29262 155.126565 
L 362.83893 176.298457 
L 364.112086 180.147892 
L 366.658396 207.093936 
L 367.931551 222.491676 
L 371.751016 261.948383 
L 374.297326 265.797818 
L 375.570481 260.986025 
L 376.843636 260.986025 
L 378.116791 255.211872 
L 379.389947 238.851774 
L 380.663102 217.679882 
L 381.936257 202.282143 
L 383.209412 200.357425 
L 384.482567 179.185533 
L 385.755722 176.298457 
L 387.028877 188.80912 
L 388.302032 195.545631 
L 389.575187 191.696197 
L 390.848342 204.20686 
L 392.121497 202.282143 
L 393.394652 193.620914 
L 394.667807 200.357425 
L 395.940963 199.395066 
L 397.214118 178.223174 
L 398.487273 174.37374 
L 398.487273 174.37374 
" style="fill:none;stroke:#0000ff;stroke-linecap:square;stroke-width:1.5;"/>
   </g>
   <g id="patch_3">
    <path d="M 57.6 276.48 
L 57.6 41.472 
" style="fill:none;stroke:#000000;stroke-linecap:square;stroke-linejoin:miter;stroke-width:0.8;"/>
   </g>
   <g id="patch_4">
    <path d="M 414.72 276.48 
L 414.72 41.472 
" style="fill:none;stroke:#000000;stroke-linecap:square;stroke-linejoin:miter;stroke-width:0.8;"/>
   </g>
   <g id="patch_5">
    <path d="M 57.6 276.48 
L 414.72 276.48 
" style="fill:none;stroke:#000000;stroke-linecap:square;stroke-linejoin:miter;stroke-width:0.8;"/>
   </g>
   <g id="patch_6">
    <path d="M 57.6 41.472 
L 414.72 41.472 
" style="fill:none;stroke:#000000;stroke-linecap:square;stroke-linejoin:miter;stroke-width:0.8;"/>
   </g>
  </g>
  <g id="axes_2">
   <g id="matplotlib.axis_3">
    <g id="ytick_6">
     <g id="line2d_12">
      <defs>
       <path d="M 0 0 
L 3.5 0 
" id="m845a1a5c4f" style="stroke:#000000;stroke-width:0.8;"/>
      </defs>
      <g>
       <use style="stroke:#000000;stroke-width:0.8;" x="414.72" xlink:href="#m845a1a5c4f" y="261.853871"/>
      </g>
     </g>
     <g id="text_13">
      <!-- $8$ -->
      <g transform="translate(421.72 266.004961)scale(0.12 -0.12)">
       <use transform="scale(0.996264)" xlink:href="#CMR17-56"/>
      </g>
     </g>
    </g>
    <g id="ytick_7">
     <g id="line2d_13">
      <g>
       <use style="stroke:#000000;stroke-width:0.8;" x="414.72" xlink:href="#m845a1a5c4f" y="234.246238"/>
      </g>
     </g>
     <g id="text_14">
      <!-- $10$ -->
      <g transform="translate(421.72 238.397328)scale(0.12 -0.12)">
       <use transform="scale(0.996264)" xlink:href="#CMR17-49"/>
       <use transform="translate(45.690477 0)scale(0.996264)" xlink:href="#CMR17-48"/>
      </g>
     </g>
    </g>
    <g id="ytick_8">
     <g id="line2d_14">
      <g>
       <use style="stroke:#000000;stroke-width:0.8;" x="414.72" xlink:href="#m845a1a5c4f" y="206.638606"/>
      </g>
     </g>
     <g id="text_15">
      <!-- $12$ -->
      <g transform="translate(421.72 210.789696)scale(0.12 -0.12)">
       <use transform="scale(0.996264)" xlink:href="#CMR17-49"/>
       <use transform="translate(45.690477 0)scale(0.996264)" xlink:href="#CMR17-50"/>
      </g>
     </g>
    </g>
    <g id="ytick_9">
     <g id="line2d_15">
      <g>
       <use style="stroke:#000000;stroke-width:0.8;" x="414.72" xlink:href="#m845a1a5c4f" y="179.030973"/>
      </g>
     </g>
     <g id="text_16">
      <!-- $14$ -->
      <g transform="translate(421.72 183.182063)scale(0.12 -0.12)">
       <use transform="scale(0.996264)" xlink:href="#CMR17-49"/>
       <use transform="translate(45.690477 0)scale(0.996264)" xlink:href="#CMR17-52"/>
      </g>
     </g>
    </g>
    <g id="ytick_10">
     <g id="line2d_16">
      <g>
       <use style="stroke:#000000;stroke-width:0.8;" x="414.72" xlink:href="#m845a1a5c4f" y="151.423341"/>
      </g>
     </g>
     <g id="text_17">
      <!-- $16$ -->
      <g transform="translate(421.72 155.57443)scale(0.12 -0.12)">
       <use transform="scale(0.996264)" xlink:href="#CMR17-49"/>
       <use transform="translate(45.690477 0)scale(0.996264)" xlink:href="#CMR17-54"/>
      </g>
     </g>
    </g>
    <g id="ytick_11">
     <g id="line2d_17">
      <g>
       <use style="stroke:#000000;stroke-width:0.8;" x="414.72" xlink:href="#m845a1a5c4f" y="123.815708"/>
      </g>
     </g>
     <g id="text_18">
      <!-- $18$ -->
      <g transform="translate(421.72 127.966798)scale(0.12 -0.12)">
       <use transform="scale(0.996264)" xlink:href="#CMR17-49"/>
       <use transform="translate(45.690477 0)scale(0.996264)" xlink:href="#CMR17-56"/>
      </g>
     </g>
    </g>
    <g id="ytick_12">
     <g id="line2d_18">
      <g>
       <use style="stroke:#000000;stroke-width:0.8;" x="414.72" xlink:href="#m845a1a5c4f" y="96.208075"/>
      </g>
     </g>
     <g id="text_19">
      <!-- $20$ -->
      <g transform="translate(421.72 100.359165)scale(0.12 -0.12)">
       <use transform="scale(0.996264)" xlink:href="#CMR17-50"/>
       <use transform="translate(45.690477 0)scale(0.996264)" xlink:href="#CMR17-48"/>
      </g>
     </g>
    </g>
    <g id="ytick_13">
     <g id="line2d_19">
      <g>
       <use style="stroke:#000000;stroke-width:0.8;" x="414.72" xlink:href="#m845a1a5c4f" y="68.600443"/>
      </g>
     </g>
     <g id="text_20">
      <!-- $22$ -->
      <g transform="translate(421.72 72.751533)scale(0.12 -0.12)">
       <use transform="scale(0.996264)" xlink:href="#CMR17-50"/>
       <use transform="translate(45.690477 0)scale(0.996264)" xlink:href="#CMR17-50"/>
      </g>
     </g>
    </g>
    <g id="ytick_14">
     <g id="line2d_20">
      <g>
       <use style="stroke:#000000;stroke-width:0.8;" x="414.72" xlink:href="#m845a1a5c4f" y="40.99281"/>
      </g>
     </g>
     <g id="text_21">
      <!-- $24$ -->
      <g transform="translate(421.72 45.1439)scale(0.12 -0.12)">
       <use transform="scale(0.996264)" xlink:href="#CMR17-50"/>
       <use transform="translate(45.690477 0)scale(0.996264)" xlink:href="#CMR17-52"/>
      </g>
     </g>
    </g>
    <g id="text_22">
     <!-- minTemp -->
     <defs>
      <path d="M 67.59375 30.203125 
C 67.59375 35.1875 66.703125 43.59375 54.796875 43.59375 
C 48 43.59375 43.296875 39 41.5 33.609375 
L 41.40625 33.609375 
C 40.203125 41.8125 34.296875 43.59375 28.703125 43.59375 
C 20.796875 43.59375 16.703125 37.5 15.203125 33.5 
L 15.09375 33.5 
L 15.09375 43.59375 
L 3.296875 42.5 
L 3.296875 39.90625 
C 9.203125 39.90625 10.09375 39.296875 10.09375 34.5 
L 10.09375 6.6875 
C 10.09375 2.875 9.703125 2.390625 3.296875 2.390625 
L 3.296875 -0.203125 
C 5.703125 0 10.09375 0 12.703125 0 
C 15.296875 0 19.796875 0 22.203125 -0.203125 
L 22.203125 2.390625 
C 15.796875 2.390625 15.40625 2.78125 15.40625 6.6875 
L 15.40625 25.90625 
C 15.40625 35.109375 21 42 28 42 
C 35.40625 42 36.203125 35.40625 36.203125 30.59375 
L 36.203125 6.6875 
C 36.203125 2.875 35.796875 2.390625 29.40625 2.390625 
L 29.40625 -0.203125 
C 31.796875 0 36.203125 0 38.796875 0 
C 41.40625 0 45.90625 0 48.296875 -0.203125 
L 48.296875 2.390625 
C 41.90625 2.390625 41.5 2.78125 41.5 6.6875 
L 41.5 25.90625 
C 41.5 35.109375 47.09375 42 54.09375 42 
C 61.5 42 62.296875 35.40625 62.296875 30.59375 
L 62.296875 6.6875 
C 62.296875 2.875 61.90625 2.390625 55.5 2.390625 
L 55.5 -0.203125 
C 57.90625 0 62.296875 0 64.90625 0 
C 67.5 0 72 0 74.40625 -0.203125 
L 74.40625 2.390625 
C 68 2.390625 67.59375 2.78125 67.59375 6.6875 
z
" id="CMR17-109"/>
      <path d="M 62.203125 67.59375 
L 4.5 67.59375 
L 2.796875 45.59375 
L 4.59375 45.59375 
C 5.90625 62.125 7.296875 65 22.703125 65 
C 24.5 65 27.40625 65 28.203125 64.90625 
C 30.09375 64.609375 30.09375 63.40625 30.09375 61.125 
L 30.09375 7.171875 
C 30.09375 3.59375 29.796875 2.5 21.5 2.5 
L 18.703125 2.5 
L 18.703125 0 
C 23.5 0 28.5 0 33.40625 0 
C 38.296875 0 43.296875 0 48.09375 0 
L 48.09375 2.5 
L 45.296875 2.5 
C 37 2.5 36.703125 3.59375 36.703125 7.171875 
L 36.703125 61.125 
C 36.703125 63.3125 36.703125 64.515625 38.5 64.90625 
C 39.296875 65 42.203125 65 44 65 
C 59.296875 65 60.796875 62.125 62.09375 45.59375 
L 63.90625 45.59375 
z
" id="CMR17-84"/>
     </defs>
     <g transform="translate(445.72816 183.200876)rotate(-90)scale(0.12 -0.12)">
      <use transform="scale(0.996264)" xlink:href="#CMR17-109"/>
      <use transform="translate(76.91959 0)scale(0.996264)" xlink:href="#CMR17-105"/>
      <use transform="translate(101.790648 0)scale(0.996264)" xlink:href="#CMR17-110"/>
      <use transform="translate(152.686018 0)scale(0.996264)" xlink:href="#CMR17-84"/>
      <use transform="translate(211.388643 0)scale(0.996264)" xlink:href="#CMR17-101"/>
      <use transform="translate(251.874304 0)scale(0.996264)" xlink:href="#CMR17-109"/>
      <use transform="translate(328.793894 0)scale(0.996264)" xlink:href="#CMR17-112"/>
     </g>
    </g>
   </g>
   <g id="line2d_21">
    <path clip-path="url(#pab8b759ead)" d="M 73.832727 214.368743 
L 75.105882 215.749124 
L 76.379037 210.385356 
L 77.652193 210.0304 
L 78.925348 225.175159 
L 80.198503 221.822803 
L 81.471658 236.730925 
L 82.744813 231.800991 
L 84.017968 227.34433 
L 85.291123 208.689458 
L 86.564278 204.548313 
L 87.837433 181.51566 
L 89.110588 173.864402 
L 90.383743 160.809936 
L 91.656898 157.851975 
L 92.930053 146.730043 
L 94.203209 144.008719 
L 95.476364 140.261969 
L 98.022674 125.827121 
L 99.295829 125.432726 
L 100.568984 129.140037 
L 101.842139 120.187276 
L 103.115294 120.305595 
L 104.388449 111.62891 
L 105.661604 98.88996 
L 106.934759 83.508564 
L 108.207914 79.801254 
L 109.48107 71.83448 
L 110.754225 72.268314 
L 112.02738 78.933585 
L 113.300535 79.406859 
L 114.57369 72.504951 
L 115.846845 80.511164 
L 118.393155 90.173836 
L 119.66631 89.542804 
L 120.939465 96.799668 
L 122.21262 97.233502 
L 123.485775 100.940812 
L 124.75893 108.986465 
L 126.032086 123.776269 
L 127.305241 140.538045 
L 128.578396 160.060586 
L 129.851551 171.971307 
L 131.124706 174.140478 
L 132.397861 178.557699 
L 133.671016 182.343889 
L 134.944171 180.72687 
L 136.217326 187.589339 
L 137.490481 201.195958 
L 138.763636 220.797377 
L 140.036791 243.001802 
L 141.309947 257.633847 
L 143.856257 265.797818 
L 145.129412 258.738152 
L 146.402567 243.12012 
L 147.675722 230.499488 
L 148.948877 227.975362 
L 150.222032 222.532714 
L 151.495187 215.31529 
L 152.768342 212.396769 
L 154.041497 206.954121 
L 155.314652 195.280037 
L 156.587807 180.253597 
L 157.860963 176.033573 
L 159.134118 167.001933 
L 160.407273 150.042959 
L 161.680428 139.670377 
L 162.953583 126.339834 
L 164.226738 101.729602 
L 165.499893 86.387646 
L 166.773048 83.508564 
L 168.046203 76.488338 
L 169.319358 75.660109 
L 170.592513 82.128183 
L 171.865668 75.384033 
L 173.138824 75.107956 
L 174.411979 69.428672 
L 175.685134 66.667909 
L 176.958289 64.695935 
L 178.231444 74.121969 
L 179.504599 77.395446 
L 180.777754 83.153609 
L 182.050909 83.548004 
L 183.324064 83.548004 
L 184.597219 82.009864 
L 185.870374 80.82668 
L 187.143529 79.091343 
L 188.416684 82.562017 
L 189.68984 95.498165 
L 190.962995 104.529805 
L 192.23615 121.528218 
L 194.78246 163.412941 
L 196.055615 179.819763 
L 197.32877 187.471021 
L 198.601925 190.310663 
L 199.87508 206.047013 
L 201.148235 204.82439 
L 202.42139 200.131092 
L 204.967701 215.670245 
L 206.240856 213.501074 
L 207.514011 232.037628 
L 208.787166 232.432022 
L 210.060321 239.294491 
L 211.333476 247.497902 
L 212.606631 250.376983 
L 213.879786 235.035028 
L 215.152941 228.645833 
L 216.426096 225.293477 
L 217.699251 212.31789 
L 218.972406 200.880442 
L 220.245561 201.274837 
L 221.518717 205.928695 
L 225.338182 171.695231 
L 226.611337 156.392714 
L 227.884492 137.18569 
L 229.157647 128.430127 
L 230.430802 125.117211 
L 231.703957 109.775255 
L 232.977112 104.805881 
L 234.250267 104.727002 
L 235.523422 100.980252 
L 236.796578 92.343007 
L 238.069733 102.242315 
L 239.342888 99.402673 
L 240.616043 99.875947 
L 241.889198 98.495565 
L 243.162353 94.275541 
L 244.435508 82.36482 
L 245.708663 84.218475 
L 246.981818 75.305154 
L 248.254973 71.952798 
L 249.528128 73.688135 
L 250.801283 77.947599 
L 252.074439 74.319167 
L 253.347594 85.36222 
L 254.620749 91.199262 
L 255.893904 99.63931 
L 258.440214 120.699989 
L 259.713369 124.170663 
L 260.986524 130.204903 
L 262.259679 141.642351 
L 263.532834 151.46278 
L 264.805989 166.173704 
L 266.079144 177.690031 
L 267.352299 190.468421 
L 268.625455 191.533287 
L 269.89861 197.488647 
L 272.44492 217.247824 
L 273.718075 214.526501 
L 274.99123 213.501074 
L 276.264385 219.416996 
L 277.53754 211.726298 
L 278.810695 210.740311 
L 281.357005 224.465248 
L 282.63016 214.526501 
L 283.903316 205.928695 
L 285.176471 188.930281 
L 286.449626 180.529673 
L 287.722781 176.704044 
L 288.995936 175.52086 
L 290.269091 174.968707 
L 291.542246 178.952094 
L 292.815401 174.179918 
L 294.088556 163.334062 
L 295.361711 143.022732 
L 296.634866 134.385487 
L 297.908021 124.525619 
L 300.454332 97.549018 
L 301.727487 98.692762 
L 303.000642 87.886346 
L 304.273797 79.406859 
L 305.546952 74.279727 
L 306.820107 72.307754 
L 308.093262 63.907145 
L 309.366417 61.816853 
L 310.639572 55.900932 
L 311.912727 52.509137 
L 313.185882 52.154182 
L 314.459037 61.146382 
L 315.732193 63.986024 
L 317.005348 73.530377 
L 318.278503 77.474325 
L 319.551658 80.590043 
L 320.824813 78.026477 
L 323.371123 104.332607 
L 324.644278 122.632524 
L 325.917433 144.915827 
L 327.190588 161.95368 
L 328.463743 166.094825 
L 329.736898 167.672404 
L 331.010053 171.064199 
L 332.283209 179.938081 
L 333.556364 192.677031 
L 334.829519 193.939095 
L 336.102674 203.32569 
L 337.375829 211.213585 
L 338.648984 213.146119 
L 339.922139 211.844616 
L 342.468449 238.939536 
L 343.741604 242.765165 
L 345.014759 243.12012 
L 346.287914 243.317317 
L 347.56107 238.900096 
L 348.834225 229.947335 
L 350.10738 229.040227 
L 351.380535 222.572154 
L 352.65369 212.002374 
L 355.2 169.48662 
L 356.473155 141.287395 
L 357.74631 125.432726 
L 359.019465 119.595684 
L 360.29262 119.477366 
L 361.565775 122.238129 
L 362.83893 133.833335 
L 364.112086 136.712416 
L 365.385241 123.460753 
L 366.658396 122.9086 
L 367.931551 115.691176 
L 369.204706 100.467539 
L 370.477861 87.452512 
L 371.751016 85.441099 
L 374.297326 88.280741 
L 375.570481 78.736388 
L 376.843636 83.232488 
L 378.116791 92.14581 
L 379.389947 89.779441 
L 380.663102 78.736388 
L 381.936257 80.86612 
L 383.209412 81.773228 
L 384.482567 80.274528 
L 385.755722 87.373633 
L 387.028877 88.438499 
L 388.302032 97.036304 
L 389.575187 100.38866 
L 390.848342 105.318594 
L 392.121497 117.781468 
L 393.394652 134.18829 
L 394.667807 146.296209 
L 395.940963 165.897628 
L 398.487273 197.212571 
L 398.487273 197.212571 
" style="fill:none;stroke:#ff0000;stroke-dasharray:5.55,2.4;stroke-dashoffset:0;stroke-width:1.5;"/>
   </g>
   <g id="patch_7">
    <path d="M 57.6 276.48 
L 57.6 41.472 
" style="fill:none;stroke:#000000;stroke-linecap:square;stroke-linejoin:miter;stroke-width:0.8;"/>
   </g>
   <g id="patch_8">
    <path d="M 414.72 276.48 
L 414.72 41.472 
" style="fill:none;stroke:#000000;stroke-linecap:square;stroke-linejoin:miter;stroke-width:0.8;"/>
   </g>
   <g id="patch_9">
    <path d="M 57.6 276.48 
L 414.72 276.48 
" style="fill:none;stroke:#000000;stroke-linecap:square;stroke-linejoin:miter;stroke-width:0.8;"/>
   </g>
   <g id="patch_10">
    <path d="M 57.6 41.472 
L 414.72 41.472 
" style="fill:none;stroke:#000000;stroke-linecap:square;stroke-linejoin:miter;stroke-width:0.8;"/>
   </g>
   <g id="legend_1">
    <g id="patch_11">
     <path d="M 315.113021 270.48 
L 406.32 270.48 
Q 408.72 270.48 408.72 268.08 
L 408.72 219.106213 
Q 408.72 216.706213 406.32 216.706213 
L 315.113021 216.706213 
Q 312.713021 216.706213 312.713021 219.106213 
L 312.713021 268.08 
Q 312.713021 270.48 315.113021 270.48 
z
" style="fill:#ffffff;opacity:0.8;stroke:#cccccc;stroke-linejoin:miter;"/>
    </g>
    <g id="line2d_22">
     <path d="M 317.513021 225.706213 
L 341.513021 225.706213 
" style="fill:none;stroke:#ff0000;stroke-dasharray:5.55,2.4;stroke-dashoffset:0;stroke-width:1.5;"/>
    </g>
    <g id="line2d_23"/>
    <g id="text_23">
     <!-- minTemp -->
     <g transform="translate(351.113021 229.906213)scale(0.12 -0.12)">
      <use transform="scale(0.996264)" xlink:href="#CMR17-109"/>
      <use transform="translate(76.91959 0)scale(0.996264)" xlink:href="#CMR17-105"/>
      <use transform="translate(101.790648 0)scale(0.996264)" xlink:href="#CMR17-110"/>
      <use transform="translate(152.686018 0)scale(0.996264)" xlink:href="#CMR17-84"/>
      <use transform="translate(211.388643 0)scale(0.996264)" xlink:href="#CMR17-101"/>
      <use transform="translate(251.874304 0)scale(0.996264)" xlink:href="#CMR17-109"/>
      <use transform="translate(328.793894 0)scale(0.996264)" xlink:href="#CMR17-112"/>
     </g>
    </g>
    <g id="line2d_24">
     <path d="M 317.513021 242.430808 
L 341.513021 242.430808 
" style="fill:none;stroke:#0000ff;stroke-linecap:square;stroke-width:1.5;"/>
    </g>
    <g id="line2d_25"/>
    <g id="text_24">
     <!-- depression -->
     <g transform="translate(351.113021 246.630808)scale(0.12 -0.12)">
      <use transform="scale(0.996264)" xlink:href="#CMR17-100"/>
      <use transform="translate(50.89537 0)scale(0.996264)" xlink:href="#CMR17-101"/>
      <use transform="translate(91.38103 0)scale(0.996264)" xlink:href="#CMR17-112"/>
      <use transform="translate(142.2764 0)scale(0.996264)" xlink:href="#CMR17-114"/>
      <use transform="translate(177.557168 0)scale(0.996264)" xlink:href="#CMR17-101"/>
      <use transform="translate(218.042828 0)scale(0.996264)" xlink:href="#CMR17-115"/>
      <use transform="translate(253.844166 0)scale(0.996264)" xlink:href="#CMR17-115"/>
      <use transform="translate(289.645504 0)scale(0.996264)" xlink:href="#CMR17-105"/>
      <use transform="translate(314.516562 0)scale(0.996264)" xlink:href="#CMR17-111"/>
      <use transform="translate(360.207039 0)scale(0.996264)" xlink:href="#CMR17-110"/>
     </g>
    </g>
    <g id="patch_12">
     <path d="M 317.513021 263.355404 
L 341.513021 263.355404 
L 341.513021 254.955404 
L 317.513021 254.955404 
z
" style="fill:none;"/>
    </g>
    <g id="text_25">
     <!-- $\rho=-0.34 $ -->
     <defs>
      <path d="M 3.09375 -17.296875 
C 3 -17.796875 2.796875 -18.390625 2.796875 -19 
C 2.796875 -20.5 4 -21.5 5.5 -21.5 
C 7 -21.5 8.40625 -20.5 9 -19.09375 
C 9.40625 -18.1875 12.203125 -6.203125 15.40625 6.09375 
C 17.40625 1.09375 21.09375 -1 25 -1 
C 36.296875 -1 49.09375 12.96875 49.09375 28.046875 
C 49.09375 38.71875 42.59375 44 35.703125 44 
C 26.90625 44 16.203125 34.921875 12.90625 21.640625 
z
M 24.90625 1 
C 18.09375 1 16.40625 8.890625 16.40625 10.078125 
C 16.40625 10.6875 18.90625 20.234375 19.203125 21.734375 
C 24.296875 41.71875 34.09375 41.71875 35.59375 41.71875 
C 40.09375 41.71875 42.59375 37.65625 42.59375 31.8125 
C 42.59375 26.75 39.90625 16.9375 38.203125 12.796875 
C 35.203125 5.953125 30 1 24.90625 1 
z
" id="CMMI12-26"/>
      <path d="M 64.296875 31.515625 
C 65.796875 31.515625 67.296875 31.515625 67.296875 33.203125 
C 67.296875 35 65.59375 35 63.90625 35 
L 8 35 
C 6.296875 35 4.59375 35 4.59375 33.203125 
C 4.59375 31.515625 6.09375 31.515625 7.59375 31.515625 
z
M 63.90625 14 
C 65.59375 14 67.296875 14 67.296875 15.796875 
C 67.296875 17.484375 65.796875 17.484375 64.296875 17.484375 
L 7.59375 17.484375 
C 6.09375 17.484375 4.59375 17.484375 4.59375 15.796875 
C 4.59375 14 6.296875 14 8 14 
z
" id="CMR17-61"/>
      <path d="M 65.90625 23 
C 67.59375 23 69.40625 23 69.40625 25 
C 69.40625 27 67.59375 27 65.90625 27 
L 11.796875 27 
C 10.09375 27 8.296875 27 8.296875 25 
C 8.296875 23 10.09375 23 11.796875 23 
z
" id="CMSY10-0"/>
      <path d="M 18.40625 4.796875 
C 18.40625 7.6875 16 9.671875 13.59375 9.671875 
C 10.703125 9.671875 8.703125 7.28125 8.703125 4.890625 
C 8.703125 2 11.09375 0 13.5 0 
C 16.40625 0 18.40625 2.390625 18.40625 4.796875 
z
" id="CMMI12-58"/>
      <path d="M 22.09375 33.703125 
C 31 33.703125 34.90625 25.96875 34.90625 17.03125 
C 34.90625 5 28.5 0.390625 22.703125 0.390625 
C 17.40625 0.390625 8.796875 3.03125 6.09375 10.828125 
C 6.59375 10.625 7.09375 10.625 7.59375 10.625 
C 10 10.625 11.796875 12.21875 11.796875 14.8125 
C 11.796875 17.703125 9.59375 19 7.59375 19 
C 5.90625 19 3.296875 18.203125 3.296875 14.46875 
C 3.296875 5.234375 12.296875 -2 22.90625 -2 
C 34 -2 42.5 6.71875 42.5 16.953125 
C 42.5 26.671875 34.5 33.703125 25 34.796875 
C 32.59375 36.375 39.90625 43.0625 39.90625 52.015625 
C 39.90625 59.6875 32 65.296875 23 65.296875 
C 13.90625 65.296875 5.90625 59.828125 5.90625 52.015625 
C 5.90625 48.59375 8.5 48 9.796875 48 
C 11.90625 48 13.703125 49.296875 13.703125 51.890625 
C 13.703125 54.46875 11.90625 55.765625 9.796875 55.765625 
C 9.40625 55.765625 8.90625 55.765625 8.5 55.578125 
C 11.40625 61.859375 19.296875 63 22.796875 63 
C 26.296875 63 32.90625 61.328125 32.90625 51.875 
C 32.90625 49.109375 32.5 44.1875 29.09375 39.84375 
C 26.09375 36 22.703125 36 19.40625 35.6875 
C 18.90625 35.6875 16.59375 35.453125 16.203125 35.453125 
C 15.5 35.359375 15.09375 35.265625 15.09375 34.5 
C 15.09375 33.796875 15.203125 33.703125 17.203125 33.703125 
z
" id="CMR17-51"/>
     </defs>
     <g transform="translate(351.113021 263.355404)scale(0.12 -0.12)">
      <use transform="scale(0.996264)" xlink:href="#CMMI12-26"/>
      <use transform="translate(77.988382 0)scale(0.996264)" xlink:href="#CMR17-61"/>
      <use transform="translate(177.377179 0)scale(0.996264)" xlink:href="#CMSY10-0"/>
      <use transform="translate(254.864646 0)scale(0.996264)" xlink:href="#CMR17-48"/>
      <use transform="translate(300.555123 0)scale(0.996264)" xlink:href="#CMMI12-58"/>
      <use transform="translate(327.652301 0)scale(0.996264)" xlink:href="#CMR17-51"/>
      <use transform="translate(373.342778 0)scale(0.996264)" xlink:href="#CMR17-52"/>
     </g>
    </g>
   </g>
  </g>
 </g>
 <defs>
  <clipPath id="pab8b759ead">
   <rect height="235.008" width="357.12" x="57.6" y="41.472"/>
  </clipPath>
 </defs>
</svg>
