<?xml version="1.0" encoding="utf-8" standalone="no"?>
<!DOCTYPE svg PUBLIC "-//W3C//DTD SVG 1.1//EN"
  "http://www.w3.org/Graphics/SVG/1.1/DTD/svg11.dtd">
<!-- Created with matplotlib (http://matplotlib.org/) -->
<svg height="345pt" version="1.1" viewBox="0 0 460 345" width="460pt" xmlns="http://www.w3.org/2000/svg" xmlns:xlink="http://www.w3.org/1999/xlink">
 <defs>
  <style type="text/css">
*{stroke-linecap:butt;stroke-linejoin:round;}
  </style>
 </defs>
 <g id="figure_1">
  <g id="patch_1">
   <path d="M 0 345.6 
L 460.8 345.6 
L 460.8 0 
L 0 0 
z
" style="fill:#ffffff;"/>
  </g>
  <g id="axes_1">
   <g id="patch_2">
    <path d="M 57.6 276.48 
L 414.72 276.48 
L 414.72 41.472 
L 57.6 41.472 
z
" style="fill:#ffffff;"/>
   </g>
   <g id="matplotlib.axis_1">
    <g id="xtick_1">
     <g id="line2d_1">
      <defs>
       <path d="M 0 0 
L 0 3.5 
" id="m9d131b8947" style="stroke:#000000;stroke-width:0.8;"/>
      </defs>
      <g>
       <use style="stroke:#000000;stroke-width:0.8;" x="90.692201" xlink:href="#m9d131b8947" y="276.48"/>
      </g>
     </g>
     <g id="text_1">
      <!-- 2013-12 -->
      <defs>
       <path d="M 41.703125 15.453125 
L 39.90625 15.453125 
C 38.90625 8.375 38.09375 7.171875 37.703125 6.5625 
C 37.203125 5.765625 30 5.765625 28.59375 5.765625 
L 9.40625 5.765625 
C 13 9.671875 20 16.75 28.5 24.953125 
C 34.59375 30.734375 41.703125 37.53125 41.703125 47.421875 
C 41.703125 59.21875 32.296875 66 21.796875 66 
C 10.796875 66 4.09375 56.3125 4.09375 47.34375 
C 4.09375 43.4375 7 42.9375 8.203125 42.9375 
C 9.203125 42.9375 12.203125 43.546875 12.203125 47.03125 
C 12.203125 50.109375 9.59375 51 8.203125 51 
C 7.59375 51 7 50.90625 6.59375 50.703125 
C 8.5 59.21875 14.296875 63.40625 20.40625 63.40625 
C 29.09375 63.40625 34.796875 56.515625 34.796875 47.421875 
C 34.796875 38.734375 29.703125 31.25 24 24.75 
L 4.09375 2.28125 
L 4.09375 0 
L 39.296875 0 
z
" id="CMR17-50"/>
       <path d="M 42 31.640625 
C 42 37.75 41.90625 48.125 37.703125 56.109375 
C 34 63.109375 28.09375 65.59375 22.90625 65.59375 
C 18.09375 65.59375 12 63.40625 8.203125 56.203125 
C 4.203125 48.71875 3.796875 39.4375 3.796875 31.640625 
C 3.796875 25.953125 3.90625 17.28125 7 9.671875 
C 11.296875 -0.609375 19 -2 22.90625 -2 
C 27.5 -2 34.5 -0.109375 38.59375 9.375 
C 41.59375 16.28125 42 24.359375 42 31.640625 
z
M 22.90625 -0.40625 
C 16.5 -0.40625 12.703125 5.078125 11.296875 12.6875 
C 10.203125 18.5625 10.203125 27.15625 10.203125 32.75 
C 10.203125 40.4375 10.203125 46.828125 11.5 52.921875 
C 13.40625 61.390625 19 64 22.90625 64 
C 27 64 32.296875 61.296875 34.203125 53.125 
C 35.5 47.4375 35.59375 40.734375 35.59375 32.75 
C 35.59375 26.25 35.59375 18.265625 34.40625 12.375 
C 32.296875 1.484375 26.40625 -0.40625 22.90625 -0.40625 
z
" id="CMR17-48"/>
       <path d="M 26.59375 63.40625 
C 26.59375 65.5 26.5 65.5 25.09375 65.5 
C 21.203125 61.1875 15.296875 59.796875 9.703125 59.796875 
C 9.40625 59.796875 8.90625 59.796875 8.796875 59.5 
C 8.703125 59.296875 8.703125 59.09375 8.703125 57 
C 11.796875 57 17 57.59375 21 59.984375 
L 21 7.203125 
C 21 3.6875 20.796875 2.5 12.203125 2.5 
L 9.203125 2.5 
L 9.203125 0 
C 14 0 19 0 23.796875 0 
C 28.59375 0 33.59375 0 38.40625 0 
L 38.40625 2.5 
L 35.40625 2.5 
C 26.796875 2.5 26.59375 3.59375 26.59375 7.15625 
z
" id="CMR17-49"/>
       <path d="M 22.09375 33.703125 
C 31 33.703125 34.90625 25.96875 34.90625 17.03125 
C 34.90625 5 28.5 0.390625 22.703125 0.390625 
C 17.40625 0.390625 8.796875 3.03125 6.09375 10.828125 
C 6.59375 10.625 7.09375 10.625 7.59375 10.625 
C 10 10.625 11.796875 12.21875 11.796875 14.8125 
C 11.796875 17.703125 9.59375 19 7.59375 19 
C 5.90625 19 3.296875 18.203125 3.296875 14.46875 
C 3.296875 5.234375 12.296875 -2 22.90625 -2 
C 34 -2 42.5 6.71875 42.5 16.953125 
C 42.5 26.671875 34.5 33.703125 25 34.796875 
C 32.59375 36.375 39.90625 43.0625 39.90625 52.015625 
C 39.90625 59.6875 32 65.296875 23 65.296875 
C 13.90625 65.296875 5.90625 59.828125 5.90625 52.015625 
C 5.90625 48.59375 8.5 48 9.796875 48 
C 11.90625 48 13.703125 49.296875 13.703125 51.890625 
C 13.703125 54.46875 11.90625 55.765625 9.796875 55.765625 
C 9.40625 55.765625 8.90625 55.765625 8.5 55.578125 
C 11.40625 61.859375 19.296875 63 22.796875 63 
C 26.296875 63 32.90625 61.328125 32.90625 51.875 
C 32.90625 49.109375 32.5 44.1875 29.09375 39.84375 
C 26.09375 36 22.703125 36 19.40625 35.6875 
C 18.90625 35.6875 16.59375 35.453125 16.203125 35.453125 
C 15.5 35.359375 15.09375 35.265625 15.09375 34.5 
C 15.09375 33.796875 15.203125 33.703125 17.203125 33.703125 
z
" id="CMR17-51"/>
       <path d="M 25.5 19 
L 25.5 23.375 
L 0.40625 23.375 
L 0.40625 19 
z
" id="CMR17-45"/>
      </defs>
      <g transform="translate(55.737648 310.179866)rotate(-30)scale(0.12 -0.12)">
       <use transform="scale(0.996264)" xlink:href="#CMR17-50"/>
       <use transform="translate(45.690477 0)scale(0.996264)" xlink:href="#CMR17-48"/>
       <use transform="translate(91.380954 0)scale(0.996264)" xlink:href="#CMR17-49"/>
       <use transform="translate(137.071431 0)scale(0.996264)" xlink:href="#CMR17-51"/>
       <use transform="translate(182.761908 0)scale(0.996264)" xlink:href="#CMR17-45"/>
       <use transform="translate(212.837875 0)scale(0.996264)" xlink:href="#CMR17-49"/>
       <use transform="translate(258.528352 0)scale(0.996264)" xlink:href="#CMR17-50"/>
      </g>
     </g>
    </g>
    <g id="xtick_2">
     <g id="line2d_2">
      <g>
       <use style="stroke:#000000;stroke-width:0.8;" x="126.542085" xlink:href="#m9d131b8947" y="276.48"/>
      </g>
     </g>
     <g id="text_2">
      <!-- 2014-06 -->
      <defs>
       <path d="M 33.59375 64.40625 
C 33.59375 66.5 33.5 66.5 31.703125 66.5 
L 2 19.59375 
L 2 17 
L 27.796875 17 
L 27.796875 7.140625 
C 27.796875 3.5 27.59375 2.5 20.59375 2.5 
L 18.703125 2.5 
L 18.703125 0 
C 21.90625 0 27.296875 0 30.703125 0 
C 34.09375 0 39.5 0 42.703125 0 
L 42.703125 2.5 
L 40.796875 2.5 
C 33.796875 2.5 33.59375 3.5 33.59375 7.140625 
L 33.59375 17 
L 43.796875 17 
L 43.796875 19.59375 
L 33.59375 19.59375 
z
M 28.09375 57.859375 
L 28.09375 19.59375 
L 4 19.59375 
z
" id="CMR17-52"/>
       <path d="M 10.59375 34 
C 10.59375 57.65625 21.796875 63 28.296875 63 
C 30.40625 63 35.5 62.640625 37.5 59 
C 35.90625 59 32.90625 59 32.90625 55.515625 
C 32.90625 52.828125 35.09375 51.921875 36.5 51.921875 
C 37.40625 51.921875 40.09375 52.3125 40.09375 55.625 
C 40.09375 61.78125 35.09375 65.296875 28.203125 65.296875 
C 16.296875 65.296875 3.796875 52.96875 3.796875 31 
C 3.796875 3.953125 15.09375 -2 23.09375 -2 
C 32.796875 -2 42 6.671875 42 20.046875 
C 42 32.515625 33.90625 41.59375 23.703125 41.59375 
C 17.59375 41.59375 13.09375 37.609375 10.59375 30.625 
z
M 23.09375 0.390625 
C 10.796875 0.390625 10.796875 18.75 10.796875 22.4375 
C 10.796875 29.625 14.203125 40 23.5 40 
C 25.203125 40 30.09375 40 33.40625 33.125 
C 35.203125 29.21875 35.203125 25.140625 35.203125 20.140625 
C 35.203125 14.75 35.203125 10.78125 33.09375 6.78125 
C 30.90625 2.671875 27.703125 0.390625 23.09375 0.390625 
z
" id="CMR17-54"/>
      </defs>
      <g transform="translate(91.587532 310.179866)rotate(-30)scale(0.12 -0.12)">
       <use transform="scale(0.996264)" xlink:href="#CMR17-50"/>
       <use transform="translate(45.690477 0)scale(0.996264)" xlink:href="#CMR17-48"/>
       <use transform="translate(91.380954 0)scale(0.996264)" xlink:href="#CMR17-49"/>
       <use transform="translate(137.071431 0)scale(0.996264)" xlink:href="#CMR17-52"/>
       <use transform="translate(182.761908 0)scale(0.996264)" xlink:href="#CMR17-45"/>
       <use transform="translate(212.837875 0)scale(0.996264)" xlink:href="#CMR17-48"/>
       <use transform="translate(258.528352 0)scale(0.996264)" xlink:href="#CMR17-54"/>
      </g>
     </g>
    </g>
    <g id="xtick_3">
     <g id="line2d_3">
      <g>
       <use style="stroke:#000000;stroke-width:0.8;" x="162.588946" xlink:href="#m9d131b8947" y="276.48"/>
      </g>
     </g>
     <g id="text_3">
      <!-- 2014-12 -->
      <g transform="translate(127.634394 310.179866)rotate(-30)scale(0.12 -0.12)">
       <use transform="scale(0.996264)" xlink:href="#CMR17-50"/>
       <use transform="translate(45.690477 0)scale(0.996264)" xlink:href="#CMR17-48"/>
       <use transform="translate(91.380954 0)scale(0.996264)" xlink:href="#CMR17-49"/>
       <use transform="translate(137.071431 0)scale(0.996264)" xlink:href="#CMR17-52"/>
       <use transform="translate(182.761908 0)scale(0.996264)" xlink:href="#CMR17-45"/>
       <use transform="translate(212.837875 0)scale(0.996264)" xlink:href="#CMR17-49"/>
       <use transform="translate(258.528352 0)scale(0.996264)" xlink:href="#CMR17-50"/>
      </g>
     </g>
    </g>
    <g id="xtick_4">
     <g id="line2d_4">
      <g>
       <use style="stroke:#000000;stroke-width:0.8;" x="198.438831" xlink:href="#m9d131b8947" y="276.48"/>
      </g>
     </g>
     <g id="text_4">
      <!-- 2015-06 -->
      <defs>
       <path d="M 11.40625 57.6875 
C 12.40625 57.28125 16.5 56 20.703125 56 
C 30 56 35.09375 61.109375 38 64.0625 
C 38 64.953125 38 65.5 37.40625 65.5 
C 37.296875 65.5 37.09375 65.5 36.296875 65.046875 
C 32.796875 63.40625 28.703125 62.078125 23.703125 62.078125 
C 20.703125 62.078125 16.203125 62.484375 11.296875 64.671875 
C 10.203125 65.171875 10 65.171875 9.90625 65.171875 
C 9.40625 65.171875 9.296875 65.0625 9.296875 63.078125 
L 9.296875 34.421875 
C 9.296875 32.640625 9.296875 32.140625 10.296875 32.140625 
C 10.796875 32.140625 11 32.34375 11.5 33.03125 
C 14.703125 37.515625 19.09375 39.40625 24.09375 39.40625 
C 27.59375 39.40625 35.09375 37.21875 35.09375 20.140625 
C 35.09375 16.953125 35.09375 11.171875 32.09375 6.578125 
C 29.59375 2.484375 25.703125 0.390625 21.40625 0.390625 
C 14.796875 0.390625 8.09375 5 6.296875 12.71875 
C 6.703125 12.609375 7.5 12.421875 7.90625 12.421875 
C 9.203125 12.421875 11.703125 13.125 11.703125 16.21875 
C 11.703125 18.90625 9.796875 20 7.90625 20 
C 5.59375 20 4.09375 18.59375 4.09375 15.796875 
C 4.09375 7.09375 11 -2 21.59375 -2 
C 31.90625 -2 41.703125 6.875 41.703125 19.75 
C 41.703125 31.71875 33.90625 41 24.203125 41 
C 19.09375 41 14.796875 39.109375 11.40625 35.53125 
z
" id="CMR17-53"/>
      </defs>
      <g transform="translate(163.484278 310.179866)rotate(-30)scale(0.12 -0.12)">
       <use transform="scale(0.996264)" xlink:href="#CMR17-50"/>
       <use transform="translate(45.690477 0)scale(0.996264)" xlink:href="#CMR17-48"/>
       <use transform="translate(91.380954 0)scale(0.996264)" xlink:href="#CMR17-49"/>
       <use transform="translate(137.071431 0)scale(0.996264)" xlink:href="#CMR17-53"/>
       <use transform="translate(182.761908 0)scale(0.996264)" xlink:href="#CMR17-45"/>
       <use transform="translate(212.837875 0)scale(0.996264)" xlink:href="#CMR17-48"/>
       <use transform="translate(258.528352 0)scale(0.996264)" xlink:href="#CMR17-54"/>
      </g>
     </g>
    </g>
    <g id="xtick_5">
     <g id="line2d_5">
      <g>
       <use style="stroke:#000000;stroke-width:0.8;" x="234.485692" xlink:href="#m9d131b8947" y="276.48"/>
      </g>
     </g>
     <g id="text_5">
      <!-- 2015-12 -->
      <g transform="translate(199.531139 310.179866)rotate(-30)scale(0.12 -0.12)">
       <use transform="scale(0.996264)" xlink:href="#CMR17-50"/>
       <use transform="translate(45.690477 0)scale(0.996264)" xlink:href="#CMR17-48"/>
       <use transform="translate(91.380954 0)scale(0.996264)" xlink:href="#CMR17-49"/>
       <use transform="translate(137.071431 0)scale(0.996264)" xlink:href="#CMR17-53"/>
       <use transform="translate(182.761908 0)scale(0.996264)" xlink:href="#CMR17-45"/>
       <use transform="translate(212.837875 0)scale(0.996264)" xlink:href="#CMR17-49"/>
       <use transform="translate(258.528352 0)scale(0.996264)" xlink:href="#CMR17-50"/>
      </g>
     </g>
    </g>
    <g id="xtick_6">
     <g id="line2d_6">
      <g>
       <use style="stroke:#000000;stroke-width:0.8;" x="270.532554" xlink:href="#m9d131b8947" y="276.48"/>
      </g>
     </g>
     <g id="text_6">
      <!-- 2016-06 -->
      <g transform="translate(235.578001 310.179866)rotate(-30)scale(0.12 -0.12)">
       <use transform="scale(0.996264)" xlink:href="#CMR17-50"/>
       <use transform="translate(45.690477 0)scale(0.996264)" xlink:href="#CMR17-48"/>
       <use transform="translate(91.380954 0)scale(0.996264)" xlink:href="#CMR17-49"/>
       <use transform="translate(137.071431 0)scale(0.996264)" xlink:href="#CMR17-54"/>
       <use transform="translate(182.761908 0)scale(0.996264)" xlink:href="#CMR17-45"/>
       <use transform="translate(212.837875 0)scale(0.996264)" xlink:href="#CMR17-48"/>
       <use transform="translate(258.528352 0)scale(0.996264)" xlink:href="#CMR17-54"/>
      </g>
     </g>
    </g>
    <g id="xtick_7">
     <g id="line2d_7">
      <g>
       <use style="stroke:#000000;stroke-width:0.8;" x="306.579415" xlink:href="#m9d131b8947" y="276.48"/>
      </g>
     </g>
     <g id="text_7">
      <!-- 2016-12 -->
      <g transform="translate(271.624862 310.179866)rotate(-30)scale(0.12 -0.12)">
       <use transform="scale(0.996264)" xlink:href="#CMR17-50"/>
       <use transform="translate(45.690477 0)scale(0.996264)" xlink:href="#CMR17-48"/>
       <use transform="translate(91.380954 0)scale(0.996264)" xlink:href="#CMR17-49"/>
       <use transform="translate(137.071431 0)scale(0.996264)" xlink:href="#CMR17-54"/>
       <use transform="translate(182.761908 0)scale(0.996264)" xlink:href="#CMR17-45"/>
       <use transform="translate(212.837875 0)scale(0.996264)" xlink:href="#CMR17-49"/>
       <use transform="translate(258.528352 0)scale(0.996264)" xlink:href="#CMR17-50"/>
      </g>
     </g>
    </g>
    <g id="xtick_8">
     <g id="line2d_8">
      <g>
       <use style="stroke:#000000;stroke-width:0.8;" x="342.4293" xlink:href="#m9d131b8947" y="276.48"/>
      </g>
     </g>
     <g id="text_8">
      <!-- 2017-06 -->
      <defs>
       <path d="M 45.09375 61.578125 
L 45.09375 63.765625 
L 21.59375 63.765625 
C 9.90625 63.765625 9.703125 65.078125 9.296875 67 
L 7.5 67 
L 4.59375 48.34375 
L 6.40625 48.34375 
C 6.703125 50.234375 7.40625 55.3125 8.59375 57.203125 
C 9.203125 58 16.59375 58 18.296875 58 
L 40.296875 58 
L 29.203125 41.578125 
C 21.796875 30.53125 16.703125 15.609375 16.703125 2.578125 
C 16.703125 1.390625 16.703125 -2 20.296875 -2 
C 23.90625 -2 23.90625 1.390625 23.90625 2.671875 
L 23.90625 7.265625 
C 23.90625 23.5625 26.703125 34.3125 31.296875 41.1875 
z
" id="CMR17-55"/>
      </defs>
      <g transform="translate(307.474747 310.179866)rotate(-30)scale(0.12 -0.12)">
       <use transform="scale(0.996264)" xlink:href="#CMR17-50"/>
       <use transform="translate(45.690477 0)scale(0.996264)" xlink:href="#CMR17-48"/>
       <use transform="translate(91.380954 0)scale(0.996264)" xlink:href="#CMR17-49"/>
       <use transform="translate(137.071431 0)scale(0.996264)" xlink:href="#CMR17-55"/>
       <use transform="translate(182.761908 0)scale(0.996264)" xlink:href="#CMR17-45"/>
       <use transform="translate(212.837875 0)scale(0.996264)" xlink:href="#CMR17-48"/>
       <use transform="translate(258.528352 0)scale(0.996264)" xlink:href="#CMR17-54"/>
      </g>
     </g>
    </g>
    <g id="xtick_9">
     <g id="line2d_9">
      <g>
       <use style="stroke:#000000;stroke-width:0.8;" x="378.476161" xlink:href="#m9d131b8947" y="276.48"/>
      </g>
     </g>
     <g id="text_9">
      <!-- 2017-12 -->
      <g transform="translate(343.521608 310.179866)rotate(-30)scale(0.12 -0.12)">
       <use transform="scale(0.996264)" xlink:href="#CMR17-50"/>
       <use transform="translate(45.690477 0)scale(0.996264)" xlink:href="#CMR17-48"/>
       <use transform="translate(91.380954 0)scale(0.996264)" xlink:href="#CMR17-49"/>
       <use transform="translate(137.071431 0)scale(0.996264)" xlink:href="#CMR17-55"/>
       <use transform="translate(182.761908 0)scale(0.996264)" xlink:href="#CMR17-45"/>
       <use transform="translate(212.837875 0)scale(0.996264)" xlink:href="#CMR17-49"/>
       <use transform="translate(258.528352 0)scale(0.996264)" xlink:href="#CMR17-50"/>
      </g>
     </g>
    </g>
    <g id="xtick_10">
     <g id="line2d_10">
      <g>
       <use style="stroke:#000000;stroke-width:0.8;" x="414.326045" xlink:href="#m9d131b8947" y="276.48"/>
      </g>
     </g>
     <g id="text_10">
      <!-- 2018-06 -->
      <defs>
       <path d="M 27.203125 35.375 
C 33.5 38.546875 39.90625 43.328125 39.90625 50.984375 
C 39.90625 60.015625 31.09375 65.296875 23 65.296875 
C 13.90625 65.296875 5.90625 58.734375 5.90625 49.6875 
C 5.90625 47.203125 6.5 42.921875 10.40625 39.140625 
C 11.40625 38.15625 15.59375 35.171875 18.296875 33.28125 
C 13.796875 30.984375 3.296875 25.53125 3.296875 14.59375 
C 3.296875 4.359375 13.09375 -2 22.796875 -2 
C 33.5 -2 42.5 5.65625 42.5 15.78125 
C 42.5 24.84375 36.40625 29.015625 32.40625 31.703125 
z
M 14.09375 44.09375 
C 13.296875 44.59375 9.296875 47.671875 9.296875 52.359375 
C 9.296875 58.421875 15.59375 63 22.796875 63 
C 30.703125 63 36.5 57.4375 36.5 50.96875 
C 36.5 41.703125 26.09375 36.421875 25.59375 36.421875 
C 25.5 36.421875 25.40625 36.421875 24.59375 37.03125 
z
M 32.5 23.734375 
C 34 22.640625 38.796875 19.375 38.796875 13.296875 
C 38.796875 5.953125 31.40625 0.390625 23 0.390625 
C 13.90625 0.390625 7 6.84375 7 14.6875 
C 7 22.546875 13.09375 29.09375 20 32.1875 
z
" id="CMR17-56"/>
      </defs>
      <g transform="translate(379.371492 310.179866)rotate(-30)scale(0.12 -0.12)">
       <use transform="scale(0.996264)" xlink:href="#CMR17-50"/>
       <use transform="translate(45.690477 0)scale(0.996264)" xlink:href="#CMR17-48"/>
       <use transform="translate(91.380954 0)scale(0.996264)" xlink:href="#CMR17-49"/>
       <use transform="translate(137.071431 0)scale(0.996264)" xlink:href="#CMR17-56"/>
       <use transform="translate(182.761908 0)scale(0.996264)" xlink:href="#CMR17-45"/>
       <use transform="translate(212.837875 0)scale(0.996264)" xlink:href="#CMR17-48"/>
       <use transform="translate(258.528352 0)scale(0.996264)" xlink:href="#CMR17-54"/>
      </g>
     </g>
    </g>
    <g id="text_11">
     <!-- date -->
     <defs>
      <path d="M 29.203125 67.59375 
L 29.203125 65 
C 35.09375 65 36 64.40625 36 59.6875 
L 36 36.640625 
C 35.59375 37.140625 31.5 43.59375 23.40625 43.59375 
C 13.203125 43.59375 3.296875 34.5 3.296875 21.3125 
C 3.296875 8.203125 12.59375 -1 22.40625 -1 
C 30.90625 -1 35.296875 5.265625 35.796875 5.9375 
L 35.796875 -0.984375 
L 47.90625 -0.984375 
L 47.90625 2 
C 42 2 41.09375 2.59375 41.09375 7.390625 
L 41.09375 68.6875 
z
M 35.796875 11.796875 
C 35.796875 8.796875 34 6.09375 31.703125 4.09375 
C 28.296875 1.09375 24.90625 0.59375 23 0.59375 
C 20.09375 0.59375 9.703125 2.09375 9.703125 21.1875 
C 9.703125 40.8125 21.296875 42 23.90625 42 
C 28.5 42 32.203125 39.40625 34.5 35.796875 
C 35.796875 33.703125 35.796875 33.40625 35.796875 31.609375 
z
" id="CMR17-100"/>
      <path d="M 36 25.828125 
C 36 32.375 36 35.84375 31.796875 39.734375 
C 28.09375 43 23.796875 44 20.40625 44 
C 12.5 44 6.796875 37.609375 6.796875 30.796875 
C 6.796875 27 9.796875 27 10.40625 27 
C 11.703125 27 14 27.78125 14 30.53125 
C 14 33 12.09375 34.078125 10.40625 34.078125 
C 10 34.078125 9.5 33.96875 9.203125 33.875 
C 11.296875 40.5 16.703125 42.40625 20.203125 42.40625 
C 25.203125 42.40625 30.703125 37.953125 30.703125 29.453125 
L 30.703125 25 
C 24.796875 25 17.703125 24.203125 12.09375 21.203125 
C 5.796875 17.703125 4 12.703125 4 8.90625 
C 4 1.203125 13 -1 18.296875 -1 
C 23.796875 -1 28.90625 2.171875 31.09375 7.984375 
C 31.296875 3.640625 34.09375 -0.28125 38.5 -0.28125 
C 40.59375 -0.28125 45.90625 1.09375 45.90625 8.859375 
L 45.90625 14.375 
L 44.09375 14.375 
L 44.09375 8.78125 
C 44.09375 2.78125 41.40625 2 40.09375 2 
C 36 2 36 7.15625 36 11.53125 
z
M 30.703125 13.59375 
C 30.703125 4.953125 24.5 0.59375 19 0.59375 
C 14 0.59375 10.09375 4.296875 10.09375 8.90625 
C 10.09375 11.890625 11.40625 17.1875 17.203125 20.390625 
C 22 23.09375 27.5 23.5 30.703125 23.5 
z
" id="CMR17-97"/>
      <path d="M 15.09375 40 
L 29.09375 40 
L 29.09375 42.578125 
L 15.09375 42.578125 
L 15.09375 61 
L 13.296875 61 
C 13.09375 50.703125 9.59375 41.6875 1.09375 41.6875 
L 1.09375 40 
L 9.796875 40 
L 9.796875 12.046875 
C 9.796875 10.15625 9.796875 -1 21.40625 -1 
C 27.296875 -1 30.703125 4.78125 30.703125 12.140625 
L 30.703125 17.8125 
L 28.90625 17.8125 
L 28.90625 12.234375 
C 28.90625 5.375 26.203125 0.796875 22 0.796875 
C 19.09375 0.796875 15.09375 2.78125 15.09375 11.84375 
z
" id="CMR17-116"/>
      <path d="M 38.09375 23 
C 38.5 23.40625 38.5 23.609375 38.5 24.625 
C 38.5 34.96875 33.09375 44 21.703125 44 
C 11.09375 44 2.703125 33.890625 2.703125 21.609375 
C 2.703125 8.609375 12.203125 -1 22.796875 -1 
C 34 -1 38.40625 9.484375 38.40625 11.5625 
C 38.40625 12.25 37.796875 12.25 37.59375 12.25 
C 36.90625 12.25 36.796875 12.046875 36.40625 10.875 
C 34.203125 4.140625 28.703125 0.796875 23.5 0.796875 
C 19.203125 0.796875 14.90625 3.171875 12.203125 7.5 
C 9.09375 12.546875 9.09375 18.375 9.09375 23 
z
M 9.203125 24.5 
C 9.90625 39.140625 17.59375 42.40625 21.59375 42.40625 
C 28.40625 42.40625 33 35.890625 33.09375 24.5 
z
" id="CMR17-101"/>
     </defs>
     <g transform="translate(225.104352 324.495205)scale(0.12 -0.12)">
      <use transform="scale(0.996264)" xlink:href="#CMR17-100"/>
      <use transform="translate(50.89537 0)scale(0.996264)" xlink:href="#CMR17-97"/>
      <use transform="translate(96.585847 0)scale(0.996264)" xlink:href="#CMR17-116"/>
      <use transform="translate(131.866615 0)scale(0.996264)" xlink:href="#CMR17-101"/>
     </g>
    </g>
   </g>
   <g id="matplotlib.axis_2">
    <g id="ytick_1">
     <g id="line2d_11">
      <defs>
       <path d="M 0 0 
L -3.5 0 
" id="mdea665eb5d" style="stroke:#000000;stroke-width:0.8;"/>
      </defs>
      <g>
       <use style="stroke:#000000;stroke-width:0.8;" x="57.6" xlink:href="#mdea665eb5d" y="258.906088"/>
      </g>
     </g>
     <g id="text_12">
      <!-- $40$ -->
      <g transform="translate(38.894019 263.057178)scale(0.12 -0.12)">
       <use transform="scale(0.996264)" xlink:href="#CMR17-52"/>
       <use transform="translate(45.690477 0)scale(0.996264)" xlink:href="#CMR17-48"/>
      </g>
     </g>
    </g>
    <g id="ytick_2">
     <g id="line2d_12">
      <g>
       <use style="stroke:#000000;stroke-width:0.8;" x="57.6" xlink:href="#mdea665eb5d" y="224.447437"/>
      </g>
     </g>
     <g id="text_13">
      <!-- $50$ -->
      <g transform="translate(38.894019 228.598527)scale(0.12 -0.12)">
       <use transform="scale(0.996264)" xlink:href="#CMR17-53"/>
       <use transform="translate(45.690477 0)scale(0.996264)" xlink:href="#CMR17-48"/>
      </g>
     </g>
    </g>
    <g id="ytick_3">
     <g id="line2d_13">
      <g>
       <use style="stroke:#000000;stroke-width:0.8;" x="57.6" xlink:href="#mdea665eb5d" y="189.988786"/>
      </g>
     </g>
     <g id="text_14">
      <!-- $60$ -->
      <g transform="translate(38.894019 194.139876)scale(0.12 -0.12)">
       <use transform="scale(0.996264)" xlink:href="#CMR17-54"/>
       <use transform="translate(45.690477 0)scale(0.996264)" xlink:href="#CMR17-48"/>
      </g>
     </g>
    </g>
    <g id="ytick_4">
     <g id="line2d_14">
      <g>
       <use style="stroke:#000000;stroke-width:0.8;" x="57.6" xlink:href="#mdea665eb5d" y="155.530135"/>
      </g>
     </g>
     <g id="text_15">
      <!-- $70$ -->
      <g transform="translate(38.894019 159.681225)scale(0.12 -0.12)">
       <use transform="scale(0.996264)" xlink:href="#CMR17-55"/>
       <use transform="translate(45.690477 0)scale(0.996264)" xlink:href="#CMR17-48"/>
      </g>
     </g>
    </g>
    <g id="ytick_5">
     <g id="line2d_15">
      <g>
       <use style="stroke:#000000;stroke-width:0.8;" x="57.6" xlink:href="#mdea665eb5d" y="121.071484"/>
      </g>
     </g>
     <g id="text_16">
      <!-- $80$ -->
      <g transform="translate(38.894019 125.222574)scale(0.12 -0.12)">
       <use transform="scale(0.996264)" xlink:href="#CMR17-56"/>
       <use transform="translate(45.690477 0)scale(0.996264)" xlink:href="#CMR17-48"/>
      </g>
     </g>
    </g>
    <g id="ytick_6">
     <g id="line2d_16">
      <g>
       <use style="stroke:#000000;stroke-width:0.8;" x="57.6" xlink:href="#mdea665eb5d" y="86.612833"/>
      </g>
     </g>
     <g id="text_17">
      <!-- $90$ -->
      <defs>
       <path d="M 35.203125 29.125 
C 35.203125 7.25 26.09375 0.484375 18.59375 0.484375 
C 16.296875 0.484375 10.703125 0.484375 8.40625 4.59375 
C 11 4.1875 12.90625 5.578125 12.90625 8.09375 
C 12.90625 10.8125 10.703125 11.703125 9.296875 11.703125 
C 8.40625 11.703125 5.703125 11.296875 5.703125 7.90625 
C 5.703125 1.109375 11.59375 -2 18.796875 -2 
C 30.296875 -2 42 10.53125 42 32.390625 
C 42 59.640625 30.796875 65.296875 23.203125 65.296875 
C 13.296875 65.296875 3.796875 56.6875 3.796875 43.40625 
C 3.796875 31.109375 11.90625 22 22.09375 22 
C 30.5 22 34.203125 29.734375 35.203125 33 
z
M 22.296875 23.59375 
C 19.59375 23.59375 15.796875 24.09375 12.703125 30.03125 
C 10.59375 33.890625 10.59375 38.453125 10.59375 43.296875 
C 10.59375 49.15625 10.59375 53.203125 13.40625 57.5625 
C 14.796875 59.640625 17.40625 63 23.203125 63 
C 35 63 35 45.078125 35 41.125 
C 35 34.09375 31.796875 23.59375 22.296875 23.59375 
z
" id="CMR17-57"/>
      </defs>
      <g transform="translate(38.894019 90.763923)scale(0.12 -0.12)">
       <use transform="scale(0.996264)" xlink:href="#CMR17-57"/>
       <use transform="translate(45.690477 0)scale(0.996264)" xlink:href="#CMR17-48"/>
      </g>
     </g>
    </g>
    <g id="ytick_7">
     <g id="line2d_17">
      <g>
       <use style="stroke:#000000;stroke-width:0.8;" x="57.6" xlink:href="#mdea665eb5d" y="52.154182"/>
      </g>
     </g>
     <g id="text_18">
      <!-- $100$ -->
      <g transform="translate(33.041029 56.305272)scale(0.12 -0.12)">
       <use transform="scale(0.996264)" xlink:href="#CMR17-49"/>
       <use transform="translate(45.690477 0)scale(0.996264)" xlink:href="#CMR17-48"/>
       <use transform="translate(91.380954 0)scale(0.996264)" xlink:href="#CMR17-48"/>
      </g>
     </g>
    </g>
    <g id="text_19">
     <!-- depression [search volume] -->
     <defs>
      <path d="M 22 -16.609375 
C 15.59375 -16.609375 15.203125 -16.203125 15.203125 -12.328125 
L 15.203125 6.28125 
C 18.09375 2.09375 22.296875 -0.59375 27.59375 -0.59375 
C 37.59375 -0.59375 47.703125 8.171875 47.703125 21.6875 
C 47.703125 34.234375 39 43.78125 28.703125 43.78125 
C 22.703125 43.78125 17.796875 40.5 15 36.53125 
L 15 43.78125 
L 3.09375 42.6875 
L 3.09375 40.109375 
C 9 40.109375 9.90625 39.5 9.90625 34.734375 
L 9.90625 -12.328125 
C 9.90625 -16.109375 9.5 -16.609375 3.09375 -16.609375 
L 3.09375 -19.1875 
C 5.5 -19 9.90625 -19 12.5 -19 
C 15.09375 -19 19.59375 -19 22 -19.1875 
z
M 15.203125 31.4375 
C 15.203125 32.84375 15.203125 34.921875 19.09375 38.609375 
C 19.59375 39.015625 23 42 28 42 
C 35.296875 42 41.296875 32.9375 41.296875 21.59375 
C 41.296875 10.25 34.90625 1 27 1 
C 23.40625 1 19.5 2.6875 16.5 7.375 
C 15.203125 9.5625 15.203125 10.15625 15.203125 11.75 
z
" id="CMR17-112"/>
      <path d="M 15 23.390625 
C 15 33 19.09375 42 26.59375 42 
C 27.296875 42 28 41.90625 28.703125 41.59375 
C 28.703125 41.59375 26.5 40.890625 26.5 38.3125 
C 26.5 35.90625 28.40625 34.90625 29.90625 34.90625 
C 31.09375 34.90625 33.296875 35.609375 33.296875 38.40625 
C 33.296875 41.609375 30.09375 43.59375 26.703125 43.59375 
C 19.09375 43.59375 15.796875 36.203125 14.796875 32.703125 
L 14.703125 32.703125 
L 14.703125 43.59375 
L 3.09375 42.5 
L 3.09375 39.90625 
C 9 39.90625 9.90625 39.296875 9.90625 34.5 
L 9.90625 6.6875 
C 9.90625 2.875 9.5 2.390625 3.09375 2.390625 
L 3.09375 -0.203125 
C 5.5 0 10.09375 0 12.703125 0 
C 15.59375 0 20.703125 0 23.40625 -0.203125 
L 23.40625 2.390625 
C 16.203125 2.390625 15 2.390625 15 6.875 
z
" id="CMR17-114"/>
      <path d="M 30.90625 42.140625 
C 30.90625 43.953125 30.796875 44.046875 30.203125 44.046875 
C 29.796875 44.046875 29.703125 43.953125 28.5 42.453125 
C 28.203125 42.046875 27.296875 41.03125 27 40.640625 
C 23.796875 44.046875 19.296875 44.046875 17.59375 44.046875 
C 6.5 44.046875 2.5 38.234375 2.5 32.4375 
C 2.5 23.40625 12.703125 21.328125 15.59375 20.703125 
C 21.90625 19.421875 24.09375 19.015625 26.203125 17.203125 
C 27.5 16.015625 29.703125 13.8125 29.703125 10.21875 
C 29.703125 6 27.296875 0.59375 18.09375 0.59375 
C 9.40625 0.59375 6.296875 7.1875 4.5 15.953125 
C 4.203125 17.34375 4.203125 17.453125 3.40625 17.453125 
C 2.59375 17.453125 2.5 17.34375 2.5 15.359375 
L 2.5 0.984375 
C 2.5 -0.796875 2.59375 -0.90625 3.203125 -0.90625 
C 3.703125 -0.90625 3.796875 -0.796875 4.296875 0 
C 4.90625 0.890625 6.40625 3.296875 7 4.3125 
C 9 1.609375 12.5 -1 18.09375 -1 
C 28 -1 33.296875 4.421875 33.296875 12.25 
C 33.296875 17.375 30.59375 20.078125 29.296875 21.28125 
C 26.296875 24.390625 22.796875 25.09375 18.59375 25.890625 
C 13.09375 27.109375 6.09375 28.515625 6.09375 34.640625 
C 6.09375 37.234375 7.5 42.765625 17.59375 42.765625 
C 28.296875 42.765625 28.90625 32.71875 29.09375 29.5 
C 29.203125 29 29.703125 28.890625 30 28.890625 
C 30.90625 28.890625 30.90625 29.203125 30.90625 30.90625 
z
" id="CMR17-115"/>
      <path d="M 15.5 61.078125 
C 15.5 63.265625 13.703125 65.15625 11.40625 65.15625 
C 9.203125 65.15625 7.296875 63.375 7.296875 61.078125 
C 7.296875 58.890625 9.09375 57 11.40625 57 
C 13.59375 57 15.5 58.796875 15.5 61.078125 
z
M 3.796875 42.28125 
L 3.796875 39.703125 
C 9.40625 39.703125 10.203125 39.09375 10.203125 34.328125 
L 10.203125 6.671875 
C 10.203125 2.875 9.796875 2.390625 3.40625 2.390625 
L 3.40625 -0.203125 
C 5.796875 0 10.09375 0 12.59375 0 
C 15 0 19.09375 0 21.40625 -0.203125 
L 21.40625 2.390625 
C 15.5 2.390625 15.296875 2.984375 15.296875 6.5625 
L 15.296875 43.375 
z
" id="CMR17-105"/>
      <path d="M 43.09375 21.1875 
C 43.09375 34 33.796875 44 22.90625 44 
C 12 44 2.703125 34 2.703125 21.1875 
C 2.703125 8.609375 12 -1 22.90625 -1 
C 33.796875 -1 43.09375 8.609375 43.09375 21.1875 
z
M 22.90625 0.796875 
C 18.203125 0.796875 14.203125 3.59375 11.90625 7.5 
C 9.40625 11.984375 9.09375 17.59375 9.09375 22 
C 9.09375 26.203125 9.296875 31.40625 11.90625 35.90625 
C 13.90625 39.203125 17.796875 42.40625 22.90625 42.40625 
C 27.40625 42.40625 31.203125 39.90625 33.59375 36.40625 
C 36.703125 31.703125 36.703125 25.109375 36.703125 22 
C 36.703125 18.09375 36.5 12.109375 33.796875 7.296875 
C 31 2.703125 26.703125 0.796875 22.90625 0.796875 
z
" id="CMR17-111"/>
      <path d="M 41.5 30.203125 
C 41.5 35.296875 40.5 43.59375 28.703125 43.59375 
C 20.796875 43.59375 16.703125 37.5 15.203125 33.5 
L 15.09375 33.5 
L 15.09375 43.59375 
L 3.296875 42.5 
L 3.296875 39.90625 
C 9.203125 39.90625 10.09375 39.296875 10.09375 34.5 
L 10.09375 6.6875 
C 10.09375 2.875 9.703125 2.390625 3.296875 2.390625 
L 3.296875 -0.203125 
C 5.703125 0 10.09375 0 12.703125 0 
C 15.296875 0 19.796875 0 22.203125 -0.203125 
L 22.203125 2.390625 
C 15.796875 2.390625 15.40625 2.78125 15.40625 6.6875 
L 15.40625 25.90625 
C 15.40625 35.109375 21 42 28 42 
C 35.40625 42 36.203125 35.40625 36.203125 30.59375 
L 36.203125 6.6875 
C 36.203125 2.875 35.796875 2.390625 29.40625 2.390625 
L 29.40625 -0.203125 
C 31.796875 0 36.203125 0 38.796875 0 
C 41.40625 0 45.90625 0 48.296875 -0.203125 
L 48.296875 2.390625 
C 41.90625 2.390625 41.5 2.78125 41.5 6.6875 
z
" id="CMR17-110"/>
      <path d="M 23.5 -25 
L 23.5 -21.515625 
L 14.09375 -21.515625 
L 14.09375 71 
L 23.5 71 
L 23.5 74.484375 
L 10.59375 74.484375 
L 10.59375 -25 
z
" id="CMR17-91"/>
      <path d="M 34.90625 35 
C 33 35 30.203125 35 30.203125 31.515625 
C 30.203125 28.71875 32.5 27.921875 33.796875 27.921875 
C 34.5 27.921875 37.40625 28.234375 37.40625 31.625 
C 37.40625 38.546875 30.59375 43.796875 22.90625 43.796875 
C 12.296875 43.796875 3.296875 34.03125 3.296875 21.296875 
C 3.296875 8.0625 12.703125 -1 22.90625 -1 
C 35.296875 -1 38.40625 10.578125 38.40625 11.6875 
C 38.40625 12.09375 38.296875 12.390625 37.59375 12.390625 
C 36.90625 12.390625 36.796875 12.296875 36.40625 10.984375 
C 33.796875 2.8125 28.09375 0.796875 23.796875 0.796875 
C 17.40625 0.796875 9.703125 6.671875 9.703125 21.390625 
C 9.703125 36.53125 17.09375 42 23 42 
C 26.90625 42 32.703125 40.203125 34.90625 35 
z
" id="CMR17-99"/>
      <path d="M 41.5 30.203125 
C 41.5 35.296875 40.5 43.59375 28.703125 43.59375 
C 20.5 43.59375 16.5 37 15.296875 33.703125 
L 15.203125 33.703125 
L 15.203125 68.6875 
L 3.296875 67.59375 
L 3.296875 65 
C 9.203125 65 10.09375 64.40625 10.09375 59.640625 
L 10.09375 6.65625 
C 10.09375 2.875 9.703125 2.390625 3.296875 2.390625 
L 3.296875 -0.203125 
C 5.703125 0 10.09375 0 12.703125 0 
C 15.296875 0 19.796875 0 22.203125 -0.203125 
L 22.203125 2.390625 
C 15.796875 2.390625 15.40625 2.78125 15.40625 6.6875 
L 15.40625 25.90625 
C 15.40625 35.109375 21 42 28 42 
C 35.40625 42 36.203125 35.40625 36.203125 30.59375 
L 36.203125 6.6875 
C 36.203125 2.875 35.796875 2.390625 29.40625 2.390625 
L 29.40625 -0.203125 
C 31.796875 0 36.203125 0 38.796875 0 
C 41.40625 0 45.90625 0 48.296875 -0.203125 
L 48.296875 2.390625 
C 41.90625 2.390625 41.5 2.78125 41.5 6.6875 
z
" id="CMR17-104"/>
      <path d="M 39.09375 33.796875 
C 40 36 41.59375 40 47.40625 40 
L 47.40625 42.59375 
C 45.5 42.59375 43 42.59375 41.09375 42.59375 
C 39 42.59375 35.703125 42.59375 33.703125 42.6875 
L 33.703125 40.09375 
C 36.203125 39.890625 37.59375 38.703125 37.59375 36.109375 
C 37.59375 35.203125 37.59375 35 37 33.609375 
L 26 5.890625 
L 14.09375 35.71875 
C 13.5 37.015625 13.5 37.203125 13.5 37.609375 
C 13.5 40 16.796875 40 18.296875 40 
L 18.296875 42.6875 
C 15.90625 42.59375 11.5 42.59375 9 42.59375 
C 6.296875 42.59375 3.203125 42.59375 1 42.6875 
L 1 40 
C 4.796875 40 6.90625 40 8.09375 36.90625 
L 22.59375 0.6875 
C 23.203125 -0.796875 23.296875 -1 24.203125 -1 
C 25.09375 -1 25.203125 -0.796875 25.796875 0.6875 
z
" id="CMR17-118"/>
      <path d="M 15.296875 68.6875 
L 3.40625 67.59375 
L 3.40625 65 
C 9.296875 65 10.203125 64.40625 10.203125 59.640625 
L 10.203125 6.65625 
C 10.203125 2.875 9.796875 2.390625 3.40625 2.390625 
L 3.40625 -0.203125 
C 5.796875 0 10.203125 0 12.703125 0 
C 15.296875 0 19.703125 0 22.09375 -0.203125 
L 22.09375 2.390625 
C 15.703125 2.390625 15.296875 2.78125 15.296875 6.65625 
z
" id="CMR17-108"/>
      <path d="M 29.40625 42.078125 
L 29.40625 39.5 
C 35.296875 39.5 36.203125 38.890625 36.203125 34.15625 
L 36.203125 16.125 
C 36.203125 7.8125 31.703125 0.59375 24.296875 0.59375 
C 16.09375 0.59375 15.40625 5.4375 15.40625 10.59375 
L 15.40625 43.171875 
L 3.296875 42.078125 
L 3.296875 39.5 
C 7.296875 39.5 10 39.5 10.09375 35.53125 
L 10.09375 16.53125 
C 10.09375 9.890625 10.09375 5.640625 12.703125 2.859375 
C 14 1.578125 16.5 -1 23.703125 -1 
C 32.203125 -1 35.5 5.890625 36.296875 7.90625 
L 36.40625 7.90625 
L 36.40625 -0.984375 
L 48.296875 -0.984375 
L 48.296875 2 
C 42.40625 2 41.5 2.59375 41.5 7.390625 
L 41.5 43.171875 
z
" id="CMR17-117"/>
      <path d="M 67.59375 30.203125 
C 67.59375 35.1875 66.703125 43.59375 54.796875 43.59375 
C 48 43.59375 43.296875 39 41.5 33.609375 
L 41.40625 33.609375 
C 40.203125 41.8125 34.296875 43.59375 28.703125 43.59375 
C 20.796875 43.59375 16.703125 37.5 15.203125 33.5 
L 15.09375 33.5 
L 15.09375 43.59375 
L 3.296875 42.5 
L 3.296875 39.90625 
C 9.203125 39.90625 10.09375 39.296875 10.09375 34.5 
L 10.09375 6.6875 
C 10.09375 2.875 9.703125 2.390625 3.296875 2.390625 
L 3.296875 -0.203125 
C 5.703125 0 10.09375 0 12.703125 0 
C 15.296875 0 19.796875 0 22.203125 -0.203125 
L 22.203125 2.390625 
C 15.796875 2.390625 15.40625 2.78125 15.40625 6.6875 
L 15.40625 25.90625 
C 15.40625 35.109375 21 42 28 42 
C 35.40625 42 36.203125 35.40625 36.203125 30.59375 
L 36.203125 6.6875 
C 36.203125 2.875 35.796875 2.390625 29.40625 2.390625 
L 29.40625 -0.203125 
C 31.796875 0 36.203125 0 38.796875 0 
C 41.40625 0 45.90625 0 48.296875 -0.203125 
L 48.296875 2.390625 
C 41.90625 2.390625 41.5 2.78125 41.5 6.6875 
L 41.5 25.90625 
C 41.5 35.109375 47.09375 42 54.09375 42 
C 61.5 42 62.296875 35.40625 62.296875 30.59375 
L 62.296875 6.6875 
C 62.296875 2.875 61.90625 2.390625 55.5 2.390625 
L 55.5 -0.203125 
C 57.90625 0 62.296875 0 64.90625 0 
C 67.5 0 72 0 74.40625 -0.203125 
L 74.40625 2.390625 
C 68 2.390625 67.59375 2.78125 67.59375 6.6875 
z
" id="CMR17-109"/>
      <path d="M 14.296875 74.484375 
L 1.40625 74.484375 
L 1.40625 71 
L 10.796875 71 
L 10.796875 -21.515625 
L 1.40625 -21.515625 
L 1.40625 -25 
L 14.296875 -25 
z
" id="CMR17-93"/>
     </defs>
     <g transform="translate(26.052237 226.545521)rotate(-90)scale(0.12 -0.12)">
      <use transform="scale(0.996264)" xlink:href="#CMR17-100"/>
      <use transform="translate(50.89537 0)scale(0.996264)" xlink:href="#CMR17-101"/>
      <use transform="translate(91.38103 0)scale(0.996264)" xlink:href="#CMR17-112"/>
      <use transform="translate(142.2764 0)scale(0.996264)" xlink:href="#CMR17-114"/>
      <use transform="translate(177.557168 0)scale(0.996264)" xlink:href="#CMR17-101"/>
      <use transform="translate(218.042828 0)scale(0.996264)" xlink:href="#CMR17-115"/>
      <use transform="translate(253.844166 0)scale(0.996264)" xlink:href="#CMR17-115"/>
      <use transform="translate(289.645504 0)scale(0.996264)" xlink:href="#CMR17-105"/>
      <use transform="translate(314.516562 0)scale(0.996264)" xlink:href="#CMR17-111"/>
      <use transform="translate(360.207039 0)scale(0.996264)" xlink:href="#CMR17-110"/>
      <use transform="translate(441.178375 0)scale(0.996264)" xlink:href="#CMR17-91"/>
      <use transform="translate(466.049434 0)scale(0.996264)" xlink:href="#CMR17-115"/>
      <use transform="translate(501.850771 0)scale(0.996264)" xlink:href="#CMR17-101"/>
      <use transform="translate(542.336432 0)scale(0.996264)" xlink:href="#CMR17-97"/>
      <use transform="translate(588.026909 0)scale(0.996264)" xlink:href="#CMR17-114"/>
      <use transform="translate(623.307677 0)scale(0.996264)" xlink:href="#CMR17-99"/>
      <use transform="translate(661.190883 0)scale(0.996264)" xlink:href="#CMR17-104"/>
      <use transform="translate(742.162219 0)scale(0.996264)" xlink:href="#CMR17-118"/>
      <use transform="translate(787.852681 0)scale(0.996264)" xlink:href="#CMR17-111"/>
      <use transform="translate(833.543158 0)scale(0.996264)" xlink:href="#CMR17-108"/>
      <use transform="translate(858.414217 0)scale(0.996264)" xlink:href="#CMR17-117"/>
      <use transform="translate(909.309587 0)scale(0.996264)" xlink:href="#CMR17-109"/>
      <use transform="translate(986.229177 0)scale(0.996264)" xlink:href="#CMR17-101"/>
      <use transform="translate(1026.714837 0)scale(0.996264)" xlink:href="#CMR17-93"/>
     </g>
    </g>
   </g>
   <g id="line2d_18">
    <path clip-path="url(#pd98b6cd20d)" d="M 57.6 172.75946 
L 58.978842 203.772246 
L 60.357683 245.122628 
L 61.736525 221.001572 
L 63.115367 210.663977 
L 64.494208 127.963214 
L 65.87305 172.75946 
L 67.251892 196.880516 
L 68.630734 124.517349 
L 70.009575 124.517349 
L 71.388417 141.746674 
L 72.767259 189.988786 
L 74.1461 169.313595 
L 75.524942 172.75946 
L 76.903784 193.434651 
L 78.282625 207.218111 
L 79.661467 186.542921 
L 81.040309 172.75946 
L 82.419151 162.421865 
L 83.797992 162.421865 
L 85.176834 169.313595 
L 86.555676 193.434651 
L 87.934517 179.651191 
L 89.313359 172.75946 
L 90.692201 189.988786 
L 92.071042 234.785032 
L 93.449884 255.460223 
L 94.828726 255.460223 
L 96.207568 200.326381 
L 97.586409 245.122628 
L 98.965251 245.122628 
L 100.344093 217.555707 
L 101.722934 224.447437 
L 103.101776 217.555707 
L 104.480618 189.988786 
L 105.859459 193.434651 
L 107.238301 117.625619 
L 108.617143 162.421865 
L 109.995985 155.530135 
L 111.374826 162.421865 
L 112.753668 152.08427 
L 114.13251 138.300809 
L 115.511351 196.880516 
L 116.890193 193.434651 
L 118.269035 183.097056 
L 119.647876 165.86773 
L 121.026718 172.75946 
L 122.40556 165.86773 
L 123.784402 165.86773 
L 125.163243 162.421865 
L 126.542085 138.300809 
L 127.920927 169.313595 
L 129.299768 152.08427 
L 130.67861 207.218111 
L 132.057452 207.218111 
L 133.436293 200.326381 
L 134.815135 207.218111 
L 136.193977 217.555707 
L 138.95166 183.097056 
L 140.330502 52.154182 
L 141.709344 96.950428 
L 143.088185 103.842158 
L 144.467027 169.313595 
L 145.845869 90.058698 
L 147.22471 127.963214 
L 148.603552 196.880516 
L 149.982394 224.447437 
L 151.361236 131.409079 
L 152.740077 148.638405 
L 154.118919 141.746674 
L 155.497761 100.396293 
L 156.876602 193.434651 
L 158.255444 186.542921 
L 159.634286 203.772246 
L 161.013127 200.326381 
L 162.391969 227.893302 
L 163.770811 248.568493 
L 165.149653 252.014358 
L 166.528494 224.447437 
L 167.907336 210.663977 
L 169.286178 231.339167 
L 170.665019 214.109842 
L 172.043861 241.676762 
L 173.422703 224.447437 
L 174.801544 210.663977 
L 176.180386 200.326381 
L 177.559228 172.75946 
L 178.938069 155.530135 
L 180.316911 172.75946 
L 181.695753 124.517349 
L 183.074595 127.963214 
L 184.453436 158.976 
L 185.832278 165.86773 
L 187.21112 186.542921 
L 188.589961 193.434651 
L 189.968803 165.86773 
L 191.347645 162.421865 
L 192.726486 162.421865 
L 194.105328 124.517349 
L 195.48417 145.19254 
L 196.863012 103.842158 
L 198.241853 179.651191 
L 199.620695 176.205326 
L 200.999537 148.638405 
L 202.378378 214.109842 
L 203.75722 203.772246 
L 205.136062 224.447437 
L 206.514903 207.218111 
L 207.893745 169.313595 
L 209.272587 189.988786 
L 210.651429 148.638405 
L 212.03027 165.86773 
L 213.409112 141.746674 
L 214.787954 110.733889 
L 216.166795 107.288023 
L 217.545637 110.733889 
L 218.924479 155.530135 
L 220.30332 193.434651 
L 221.682162 221.001572 
L 223.061004 134.854944 
L 224.439846 134.854944 
L 225.818687 127.963214 
L 227.197529 176.205326 
L 228.576371 193.434651 
L 229.955212 172.75946 
L 231.334054 203.772246 
L 232.712896 179.651191 
L 234.091737 227.893302 
L 235.470579 227.893302 
L 236.849421 221.001572 
L 238.228263 231.339167 
L 239.607104 214.109842 
L 240.985946 252.014358 
L 242.364788 255.460223 
L 243.743629 231.339167 
L 245.122471 245.122628 
L 246.501313 203.772246 
L 247.880154 203.772246 
L 249.258996 158.976 
L 250.637838 172.75946 
L 252.01668 196.880516 
L 253.395521 165.86773 
L 254.774363 162.421865 
L 256.153205 176.205326 
L 257.532046 162.421865 
L 258.910888 162.421865 
L 260.28973 193.434651 
L 263.047413 200.326381 
L 264.426255 141.746674 
L 265.805097 152.08427 
L 267.183938 124.517349 
L 268.56278 152.08427 
L 269.941622 186.542921 
L 271.320463 162.421865 
L 272.699305 196.880516 
L 274.078147 193.434651 
L 275.456988 248.568493 
L 276.83583 224.447437 
L 279.593514 196.880516 
L 280.972355 172.75946 
L 282.351197 165.86773 
L 283.730039 221.001572 
L 285.10888 186.542921 
L 286.487722 176.205326 
L 287.866564 127.963214 
L 289.245405 114.179754 
L 290.624247 124.517349 
L 292.003089 183.097056 
L 293.381931 203.772246 
L 294.760772 186.542921 
L 296.139614 145.19254 
L 297.518456 193.434651 
L 300.276139 193.434651 
L 301.654981 203.772246 
L 303.033822 193.434651 
L 304.412664 210.663977 
L 305.791506 214.109842 
L 307.170347 241.676762 
L 308.549189 234.785032 
L 309.928031 221.001572 
L 311.306873 238.230897 
L 312.685714 231.339167 
L 314.064556 248.568493 
L 316.822239 241.676762 
L 318.201081 203.772246 
L 319.579923 207.218111 
L 320.958764 217.555707 
L 322.337606 200.326381 
L 323.716448 176.205326 
L 325.09529 176.205326 
L 326.474131 145.19254 
L 327.852973 134.854944 
L 329.231815 172.75946 
L 330.610656 162.421865 
L 331.989498 186.542921 
L 333.36834 234.785032 
L 334.747181 162.421865 
L 336.126023 152.08427 
L 337.504865 131.409079 
L 338.883707 169.313595 
L 340.262548 169.313595 
L 341.64139 162.421865 
L 343.020232 162.421865 
L 345.777915 189.988786 
L 347.156757 196.880516 
L 348.535598 265.797818 
L 349.91444 234.785032 
L 351.293282 217.555707 
L 352.672124 196.880516 
L 354.050965 183.097056 
L 355.429807 203.772246 
L 356.808649 169.313595 
L 358.18749 121.071484 
L 359.566332 169.313595 
L 360.945174 155.530135 
L 362.324015 169.313595 
L 363.702857 221.001572 
L 365.081699 221.001572 
L 366.460541 207.218111 
L 367.839382 186.542921 
L 369.218224 217.555707 
L 370.597066 172.75946 
L 371.975907 176.205326 
L 373.354749 189.988786 
L 374.733591 186.542921 
L 376.112432 200.326381 
L 377.491274 234.785032 
L 378.870116 224.447437 
L 380.248958 210.663977 
L 381.627799 262.351953 
L 383.006641 262.351953 
L 385.764324 221.001572 
L 387.143166 234.785032 
L 388.522008 231.339167 
L 389.900849 217.555707 
L 391.279691 207.218111 
L 392.658533 231.339167 
L 394.037375 193.434651 
L 395.416216 169.313595 
L 396.795058 179.651191 
L 398.1739 155.530135 
L 399.552741 186.542921 
L 400.931583 169.313595 
L 402.310425 145.19254 
L 403.689266 152.08427 
L 405.068108 221.001572 
L 406.44695 210.663977 
L 409.204633 176.205326 
L 411.962317 183.097056 
L 413.341158 169.313595 
L 414.72 138.300809 
L 414.72 138.300809 
" style="fill:none;stroke:#0000ff;stroke-linecap:square;stroke-width:1.5;"/>
   </g>
   <g id="patch_3">
    <path d="M 57.6 276.48 
L 57.6 41.472 
" style="fill:none;stroke:#000000;stroke-linecap:square;stroke-linejoin:miter;stroke-width:0.8;"/>
   </g>
   <g id="patch_4">
    <path d="M 414.72 276.48 
L 414.72 41.472 
" style="fill:none;stroke:#000000;stroke-linecap:square;stroke-linejoin:miter;stroke-width:0.8;"/>
   </g>
   <g id="patch_5">
    <path d="M 57.6 276.48 
L 414.72 276.48 
" style="fill:none;stroke:#000000;stroke-linecap:square;stroke-linejoin:miter;stroke-width:0.8;"/>
   </g>
   <g id="patch_6">
    <path d="M 57.6 41.472 
L 414.72 41.472 
" style="fill:none;stroke:#000000;stroke-linecap:square;stroke-linejoin:miter;stroke-width:0.8;"/>
   </g>
   <g id="text_20">
    <!-- Time series for AU-NSW -->
    <defs>
     <path d="M 62.203125 67.59375 
L 4.5 67.59375 
L 2.796875 45.59375 
L 4.59375 45.59375 
C 5.90625 62.125 7.296875 65 22.703125 65 
C 24.5 65 27.40625 65 28.203125 64.90625 
C 30.09375 64.609375 30.09375 63.40625 30.09375 61.125 
L 30.09375 7.171875 
C 30.09375 3.59375 29.796875 2.5 21.5 2.5 
L 18.703125 2.5 
L 18.703125 0 
C 23.5 0 28.5 0 33.40625 0 
C 38.296875 0 43.296875 0 48.09375 0 
L 48.09375 2.5 
L 45.296875 2.5 
C 37 2.5 36.703125 3.59375 36.703125 7.171875 
L 36.703125 61.125 
C 36.703125 63.3125 36.703125 64.515625 38.5 64.90625 
C 39.296875 65 42.203125 65 44 65 
C 59.296875 65 60.796875 62.125 62.09375 45.59375 
L 63.90625 45.59375 
z
" id="CMR17-84"/>
     <path d="M 15.296875 40 
L 26.703125 40 
L 26.703125 42.578125 
L 15.09375 42.578125 
L 15.09375 54.59375 
C 15.09375 62.84375 19.296875 68 23.59375 68 
C 24.90625 68 26.40625 67.609375 27.40625 66.90625 
C 26.59375 66.703125 24.5 66.015625 24.5 63.546875 
C 24.5 60.953125 26.5 60.15625 27.90625 60.15625 
C 29.296875 60.15625 31.296875 60.953125 31.296875 63.546875 
C 31.296875 67.3125 27.703125 69.59375 23.703125 69.59375 
C 18 69.59375 10.203125 64.9375 10.203125 54.390625 
L 10.203125 42.578125 
L 2.203125 42.578125 
L 2.203125 40 
L 10.203125 40 
L 10.203125 6.671875 
C 10.203125 2.875 9.796875 2.390625 3.40625 2.390625 
L 3.40625 -0.203125 
C 5.796875 0 10.40625 0 13 0 
C 15.90625 0 21 0 23.703125 -0.203125 
L 23.703125 2.390625 
C 16.5 2.390625 15.296875 2.390625 15.296875 6.859375 
z
" id="CMR17-102"/>
     <path d="M 36.296875 68.40625 
C 35.796875 69.703125 35.59375 70 34.59375 70 
C 33.59375 70 33.40625 69.703125 32.90625 68.40625 
L 11.703125 8.84375 
C 9.796875 3.484375 5.796875 2.390625 2.296875 2.390625 
L 2.296875 -0.203125 
C 4.09375 0 8.09375 0 10 0 
C 12.5 0 16.5 0 18.90625 -0.203125 
L 18.90625 2.390625 
C 14.203125 2.390625 13.5 5.640625 13.5 6.859375 
C 13.5 7.765625 13.703125 8.28125 13.90625 8.890625 
L 19.203125 24 
L 45.40625 24 
L 51.40625 6.90625 
C 51.90625 5.703125 51.90625 5.5 51.90625 5.109375 
C 51.90625 2.390625 47.59375 2.390625 45.703125 2.390625 
L 45.703125 0 
C 48.59375 0 53.796875 0 56.90625 0 
C 59.5 0 64.5 0 66.90625 -0.203125 
L 66.90625 2.390625 
C 61.59375 2.390625 59.796875 2.390625 58.5 6.046875 
z
M 32.296875 60.828125 
L 44.5 26.59375 
L 20.09375 26.59375 
z
" id="CMR17-65"/>
     <path d="M 54 22.390625 
C 54 9.046875 45.296875 0.59375 35.796875 0.59375 
C 30.703125 0.59375 26.09375 3.28125 23.296875 7.453125 
C 20.09375 12.234375 19.703125 18.40625 19.703125 21.890625 
L 19.703125 60.53125 
C 19.703125 65 20.796875 65 27.703125 65 
L 27.703125 67.5 
C 24.796875 67.5 19.5 67.5 16.40625 67.5 
C 13.296875 67.5 8 67.5 5.09375 67.5 
L 5.09375 65 
C 12 65 13.09375 65 13.09375 60.53125 
L 13.09375 22.390625 
C 13.09375 8.0625 24 -2 35.59375 -2 
C 48.59375 -2 56.09375 11.234375 56.09375 21 
L 56.09375 58.84375 
C 56.09375 64.40625 61.203125 65 64.09375 65 
L 64.09375 67.59375 
C 61.796875 67.5 57.59375 67.5 55.09375 67.5 
C 52.59375 67.5 48.296875 67.5 46 67.59375 
L 46 65 
C 54 65 54 60.328125 54 57.84375 
z
" id="CMR17-85"/>
     <path d="M 20.5 66.40625 
C 19.796875 67.5 19.703125 67.5 17.796875 67.5 
L 5.09375 67.5 
L 5.09375 65 
L 7 65 
C 11 65 12.796875 64.515625 13.09375 64.40625 
L 13.09375 9.53125 
C 13.09375 7.046875 13.09375 2.390625 5.09375 2.390625 
L 5.09375 -0.203125 
C 7.40625 0 11.59375 0 14.09375 0 
C 16.59375 0 20.796875 0 23.09375 -0.203125 
L 23.09375 2.390625 
C 15.09375 2.390625 15.09375 7.046875 15.09375 9.53125 
L 15.09375 63.015625 
C 15.796875 62.421875 15.796875 62.21875 16.5 61.234375 
L 53.59375 1.1875 
C 54.296875 0 54.59375 0 55.09375 0 
C 56.09375 0 56.09375 0.296875 56.09375 2.171875 
L 56.09375 57.890625 
C 56.09375 60.359375 56.09375 65 64.09375 65 
L 64.09375 67.59375 
C 61.796875 67.5 57.59375 67.5 55.09375 67.5 
C 52.59375 67.5 48.40625 67.5 46.09375 67.59375 
L 46.09375 65 
C 54.09375 65 54.09375 60.34375 54.09375 57.859375 
L 54.09375 11.921875 
z
" id="CMR17-78"/>
     <path d="M 43.796875 67.03125 
C 43.796875 68.8125 43.703125 68.921875 43.09375 68.921875 
C 42.5 68.921875 42.296875 68.515625 41.90625 67.625 
L 38.90625 61.046875 
C 35.09375 66.515625 29.296875 69 23 69 
C 12.796875 69 4.59375 60.953125 4.59375 50.828125 
C 4.59375 47.75 5.296875 43.375 8.703125 39.21875 
C 12.40625 34.65625 15.90625 33.859375 23.90625 31.765625 
C 26.90625 30.96875 31.90625 29.671875 32.90625 29.28125 
C 38.59375 26.90625 41.59375 20.953125 41.59375 15.390625 
C 41.59375 8.234375 36.5 0.59375 27.796875 0.59375 
C 17.09375 0.59375 7.09375 6.546875 6.40625 20.484375 
C 6.296875 22.078125 6.203125 22.171875 5.5 22.171875 
C 4.703125 22.171875 4.59375 22.078125 4.59375 20.078125 
L 4.59375 -0.015625 
C 4.59375 -1.796875 4.703125 -1.90625 5.296875 -1.90625 
C 6 -1.90625 6.203125 -1.40625 7.59375 1.6875 
C 7.703125 1.984375 7.703125 2.1875 9.59375 5.953125 
C 14.59375 -0.609375 23 -2 27.796875 -2 
C 38.703125 -2 46.40625 7.046875 46.40625 17.5625 
C 46.40625 22.71875 44.5 26.6875 43.40625 28.484375 
C 39.203125 34.84375 34.703125 36.03125 29.90625 37.21875 
C 29.203125 37.53125 29 37.53125 23.40625 38.90625 
C 18 40.296875 15.703125 41 13.203125 43.6875 
C 10.40625 46.75 9.40625 49.9375 9.40625 53.109375 
C 9.40625 59.5625 14.59375 66.609375 23.09375 66.609375 
C 33.703125 66.609375 40.296875 59.15625 41.796875 46.765625 
C 42.09375 44.96875 42.203125 44.875 42.90625 44.875 
C 43.796875 44.875 43.796875 45.171875 43.796875 46.859375 
z
" id="CMR17-83"/>
     <path d="M 86.296875 58.8125 
C 87.203125 61.5 88.703125 65 94.5 65 
L 94.5 67.59375 
C 92.796875 67.59375 89.296875 67.59375 87.5 67.59375 
C 85 67.59375 80.59375 67.59375 78.203125 67.6875 
L 78.203125 65 
C 82.703125 65 84.59375 62.5 84.59375 60.109375 
C 84.59375 59.40625 84.5 59.015625 84.09375 57.921875 
L 68.59375 8.671875 
L 52.296875 60.515625 
C 52 61.515625 51.90625 61.921875 51.90625 62.3125 
C 51.90625 65 56.296875 65 58.203125 65 
L 58.203125 67.59375 
C 55.296875 67.59375 50.296875 67.59375 47.203125 67.59375 
C 44.703125 67.59375 40.203125 67.59375 37.90625 67.6875 
L 37.90625 65 
C 42.5 65 43.703125 64.703125 44.703125 62.921875 
C 45.09375 62.015625 46.703125 56.84375 46.703125 56.546875 
C 46.703125 56.140625 46.5 55.546875 46.40625 55.25 
L 31.703125 8.765625 
L 15.40625 60.421875 
C 14.90625 61.828125 14.90625 62.015625 14.90625 62.21875 
C 14.90625 65 19.296875 65 21.296875 65 
L 21.296875 67.59375 
C 18.40625 67.59375 13.40625 67.59375 10.296875 67.59375 
C 7.703125 67.59375 3.296875 67.59375 0.90625 67.6875 
L 0.90625 65 
C 6.90625 65 7.296875 64.40625 8.296875 61.21875 
L 27.796875 -0.3125 
C 28.296875 -1.796875 28.296875 -2 29.203125 -2 
C 30 -2 30.296875 -1.796875 30.703125 -0.40625 
L 47.703125 53.640625 
L 64.703125 -0.40625 
C 65.09375 -1.796875 65.40625 -2 66.203125 -2 
C 67.09375 -2 67.09375 -1.796875 67.59375 -0.3125 
z
" id="CMR17-87"/>
    </defs>
    <g transform="translate(159.222768 35.472)scale(0.144 -0.144)">
     <use transform="scale(0.996264)" xlink:href="#CMR17-84"/>
     <use transform="translate(66.509881 0)scale(0.996264)" xlink:href="#CMR17-105"/>
     <use transform="translate(91.380939 0)scale(0.996264)" xlink:href="#CMR17-109"/>
     <use transform="translate(168.300529 0)scale(0.996264)" xlink:href="#CMR17-101"/>
     <use transform="translate(238.862156 0)scale(0.996264)" xlink:href="#CMR17-115"/>
     <use transform="translate(274.663493 0)scale(0.996264)" xlink:href="#CMR17-101"/>
     <use transform="translate(315.149154 0)scale(0.996264)" xlink:href="#CMR17-114"/>
     <use transform="translate(350.429922 0)scale(0.996264)" xlink:href="#CMR17-105"/>
     <use transform="translate(375.30098 0)scale(0.996264)" xlink:href="#CMR17-101"/>
     <use transform="translate(415.786641 0)scale(0.996264)" xlink:href="#CMR17-115"/>
     <use transform="translate(481.663945 0)scale(0.996264)" xlink:href="#CMR17-102"/>
     <use transform="translate(509.137457 0)scale(0.996264)" xlink:href="#CMR17-111"/>
     <use transform="translate(554.827934 0)scale(0.996264)" xlink:href="#CMR17-114"/>
     <use transform="translate(620.184668 0)scale(0.996264)" xlink:href="#CMR17-65"/>
     <use transform="translate(686.654644 0)scale(0.996264)" xlink:href="#CMR17-85"/>
     <use transform="translate(755.727074 0)scale(0.996264)" xlink:href="#CMR17-45"/>
     <use transform="translate(785.80304 0)scale(0.996264)" xlink:href="#CMR17-78"/>
     <use transform="translate(854.87547 0)scale(0.996264)" xlink:href="#CMR17-83"/>
     <use transform="translate(905.77084 0)scale(0.996264)" xlink:href="#CMR17-87"/>
    </g>
   </g>
  </g>
  <g id="axes_2">
   <g id="matplotlib.axis_3">
    <g id="ytick_8">
     <g id="line2d_19">
      <defs>
       <path d="M 0 0 
L 3.5 0 
" id="m0ac9b97c3b" style="stroke:#000000;stroke-width:0.8;"/>
      </defs>
      <g>
       <use style="stroke:#000000;stroke-width:0.8;" x="414.72" xlink:href="#m0ac9b97c3b" y="270.272954"/>
      </g>
     </g>
     <g id="text_21">
      <!-- $5$ -->
      <g transform="translate(421.72 274.424044)scale(0.12 -0.12)">
       <use transform="scale(0.996264)" xlink:href="#CMR17-53"/>
      </g>
     </g>
    </g>
    <g id="ytick_9">
     <g id="line2d_20">
      <g>
       <use style="stroke:#000000;stroke-width:0.8;" x="414.72" xlink:href="#m0ac9b97c3b" y="230.434948"/>
      </g>
     </g>
     <g id="text_22">
      <!-- $10$ -->
      <g transform="translate(421.72 234.586038)scale(0.12 -0.12)">
       <use transform="scale(0.996264)" xlink:href="#CMR17-49"/>
       <use transform="translate(45.690477 0)scale(0.996264)" xlink:href="#CMR17-48"/>
      </g>
     </g>
    </g>
    <g id="ytick_10">
     <g id="line2d_21">
      <g>
       <use style="stroke:#000000;stroke-width:0.8;" x="414.72" xlink:href="#m0ac9b97c3b" y="190.596943"/>
      </g>
     </g>
     <g id="text_23">
      <!-- $15$ -->
      <g transform="translate(421.72 194.748033)scale(0.12 -0.12)">
       <use transform="scale(0.996264)" xlink:href="#CMR17-49"/>
       <use transform="translate(45.690477 0)scale(0.996264)" xlink:href="#CMR17-53"/>
      </g>
     </g>
    </g>
    <g id="ytick_11">
     <g id="line2d_22">
      <g>
       <use style="stroke:#000000;stroke-width:0.8;" x="414.72" xlink:href="#m0ac9b97c3b" y="150.758937"/>
      </g>
     </g>
     <g id="text_24">
      <!-- $20$ -->
      <g transform="translate(421.72 154.910027)scale(0.12 -0.12)">
       <use transform="scale(0.996264)" xlink:href="#CMR17-50"/>
       <use transform="translate(45.690477 0)scale(0.996264)" xlink:href="#CMR17-48"/>
      </g>
     </g>
    </g>
    <g id="ytick_12">
     <g id="line2d_23">
      <g>
       <use style="stroke:#000000;stroke-width:0.8;" x="414.72" xlink:href="#m0ac9b97c3b" y="110.920931"/>
      </g>
     </g>
     <g id="text_25">
      <!-- $25$ -->
      <g transform="translate(421.72 115.072021)scale(0.12 -0.12)">
       <use transform="scale(0.996264)" xlink:href="#CMR17-50"/>
       <use transform="translate(45.690477 0)scale(0.996264)" xlink:href="#CMR17-53"/>
      </g>
     </g>
    </g>
    <g id="ytick_13">
     <g id="line2d_24">
      <g>
       <use style="stroke:#000000;stroke-width:0.8;" x="414.72" xlink:href="#m0ac9b97c3b" y="71.082926"/>
      </g>
     </g>
     <g id="text_26">
      <!-- $30$ -->
      <g transform="translate(421.72 75.234016)scale(0.12 -0.12)">
       <use transform="scale(0.996264)" xlink:href="#CMR17-51"/>
       <use transform="translate(45.690477 0)scale(0.996264)" xlink:href="#CMR17-48"/>
      </g>
     </g>
    </g>
    <g id="text_27">
     <!-- radiation [MJ m$^{-1}$] -->
     <defs>
      <path d="M 20.90625 66 
C 20.296875 67.5 20.203125 67.5 18.09375 67.5 
L 5.296875 67.5 
L 5.296875 65 
C 12.203125 65 13.296875 65 13.296875 60.546875 
L 13.296875 9.53125 
C 13.296875 7.046875 13.296875 2.390625 5.296875 2.390625 
L 5.296875 -0.203125 
C 7.59375 0 11.796875 0 14.296875 0 
C 16.796875 0 21 0 23.296875 -0.203125 
L 23.296875 2.390625 
C 15.296875 2.390625 15.296875 7.046875 15.296875 9.53125 
L 15.296875 64.609375 
L 15.40625 64.609375 
L 38.90625 1.390625 
C 39.296875 0.390625 39.5 -0.203125 40.296875 -0.203125 
C 41.09375 -0.203125 41.296875 0.390625 41.703125 1.390625 
L 65.40625 65.09375 
L 65.5 65.09375 
L 65.5 6.84375 
C 65.5 2.390625 64.40625 2.390625 57.5 2.390625 
L 57.5 -0.203125 
C 60.203125 0 65.59375 0 68.5 0 
C 71.40625 0 76.90625 0 79.59375 -0.203125 
L 79.59375 2.390625 
C 72.703125 2.390625 71.59375 2.390625 71.59375 6.84375 
L 71.59375 60.546875 
C 71.59375 65 72.703125 65 79.59375 65 
L 79.59375 67.5 
L 66.90625 67.5 
C 64.796875 67.5 64.703125 67.40625 64.09375 65.90625 
L 42.5 7.84375 
z
" id="CMR17-77"/>
      <path d="M 29.5 14.21875 
C 29.5 5.0625 24.5 -0.40625 19.40625 -0.40625 
C 16.796875 -0.40625 10.796875 0.765625 8.203125 6.734375 
C 8.59375 6.640625 9.09375 6.53125 9.5 6.53125 
C 11.40625 6.53125 13.796875 7.828125 13.796875 10.8125 
C 13.796875 13.203125 12.09375 15 9.59375 15 
C 7.203125 15 5.296875 13.515625 5.296875 10.65625 
C 5.296875 4.03125 11.40625 -2 19.59375 -2 
C 27.40625 -2 34.59375 3.578125 35.796875 11.9375 
C 35.90625 12.640625 35.90625 12.828125 35.90625 16.21875 
L 35.90625 58.046875 
C 35.90625 59.734375 35.90625 62.515625 36.09375 63.109375 
C 36.5 65 38.796875 65 41.90625 65 
L 41.90625 67.5 
C 41.703125 67.5 34.59375 67.5 32.09375 67.5 
C 27.90625 67.5 23.296875 67.5 19.09375 67.5 
L 19.09375 65 
L 21.5 65 
C 29.296875 65 29.5 63.90625 29.5 60.328125 
z
" id="CMR17-74"/>
      <path d="M 65.90625 23 
C 67.59375 23 69.40625 23 69.40625 25 
C 69.40625 27 67.59375 27 65.90625 27 
L 11.796875 27 
C 10.09375 27 8.296875 27 8.296875 25 
C 8.296875 23 10.09375 23 11.796875 23 
z
" id="CMSY10-0"/>
     </defs>
     <g transform="translate(446.900719 208.123271)rotate(-90)scale(0.12 -0.12)">
      <use transform="scale(0.996264)" xlink:href="#CMR17-114"/>
      <use transform="translate(35.280768 0)scale(0.996264)" xlink:href="#CMR17-97"/>
      <use transform="translate(80.971245 0)scale(0.996264)" xlink:href="#CMR17-100"/>
      <use transform="translate(131.866615 0)scale(0.996264)" xlink:href="#CMR17-105"/>
      <use transform="translate(156.737673 0)scale(0.996264)" xlink:href="#CMR17-97"/>
      <use transform="translate(202.42815 0)scale(0.996264)" xlink:href="#CMR17-116"/>
      <use transform="translate(237.708918 0)scale(0.996264)" xlink:href="#CMR17-105"/>
      <use transform="translate(262.579977 0)scale(0.996264)" xlink:href="#CMR17-111"/>
      <use transform="translate(308.270454 0)scale(0.996264)" xlink:href="#CMR17-110"/>
      <use transform="translate(389.24179 0)scale(0.996264)" xlink:href="#CMR17-91"/>
      <use transform="translate(414.112848 0)scale(0.996264)" xlink:href="#CMR17-77"/>
      <use transform="translate(498.799789 0)scale(0.996264)" xlink:href="#CMR17-74"/>
      <use transform="translate(575.847545 0)scale(0.996264)" xlink:href="#CMR17-109"/>
      <use transform="translate(652.767135 36.153639)scale(0.697382)" xlink:href="#CMSY10-0"/>
      <use transform="translate(707.008128 36.153639)scale(0.697382)" xlink:href="#CMR17-49"/>
      <use transform="translate(739.489442 0)scale(0.996264)" xlink:href="#CMR17-93"/>
     </g>
    </g>
   </g>
   <g id="line2d_25">
    <path clip-path="url(#pd98b6cd20d)" d="M 57.6 236.831794 
L 58.978842 243.467667 
L 60.357683 265.797818 
L 61.736525 211.756615 
L 63.115367 225.495036 
L 64.494208 227.486936 
L 65.87305 200.841001 
L 67.251892 199.975948 
L 68.630734 194.036291 
L 70.009575 175.424354 
L 71.388417 175.595088 
L 72.767259 158.749303 
L 74.1461 154.446798 
L 75.524942 148.994683 
L 76.903784 141.664489 
L 78.282625 103.158211 
L 79.661467 112.548598 
L 81.040309 79.244026 
L 82.419151 75.817957 
L 83.797992 95.828018 
L 85.176834 110.61361 
L 86.555676 99.675231 
L 87.934517 157.861484 
L 89.313359 118.638122 
L 90.692201 111.000607 
L 92.071042 53.58835 
L 93.449884 83.364414 
L 94.828726 52.154182 
L 96.207568 110.636374 
L 97.586409 84.912405 
L 98.965251 130.452936 
L 100.344093 64.560875 
L 101.722934 196.709231 
L 103.101776 74.98705 
L 104.480618 132.718012 
L 105.859459 225.995856 
L 107.238301 151.373581 
L 108.617143 205.268711 
L 109.995985 169.368977 
L 111.374826 173.318631 
L 112.753668 164.599798 
L 114.13251 230.389419 
L 115.511351 208.330546 
L 116.890193 240.451361 
L 118.269035 196.720613 
L 119.647876 225.381213 
L 121.026718 219.519335 
L 122.40556 218.267283 
L 123.784402 217.197348 
L 125.163243 223.548665 
L 126.542085 240.326156 
L 127.920927 241.179828 
L 129.299768 252.801143 
L 130.67861 233.405725 
L 132.057452 234.52119 
L 133.436293 225.073891 
L 134.815135 223.286872 
L 136.193977 240.041599 
L 137.572819 238.288727 
L 138.95166 214.181042 
L 140.330502 217.231495 
L 141.709344 224.994215 
L 143.088185 230.150391 
L 144.467027 220.452682 
L 145.845869 205.997178 
L 148.603552 167.229107 
L 149.982394 166.033967 
L 151.361236 151.66952 
L 152.740077 145.511703 
L 154.118919 167.718545 
L 156.876602 123.726005 
L 158.255444 120.22026 
L 159.634286 179.658565 
L 161.013127 103.932207 
L 162.391969 157.201312 
L 163.770811 136.121316 
L 165.149653 160.37697 
L 166.528494 107.893243 
L 167.907336 160.707056 
L 169.286178 92.117393 
L 170.665019 139.353885 
L 172.043861 97.239422 
L 173.422703 124.113002 
L 174.801544 174.399948 
L 176.180386 132.581424 
L 177.559228 148.004424 
L 178.938069 148.391421 
L 180.316911 173.307248 
L 181.695753 152.090665 
L 183.074595 182.390314 
L 184.453436 196.857201 
L 185.832278 174.900769 
L 187.21112 237.389526 
L 188.589961 208.262253 
L 189.968803 209.332188 
L 191.347645 245.76689 
L 192.726486 231.03821 
L 194.105328 212.143613 
L 195.48417 216.355059 
L 196.863012 241.134299 
L 198.241853 245.140864 
L 199.620695 225.244625 
L 202.378378 262.863085 
L 203.75722 233.519548 
L 205.136062 230.958534 
L 206.514903 236.820412 
L 207.893745 240.667625 
L 209.272587 231.550413 
L 210.651429 216.798968 
L 212.03027 216.571322 
L 213.409112 208.068754 
L 214.787954 209.127307 
L 216.166795 213.281841 
L 217.545637 193.590484 
L 218.924479 169.061655 
L 220.30332 173.773922 
L 221.682162 179.021157 
L 223.061004 143.9068 
L 224.439846 163.620922 
L 225.818687 153.456539 
L 227.197529 167.968956 
L 228.576371 151.555697 
L 229.955212 202.297934 
L 231.334054 173.204808 
L 232.712896 115.155142 
L 234.091737 114.381147 
L 235.470579 104.421645 
L 236.849421 127.664276 
L 238.228263 101.849248 
L 239.607104 167.229107 
L 240.985946 102.40698 
L 242.364788 171.338113 
L 243.743629 128.495183 
L 245.122471 140.71976 
L 246.501313 178.645541 
L 247.880154 143.497038 
L 249.258996 105.502963 
L 250.637838 132.854599 
L 252.01668 135.108292 
L 253.395521 139.399414 
L 254.774363 154.378504 
L 256.153205 188.878217 
L 257.532046 185.65703 
L 258.910888 183.175691 
L 260.28973 206.95329 
L 261.668571 199.327157 
L 263.047413 206.247588 
L 264.426255 206.589056 
L 265.805097 202.821519 
L 267.183938 215.490005 
L 268.56278 219.849421 
L 269.941622 231.504883 
L 271.320463 257.399587 
L 272.699305 236.000887 
L 274.078147 243.114817 
L 275.456988 234.669159 
L 276.83583 231.186179 
L 278.214672 241.73756 
L 279.593514 227.862552 
L 280.972355 237.16188 
L 282.351197 216.264001 
L 283.730039 242.887171 
L 285.10888 199.327157 
L 286.487722 190.699383 
L 287.866564 213.600545 
L 289.245405 212.371258 
L 290.624247 169.608005 
L 292.003089 196.75476 
L 293.381931 180.910616 
L 294.760772 154.321593 
L 296.139614 136.44002 
L 297.518456 124.454471 
L 298.897297 160.058266 
L 300.276139 157.998072 
L 301.654981 85.595342 
L 303.033822 127.265896 
L 304.412664 116.099872 
L 305.791506 123.726005 
L 307.170347 119.127561 
L 308.549189 106.698103 
L 309.928031 180.97891 
L 311.306873 115.268965 
L 312.685714 143.918182 
L 315.443398 113.903091 
L 316.822239 130.168379 
L 318.201081 154.150859 
L 319.579923 176.107291 
L 320.958764 139.057946 
L 322.337606 149.67762 
L 323.716448 144.806001 
L 325.09529 199.611714 
L 326.474131 172.225931 
L 327.852973 227.839787 
L 329.231815 208.922425 
L 330.610656 205.541886 
L 331.989498 191.359556 
L 333.36834 199.725537 
L 334.747181 203.424781 
L 336.126023 205.2118 
L 337.504865 216.685145 
L 338.883707 219.758363 
L 340.262548 227.077174 
L 341.64139 221.943762 
L 343.020232 228.852811 
L 344.399073 249.295399 
L 345.777915 239.939158 
L 347.156757 233.098404 
L 348.535598 232.620348 
L 349.91444 227.122703 
L 351.293282 224.994215 
L 352.672124 214.841215 
L 354.050965 211.88182 
L 355.429807 217.390847 
L 356.808649 201.489792 
L 358.18749 203.834543 
L 359.566332 194.569361 
L 360.945174 186.863553 
L 362.324015 163.780274 
L 363.702857 170.689322 
L 365.081699 158.73792 
L 366.460541 161.549345 
L 367.839382 163.951008 
L 369.218224 180.921999 
L 370.597066 151.658138 
L 371.975907 137.373367 
L 373.354749 169.551093 
L 374.733591 106.550133 
L 376.112432 127.903304 
L 377.491274 120.920271 
L 378.870116 132.103368 
L 380.248958 135.552201 
L 381.627799 108.052595 
L 383.006641 135.518054 
L 385.764324 102.85089 
L 387.143166 168.674657 
L 388.522008 81.520483 
L 389.900849 167.627487 
L 391.279691 135.961964 
L 392.658533 109.657497 
L 394.037375 114.19903 
L 395.416216 187.569254 
L 396.795058 154.196388 
L 398.1739 169.835651 
L 399.552741 172.157637 
L 400.931583 204.187394 
L 402.310425 160.957467 
L 403.689266 181.024439 
L 405.068108 184.735065 
L 406.44695 205.120741 
L 407.825792 206.862231 
L 409.204633 207.328905 
L 410.583475 223.651105 
L 411.962317 215.467241 
L 413.341158 222.87711 
L 414.72 238.732636 
L 414.72 238.732636 
" style="fill:none;stroke:#ff0000;stroke-dasharray:5.55,2.4;stroke-dashoffset:0;stroke-width:1.5;"/>
   </g>
   <g id="patch_7">
    <path d="M 57.6 276.48 
L 57.6 41.472 
" style="fill:none;stroke:#000000;stroke-linecap:square;stroke-linejoin:miter;stroke-width:0.8;"/>
   </g>
   <g id="patch_8">
    <path d="M 414.72 276.48 
L 414.72 41.472 
" style="fill:none;stroke:#000000;stroke-linecap:square;stroke-linejoin:miter;stroke-width:0.8;"/>
   </g>
   <g id="patch_9">
    <path d="M 57.6 276.48 
L 414.72 276.48 
" style="fill:none;stroke:#000000;stroke-linecap:square;stroke-linejoin:miter;stroke-width:0.8;"/>
   </g>
   <g id="patch_10">
    <path d="M 57.6 41.472 
L 414.72 41.472 
" style="fill:none;stroke:#000000;stroke-linecap:square;stroke-linejoin:miter;stroke-width:0.8;"/>
   </g>
   <g id="legend_1">
    <g id="patch_11">
     <path d="M 190.556511 101.245787 
L 281.763489 101.245787 
Q 284.163489 101.245787 284.163489 98.845787 
L 284.163489 49.872 
Q 284.163489 47.472 281.763489 47.472 
L 190.556511 47.472 
Q 188.156511 47.472 188.156511 49.872 
L 188.156511 98.845787 
Q 188.156511 101.245787 190.556511 101.245787 
z
" style="fill:#ffffff;opacity:0.8;stroke:#cccccc;stroke-linejoin:miter;"/>
    </g>
    <g id="line2d_26">
     <path d="M 192.956511 56.472 
L 216.956511 56.472 
" style="fill:none;stroke:#ff0000;stroke-dasharray:5.55,2.4;stroke-dashoffset:0;stroke-width:1.5;"/>
    </g>
    <g id="line2d_27"/>
    <g id="text_28">
     <!-- radiation -->
     <g transform="translate(226.556511 60.672)scale(0.12 -0.12)">
      <use transform="scale(0.996264)" xlink:href="#CMR17-114"/>
      <use transform="translate(35.280768 0)scale(0.996264)" xlink:href="#CMR17-97"/>
      <use transform="translate(80.971245 0)scale(0.996264)" xlink:href="#CMR17-100"/>
      <use transform="translate(131.866615 0)scale(0.996264)" xlink:href="#CMR17-105"/>
      <use transform="translate(156.737673 0)scale(0.996264)" xlink:href="#CMR17-97"/>
      <use transform="translate(202.42815 0)scale(0.996264)" xlink:href="#CMR17-116"/>
      <use transform="translate(237.708918 0)scale(0.996264)" xlink:href="#CMR17-105"/>
      <use transform="translate(262.579977 0)scale(0.996264)" xlink:href="#CMR17-111"/>
      <use transform="translate(308.270454 0)scale(0.996264)" xlink:href="#CMR17-110"/>
     </g>
    </g>
    <g id="line2d_28">
     <path d="M 192.956511 73.196596 
L 216.956511 73.196596 
" style="fill:none;stroke:#0000ff;stroke-linecap:square;stroke-width:1.5;"/>
    </g>
    <g id="line2d_29"/>
    <g id="text_29">
     <!-- depression -->
     <g transform="translate(226.556511 77.396596)scale(0.12 -0.12)">
      <use transform="scale(0.996264)" xlink:href="#CMR17-100"/>
      <use transform="translate(50.89537 0)scale(0.996264)" xlink:href="#CMR17-101"/>
      <use transform="translate(91.38103 0)scale(0.996264)" xlink:href="#CMR17-112"/>
      <use transform="translate(142.2764 0)scale(0.996264)" xlink:href="#CMR17-114"/>
      <use transform="translate(177.557168 0)scale(0.996264)" xlink:href="#CMR17-101"/>
      <use transform="translate(218.042828 0)scale(0.996264)" xlink:href="#CMR17-115"/>
      <use transform="translate(253.844166 0)scale(0.996264)" xlink:href="#CMR17-115"/>
      <use transform="translate(289.645504 0)scale(0.996264)" xlink:href="#CMR17-105"/>
      <use transform="translate(314.516562 0)scale(0.996264)" xlink:href="#CMR17-111"/>
      <use transform="translate(360.207039 0)scale(0.996264)" xlink:href="#CMR17-110"/>
     </g>
    </g>
    <g id="patch_12">
     <path d="M 192.956511 94.121192 
L 216.956511 94.121192 
L 216.956511 85.721192 
L 192.956511 85.721192 
z
" style="fill:none;"/>
    </g>
    <g id="text_30">
     <!-- $\rho=-0.35 $ -->
     <defs>
      <path d="M 3.09375 -17.296875 
C 3 -17.796875 2.796875 -18.390625 2.796875 -19 
C 2.796875 -20.5 4 -21.5 5.5 -21.5 
C 7 -21.5 8.40625 -20.5 9 -19.09375 
C 9.40625 -18.1875 12.203125 -6.203125 15.40625 6.09375 
C 17.40625 1.09375 21.09375 -1 25 -1 
C 36.296875 -1 49.09375 12.96875 49.09375 28.046875 
C 49.09375 38.71875 42.59375 44 35.703125 44 
C 26.90625 44 16.203125 34.921875 12.90625 21.640625 
z
M 24.90625 1 
C 18.09375 1 16.40625 8.890625 16.40625 10.078125 
C 16.40625 10.6875 18.90625 20.234375 19.203125 21.734375 
C 24.296875 41.71875 34.09375 41.71875 35.59375 41.71875 
C 40.09375 41.71875 42.59375 37.65625 42.59375 31.8125 
C 42.59375 26.75 39.90625 16.9375 38.203125 12.796875 
C 35.203125 5.953125 30 1 24.90625 1 
z
" id="CMMI12-26"/>
      <path d="M 64.296875 31.515625 
C 65.796875 31.515625 67.296875 31.515625 67.296875 33.203125 
C 67.296875 35 65.59375 35 63.90625 35 
L 8 35 
C 6.296875 35 4.59375 35 4.59375 33.203125 
C 4.59375 31.515625 6.09375 31.515625 7.59375 31.515625 
z
M 63.90625 14 
C 65.59375 14 67.296875 14 67.296875 15.796875 
C 67.296875 17.484375 65.796875 17.484375 64.296875 17.484375 
L 7.59375 17.484375 
C 6.09375 17.484375 4.59375 17.484375 4.59375 15.796875 
C 4.59375 14 6.296875 14 8 14 
z
" id="CMR17-61"/>
      <path d="M 18.40625 4.796875 
C 18.40625 7.6875 16 9.671875 13.59375 9.671875 
C 10.703125 9.671875 8.703125 7.28125 8.703125 4.890625 
C 8.703125 2 11.09375 0 13.5 0 
C 16.40625 0 18.40625 2.390625 18.40625 4.796875 
z
" id="CMMI12-58"/>
     </defs>
     <g transform="translate(226.556511 94.121192)scale(0.12 -0.12)">
      <use transform="scale(0.996264)" xlink:href="#CMMI12-26"/>
      <use transform="translate(77.988382 0)scale(0.996264)" xlink:href="#CMR17-61"/>
      <use transform="translate(177.377179 0)scale(0.996264)" xlink:href="#CMSY10-0"/>
      <use transform="translate(254.864646 0)scale(0.996264)" xlink:href="#CMR17-48"/>
      <use transform="translate(300.555123 0)scale(0.996264)" xlink:href="#CMMI12-58"/>
      <use transform="translate(327.652301 0)scale(0.996264)" xlink:href="#CMR17-51"/>
      <use transform="translate(373.342778 0)scale(0.996264)" xlink:href="#CMR17-53"/>
     </g>
    </g>
   </g>
  </g>
 </g>
 <defs>
  <clipPath id="pd98b6cd20d">
   <rect height="235.008" width="357.12" x="57.6" y="41.472"/>
  </clipPath>
 </defs>
</svg>
