<?xml version="1.0" encoding="utf-8" standalone="no"?>
<!DOCTYPE svg PUBLIC "-//W3C//DTD SVG 1.1//EN"
  "http://www.w3.org/Graphics/SVG/1.1/DTD/svg11.dtd">
<!-- Created with matplotlib (http://matplotlib.org/) -->
<svg height="345.6pt" version="1.1" viewBox="0 0 460.8 345.6" width="460.8pt" xmlns="http://www.w3.org/2000/svg" xmlns:xlink="http://www.w3.org/1999/xlink">
 <defs>
  <style type="text/css">
*{stroke-linecap:butt;stroke-linejoin:round;}
  </style>
 </defs>
 <g id="figure_1">
  <g id="patch_1">
   <path d="M 0 345.6 
L 460.8 345.6 
L 460.8 0 
L 0 0 
z
" style="fill:#ffffff;"/>
  </g>
  <g id="axes_1">
   <g id="patch_2">
    <path d="M 57.6 276.48 
L 414.72 276.48 
L 414.72 41.472 
L 57.6 41.472 
z
" style="fill:#ffffff;"/>
   </g>
   <g id="matplotlib.axis_1">
    <g id="xtick_1">
     <g id="line2d_1">
      <defs>
       <path d="M 0 0 
L 0 3.5 
" id="m49eaf48c26" style="stroke:#000000;stroke-width:0.8;"/>
      </defs>
      <g>
       <use style="stroke:#000000;stroke-width:0.8;" x="109.467727" xlink:href="#m49eaf48c26" y="276.48"/>
      </g>
     </g>
     <g id="text_1">
      <!-- 2014 -->
      <defs>
       <path d="M 41.703125 15.453125 
L 39.90625 15.453125 
C 38.90625 8.375 38.09375 7.171875 37.703125 6.5625 
C 37.203125 5.765625 30 5.765625 28.59375 5.765625 
L 9.40625 5.765625 
C 13 9.671875 20 16.75 28.5 24.953125 
C 34.59375 30.734375 41.703125 37.53125 41.703125 47.421875 
C 41.703125 59.21875 32.296875 66 21.796875 66 
C 10.796875 66 4.09375 56.3125 4.09375 47.34375 
C 4.09375 43.4375 7 42.9375 8.203125 42.9375 
C 9.203125 42.9375 12.203125 43.546875 12.203125 47.03125 
C 12.203125 50.109375 9.59375 51 8.203125 51 
C 7.59375 51 7 50.90625 6.59375 50.703125 
C 8.5 59.21875 14.296875 63.40625 20.40625 63.40625 
C 29.09375 63.40625 34.796875 56.515625 34.796875 47.421875 
C 34.796875 38.734375 29.703125 31.25 24 24.75 
L 4.09375 2.28125 
L 4.09375 0 
L 39.296875 0 
z
" id="CMR17-50"/>
       <path d="M 42 31.640625 
C 42 37.75 41.90625 48.125 37.703125 56.109375 
C 34 63.109375 28.09375 65.59375 22.90625 65.59375 
C 18.09375 65.59375 12 63.40625 8.203125 56.203125 
C 4.203125 48.71875 3.796875 39.4375 3.796875 31.640625 
C 3.796875 25.953125 3.90625 17.28125 7 9.671875 
C 11.296875 -0.609375 19 -2 22.90625 -2 
C 27.5 -2 34.5 -0.109375 38.59375 9.375 
C 41.59375 16.28125 42 24.359375 42 31.640625 
z
M 22.90625 -0.40625 
C 16.5 -0.40625 12.703125 5.078125 11.296875 12.6875 
C 10.203125 18.5625 10.203125 27.15625 10.203125 32.75 
C 10.203125 40.4375 10.203125 46.828125 11.5 52.921875 
C 13.40625 61.390625 19 64 22.90625 64 
C 27 64 32.296875 61.296875 34.203125 53.125 
C 35.5 47.4375 35.59375 40.734375 35.59375 32.75 
C 35.59375 26.25 35.59375 18.265625 34.40625 12.375 
C 32.296875 1.484375 26.40625 -0.40625 22.90625 -0.40625 
z
" id="CMR17-48"/>
       <path d="M 26.59375 63.40625 
C 26.59375 65.5 26.5 65.5 25.09375 65.5 
C 21.203125 61.1875 15.296875 59.796875 9.703125 59.796875 
C 9.40625 59.796875 8.90625 59.796875 8.796875 59.5 
C 8.703125 59.296875 8.703125 59.09375 8.703125 57 
C 11.796875 57 17 57.59375 21 59.984375 
L 21 7.203125 
C 21 3.6875 20.796875 2.5 12.203125 2.5 
L 9.203125 2.5 
L 9.203125 0 
C 14 0 19 0 23.796875 0 
C 28.59375 0 33.59375 0 38.40625 0 
L 38.40625 2.5 
L 35.40625 2.5 
C 26.796875 2.5 26.59375 3.59375 26.59375 7.15625 
z
" id="CMR17-49"/>
       <path d="M 33.59375 64.40625 
C 33.59375 66.5 33.5 66.5 31.703125 66.5 
L 2 19.59375 
L 2 17 
L 27.796875 17 
L 27.796875 7.140625 
C 27.796875 3.5 27.59375 2.5 20.59375 2.5 
L 18.703125 2.5 
L 18.703125 0 
C 21.90625 0 27.296875 0 30.703125 0 
C 34.09375 0 39.5 0 42.703125 0 
L 42.703125 2.5 
L 40.796875 2.5 
C 33.796875 2.5 33.59375 3.5 33.59375 7.140625 
L 33.59375 17 
L 43.796875 17 
L 43.796875 19.59375 
L 33.59375 19.59375 
z
M 28.09375 57.859375 
L 28.09375 19.59375 
L 4 19.59375 
z
" id="CMR17-52"/>
      </defs>
      <g transform="translate(88.030076 302.375879)rotate(-30)scale(0.12 -0.12)">
       <use transform="scale(0.996264)" xlink:href="#CMR17-50"/>
       <use transform="translate(45.690477 0)scale(0.996264)" xlink:href="#CMR17-48"/>
       <use transform="translate(91.380954 0)scale(0.996264)" xlink:href="#CMR17-49"/>
       <use transform="translate(137.071431 0)scale(0.996264)" xlink:href="#CMR17-52"/>
      </g>
     </g>
    </g>
    <g id="xtick_2">
     <g id="line2d_2">
      <g>
       <use style="stroke:#000000;stroke-width:0.8;" x="174.828405" xlink:href="#m49eaf48c26" y="276.48"/>
      </g>
     </g>
     <g id="text_2">
      <!-- 2015 -->
      <defs>
       <path d="M 11.40625 57.6875 
C 12.40625 57.28125 16.5 56 20.703125 56 
C 30 56 35.09375 61.109375 38 64.0625 
C 38 64.953125 38 65.5 37.40625 65.5 
C 37.296875 65.5 37.09375 65.5 36.296875 65.046875 
C 32.796875 63.40625 28.703125 62.078125 23.703125 62.078125 
C 20.703125 62.078125 16.203125 62.484375 11.296875 64.671875 
C 10.203125 65.171875 10 65.171875 9.90625 65.171875 
C 9.40625 65.171875 9.296875 65.0625 9.296875 63.078125 
L 9.296875 34.421875 
C 9.296875 32.640625 9.296875 32.140625 10.296875 32.140625 
C 10.796875 32.140625 11 32.34375 11.5 33.03125 
C 14.703125 37.515625 19.09375 39.40625 24.09375 39.40625 
C 27.59375 39.40625 35.09375 37.21875 35.09375 20.140625 
C 35.09375 16.953125 35.09375 11.171875 32.09375 6.578125 
C 29.59375 2.484375 25.703125 0.390625 21.40625 0.390625 
C 14.796875 0.390625 8.09375 5 6.296875 12.71875 
C 6.703125 12.609375 7.5 12.421875 7.90625 12.421875 
C 9.203125 12.421875 11.703125 13.125 11.703125 16.21875 
C 11.703125 18.90625 9.796875 20 7.90625 20 
C 5.59375 20 4.09375 18.59375 4.09375 15.796875 
C 4.09375 7.09375 11 -2 21.59375 -2 
C 31.90625 -2 41.703125 6.875 41.703125 19.75 
C 41.703125 31.71875 33.90625 41 24.203125 41 
C 19.09375 41 14.796875 39.109375 11.40625 35.53125 
z
" id="CMR17-53"/>
      </defs>
      <g transform="translate(153.390754 302.375879)rotate(-30)scale(0.12 -0.12)">
       <use transform="scale(0.996264)" xlink:href="#CMR17-50"/>
       <use transform="translate(45.690477 0)scale(0.996264)" xlink:href="#CMR17-48"/>
       <use transform="translate(91.380954 0)scale(0.996264)" xlink:href="#CMR17-49"/>
       <use transform="translate(137.071431 0)scale(0.996264)" xlink:href="#CMR17-53"/>
      </g>
     </g>
    </g>
    <g id="xtick_3">
     <g id="line2d_3">
      <g>
       <use style="stroke:#000000;stroke-width:0.8;" x="240.189083" xlink:href="#m49eaf48c26" y="276.48"/>
      </g>
     </g>
     <g id="text_3">
      <!-- 2016 -->
      <defs>
       <path d="M 10.59375 34 
C 10.59375 57.65625 21.796875 63 28.296875 63 
C 30.40625 63 35.5 62.640625 37.5 59 
C 35.90625 59 32.90625 59 32.90625 55.515625 
C 32.90625 52.828125 35.09375 51.921875 36.5 51.921875 
C 37.40625 51.921875 40.09375 52.3125 40.09375 55.625 
C 40.09375 61.78125 35.09375 65.296875 28.203125 65.296875 
C 16.296875 65.296875 3.796875 52.96875 3.796875 31 
C 3.796875 3.953125 15.09375 -2 23.09375 -2 
C 32.796875 -2 42 6.671875 42 20.046875 
C 42 32.515625 33.90625 41.59375 23.703125 41.59375 
C 17.59375 41.59375 13.09375 37.609375 10.59375 30.625 
z
M 23.09375 0.390625 
C 10.796875 0.390625 10.796875 18.75 10.796875 22.4375 
C 10.796875 29.625 14.203125 40 23.5 40 
C 25.203125 40 30.09375 40 33.40625 33.125 
C 35.203125 29.21875 35.203125 25.140625 35.203125 20.140625 
C 35.203125 14.75 35.203125 10.78125 33.09375 6.78125 
C 30.90625 2.671875 27.703125 0.390625 23.09375 0.390625 
z
" id="CMR17-54"/>
      </defs>
      <g transform="translate(218.751432 302.375879)rotate(-30)scale(0.12 -0.12)">
       <use transform="scale(0.996264)" xlink:href="#CMR17-50"/>
       <use transform="translate(45.690477 0)scale(0.996264)" xlink:href="#CMR17-48"/>
       <use transform="translate(91.380954 0)scale(0.996264)" xlink:href="#CMR17-49"/>
       <use transform="translate(137.071431 0)scale(0.996264)" xlink:href="#CMR17-54"/>
      </g>
     </g>
    </g>
    <g id="xtick_4">
     <g id="line2d_4">
      <g>
       <use style="stroke:#000000;stroke-width:0.8;" x="305.728831" xlink:href="#m49eaf48c26" y="276.48"/>
      </g>
     </g>
     <g id="text_4">
      <!-- 2017 -->
      <defs>
       <path d="M 45.09375 61.578125 
L 45.09375 63.765625 
L 21.59375 63.765625 
C 9.90625 63.765625 9.703125 65.078125 9.296875 67 
L 7.5 67 
L 4.59375 48.34375 
L 6.40625 48.34375 
C 6.703125 50.234375 7.40625 55.3125 8.59375 57.203125 
C 9.203125 58 16.59375 58 18.296875 58 
L 40.296875 58 
L 29.203125 41.578125 
C 21.796875 30.53125 16.703125 15.609375 16.703125 2.578125 
C 16.703125 1.390625 16.703125 -2 20.296875 -2 
C 23.90625 -2 23.90625 1.390625 23.90625 2.671875 
L 23.90625 7.265625 
C 23.90625 23.5625 26.703125 34.3125 31.296875 41.1875 
z
" id="CMR17-55"/>
      </defs>
      <g transform="translate(284.29118 302.375879)rotate(-30)scale(0.12 -0.12)">
       <use transform="scale(0.996264)" xlink:href="#CMR17-50"/>
       <use transform="translate(45.690477 0)scale(0.996264)" xlink:href="#CMR17-48"/>
       <use transform="translate(91.380954 0)scale(0.996264)" xlink:href="#CMR17-49"/>
       <use transform="translate(137.071431 0)scale(0.996264)" xlink:href="#CMR17-55"/>
      </g>
     </g>
    </g>
    <g id="xtick_5">
     <g id="line2d_5">
      <g>
       <use style="stroke:#000000;stroke-width:0.8;" x="371.089509" xlink:href="#m49eaf48c26" y="276.48"/>
      </g>
     </g>
     <g id="text_5">
      <!-- 2018 -->
      <defs>
       <path d="M 27.203125 35.375 
C 33.5 38.546875 39.90625 43.328125 39.90625 50.984375 
C 39.90625 60.015625 31.09375 65.296875 23 65.296875 
C 13.90625 65.296875 5.90625 58.734375 5.90625 49.6875 
C 5.90625 47.203125 6.5 42.921875 10.40625 39.140625 
C 11.40625 38.15625 15.59375 35.171875 18.296875 33.28125 
C 13.796875 30.984375 3.296875 25.53125 3.296875 14.59375 
C 3.296875 4.359375 13.09375 -2 22.796875 -2 
C 33.5 -2 42.5 5.65625 42.5 15.78125 
C 42.5 24.84375 36.40625 29.015625 32.40625 31.703125 
z
M 14.09375 44.09375 
C 13.296875 44.59375 9.296875 47.671875 9.296875 52.359375 
C 9.296875 58.421875 15.59375 63 22.796875 63 
C 30.703125 63 36.5 57.4375 36.5 50.96875 
C 36.5 41.703125 26.09375 36.421875 25.59375 36.421875 
C 25.5 36.421875 25.40625 36.421875 24.59375 37.03125 
z
M 32.5 23.734375 
C 34 22.640625 38.796875 19.375 38.796875 13.296875 
C 38.796875 5.953125 31.40625 0.390625 23 0.390625 
C 13.90625 0.390625 7 6.84375 7 14.6875 
C 7 22.546875 13.09375 29.09375 20 32.1875 
z
" id="CMR17-56"/>
      </defs>
      <g transform="translate(349.651858 302.375879)rotate(-30)scale(0.12 -0.12)">
       <use transform="scale(0.996264)" xlink:href="#CMR17-50"/>
       <use transform="translate(45.690477 0)scale(0.996264)" xlink:href="#CMR17-48"/>
       <use transform="translate(91.380954 0)scale(0.996264)" xlink:href="#CMR17-49"/>
       <use transform="translate(137.071431 0)scale(0.996264)" xlink:href="#CMR17-56"/>
      </g>
     </g>
    </g>
    <g id="text_6">
     <!-- date -->
     <defs>
      <path d="M 29.203125 67.59375 
L 29.203125 65 
C 35.09375 65 36 64.40625 36 59.6875 
L 36 36.640625 
C 35.59375 37.140625 31.5 43.59375 23.40625 43.59375 
C 13.203125 43.59375 3.296875 34.5 3.296875 21.3125 
C 3.296875 8.203125 12.59375 -1 22.40625 -1 
C 30.90625 -1 35.296875 5.265625 35.796875 5.9375 
L 35.796875 -0.984375 
L 47.90625 -0.984375 
L 47.90625 2 
C 42 2 41.09375 2.59375 41.09375 7.390625 
L 41.09375 68.6875 
z
M 35.796875 11.796875 
C 35.796875 8.796875 34 6.09375 31.703125 4.09375 
C 28.296875 1.09375 24.90625 0.59375 23 0.59375 
C 20.09375 0.59375 9.703125 2.09375 9.703125 21.1875 
C 9.703125 40.8125 21.296875 42 23.90625 42 
C 28.5 42 32.203125 39.40625 34.5 35.796875 
C 35.796875 33.703125 35.796875 33.40625 35.796875 31.609375 
z
" id="CMR17-100"/>
      <path d="M 36 25.828125 
C 36 32.375 36 35.84375 31.796875 39.734375 
C 28.09375 43 23.796875 44 20.40625 44 
C 12.5 44 6.796875 37.609375 6.796875 30.796875 
C 6.796875 27 9.796875 27 10.40625 27 
C 11.703125 27 14 27.78125 14 30.53125 
C 14 33 12.09375 34.078125 10.40625 34.078125 
C 10 34.078125 9.5 33.96875 9.203125 33.875 
C 11.296875 40.5 16.703125 42.40625 20.203125 42.40625 
C 25.203125 42.40625 30.703125 37.953125 30.703125 29.453125 
L 30.703125 25 
C 24.796875 25 17.703125 24.203125 12.09375 21.203125 
C 5.796875 17.703125 4 12.703125 4 8.90625 
C 4 1.203125 13 -1 18.296875 -1 
C 23.796875 -1 28.90625 2.171875 31.09375 7.984375 
C 31.296875 3.640625 34.09375 -0.28125 38.5 -0.28125 
C 40.59375 -0.28125 45.90625 1.09375 45.90625 8.859375 
L 45.90625 14.375 
L 44.09375 14.375 
L 44.09375 8.78125 
C 44.09375 2.78125 41.40625 2 40.09375 2 
C 36 2 36 7.15625 36 11.53125 
z
M 30.703125 13.59375 
C 30.703125 4.953125 24.5 0.59375 19 0.59375 
C 14 0.59375 10.09375 4.296875 10.09375 8.90625 
C 10.09375 11.890625 11.40625 17.1875 17.203125 20.390625 
C 22 23.09375 27.5 23.5 30.703125 23.5 
z
" id="CMR17-97"/>
      <path d="M 15.09375 40 
L 29.09375 40 
L 29.09375 42.578125 
L 15.09375 42.578125 
L 15.09375 61 
L 13.296875 61 
C 13.09375 50.703125 9.59375 41.6875 1.09375 41.6875 
L 1.09375 40 
L 9.796875 40 
L 9.796875 12.046875 
C 9.796875 10.15625 9.796875 -1 21.40625 -1 
C 27.296875 -1 30.703125 4.78125 30.703125 12.140625 
L 30.703125 17.8125 
L 28.90625 17.8125 
L 28.90625 12.234375 
C 28.90625 5.375 26.203125 0.796875 22 0.796875 
C 19.09375 0.796875 15.09375 2.78125 15.09375 11.84375 
z
" id="CMR17-116"/>
      <path d="M 38.09375 23 
C 38.5 23.40625 38.5 23.609375 38.5 24.625 
C 38.5 34.96875 33.09375 44 21.703125 44 
C 11.09375 44 2.703125 33.890625 2.703125 21.609375 
C 2.703125 8.609375 12.203125 -1 22.796875 -1 
C 34 -1 38.40625 9.484375 38.40625 11.5625 
C 38.40625 12.25 37.796875 12.25 37.59375 12.25 
C 36.90625 12.25 36.796875 12.046875 36.40625 10.875 
C 34.203125 4.140625 28.703125 0.796875 23.5 0.796875 
C 19.203125 0.796875 14.90625 3.171875 12.203125 7.5 
C 9.09375 12.546875 9.09375 18.375 9.09375 23 
z
M 9.203125 24.5 
C 9.90625 39.140625 17.59375 42.40625 21.59375 42.40625 
C 28.40625 42.40625 33 35.890625 33.09375 24.5 
z
" id="CMR17-101"/>
     </defs>
     <g transform="translate(225.104352 316.691218)scale(0.12 -0.12)">
      <use transform="scale(0.996264)" xlink:href="#CMR17-100"/>
      <use transform="translate(50.89537 0)scale(0.996264)" xlink:href="#CMR17-97"/>
      <use transform="translate(96.585847 0)scale(0.996264)" xlink:href="#CMR17-116"/>
      <use transform="translate(131.866615 0)scale(0.996264)" xlink:href="#CMR17-101"/>
     </g>
    </g>
   </g>
   <g id="matplotlib.axis_2">
    <g id="ytick_1">
     <g id="line2d_6">
      <defs>
       <path d="M 0 0 
L -3.5 0 
" id="mc3b580c40c" style="stroke:#000000;stroke-width:0.8;"/>
      </defs>
      <g>
       <use style="stroke:#000000;stroke-width:0.8;" x="57.6" xlink:href="#mc3b580c40c" y="274.699636"/>
      </g>
     </g>
     <g id="text_7">
      <!-- $0$ -->
      <g transform="translate(44.74701 278.850726)scale(0.12 -0.12)">
       <use transform="scale(0.996264)" xlink:href="#CMR17-48"/>
      </g>
     </g>
    </g>
    <g id="ytick_2">
     <g id="line2d_7">
      <g>
       <use style="stroke:#000000;stroke-width:0.8;" x="57.6" xlink:href="#mc3b580c40c" y="230.190545"/>
      </g>
     </g>
     <g id="text_8">
      <!-- $20$ -->
      <g transform="translate(38.894019 234.341635)scale(0.12 -0.12)">
       <use transform="scale(0.996264)" xlink:href="#CMR17-50"/>
       <use transform="translate(45.690477 0)scale(0.996264)" xlink:href="#CMR17-48"/>
      </g>
     </g>
    </g>
    <g id="ytick_3">
     <g id="line2d_8">
      <g>
       <use style="stroke:#000000;stroke-width:0.8;" x="57.6" xlink:href="#mc3b580c40c" y="185.681455"/>
      </g>
     </g>
     <g id="text_9">
      <!-- $40$ -->
      <g transform="translate(38.894019 189.832544)scale(0.12 -0.12)">
       <use transform="scale(0.996264)" xlink:href="#CMR17-52"/>
       <use transform="translate(45.690477 0)scale(0.996264)" xlink:href="#CMR17-48"/>
      </g>
     </g>
    </g>
    <g id="ytick_4">
     <g id="line2d_9">
      <g>
       <use style="stroke:#000000;stroke-width:0.8;" x="57.6" xlink:href="#mc3b580c40c" y="141.172364"/>
      </g>
     </g>
     <g id="text_10">
      <!-- $60$ -->
      <g transform="translate(38.894019 145.323454)scale(0.12 -0.12)">
       <use transform="scale(0.996264)" xlink:href="#CMR17-54"/>
       <use transform="translate(45.690477 0)scale(0.996264)" xlink:href="#CMR17-48"/>
      </g>
     </g>
    </g>
    <g id="ytick_5">
     <g id="line2d_10">
      <g>
       <use style="stroke:#000000;stroke-width:0.8;" x="57.6" xlink:href="#mc3b580c40c" y="96.663273"/>
      </g>
     </g>
     <g id="text_11">
      <!-- $80$ -->
      <g transform="translate(38.894019 100.814363)scale(0.12 -0.12)">
       <use transform="scale(0.996264)" xlink:href="#CMR17-56"/>
       <use transform="translate(45.690477 0)scale(0.996264)" xlink:href="#CMR17-48"/>
      </g>
     </g>
    </g>
    <g id="ytick_6">
     <g id="line2d_11">
      <g>
       <use style="stroke:#000000;stroke-width:0.8;" x="57.6" xlink:href="#mc3b580c40c" y="52.154182"/>
      </g>
     </g>
     <g id="text_12">
      <!-- $100$ -->
      <g transform="translate(33.041029 56.305272)scale(0.12 -0.12)">
       <use transform="scale(0.996264)" xlink:href="#CMR17-49"/>
       <use transform="translate(45.690477 0)scale(0.996264)" xlink:href="#CMR17-48"/>
       <use transform="translate(91.380954 0)scale(0.996264)" xlink:href="#CMR17-48"/>
      </g>
     </g>
    </g>
    <g id="text_13">
     <!-- fire -->
     <defs>
      <path d="M 39.90625 43.1875 
C 37.5 43.1875 30.09375 43.1875 28.203125 42.796875 
C 27.59375 42.578125 27.40625 42.578125 26.203125 42.578125 
L 14.796875 42.578125 
L 14.796875 54.203125 
C 14.796875 63.640625 22.40625 68 28.40625 68 
C 30.296875 68 34.59375 67.5 36.796875 64.078125 
C 35.796875 64.078125 32.59375 64.078125 32.59375 60.59375 
C 32.59375 58.203125 34.203125 57 36.203125 57 
C 38 57 39.796875 58 39.796875 60.703125 
C 39.796875 65.703125 35 69.59375 28.796875 69.59375 
C 20.90625 69.59375 9.90625 65.125 9.90625 54.203125 
L 9.90625 42.578125 
L 1.90625 42.578125 
L 1.90625 40 
L 9.90625 40 
L 9.90625 6.671875 
C 9.90625 2.875 9.5 2.390625 3.09375 2.390625 
L 3.09375 -0.203125 
C 5.5 0 9.90625 0 12.40625 0 
C 15 0 19.40625 0 21.796875 -0.203125 
L 21.796875 2.390625 
C 15.40625 2.390625 15 2.78125 15 6.671875 
L 15 40 
L 29.703125 40 
C 34 40 34.796875 39.09375 34.796875 34.71875 
L 34.796875 6.671875 
C 34.796875 2.875 34.40625 2.390625 28 2.390625 
L 28 -0.203125 
C 30.40625 0 34.796875 0 37.296875 0 
C 39.90625 0 44.296875 0 46.703125 -0.203125 
L 46.703125 2.390625 
C 40.296875 2.390625 39.90625 2.78125 39.90625 6.671875 
z
" id="CMR17-12"/>
      <path d="M 15 23.390625 
C 15 33 19.09375 42 26.59375 42 
C 27.296875 42 28 41.90625 28.703125 41.59375 
C 28.703125 41.59375 26.5 40.890625 26.5 38.3125 
C 26.5 35.90625 28.40625 34.90625 29.90625 34.90625 
C 31.09375 34.90625 33.296875 35.609375 33.296875 38.40625 
C 33.296875 41.609375 30.09375 43.59375 26.703125 43.59375 
C 19.09375 43.59375 15.796875 36.203125 14.796875 32.703125 
L 14.703125 32.703125 
L 14.703125 43.59375 
L 3.09375 42.5 
L 3.09375 39.90625 
C 9 39.90625 9.90625 39.296875 9.90625 34.5 
L 9.90625 6.6875 
C 9.90625 2.875 9.5 2.390625 3.09375 2.390625 
L 3.09375 -0.203125 
C 5.5 0 10.09375 0 12.703125 0 
C 15.59375 0 20.703125 0 23.40625 -0.203125 
L 23.40625 2.390625 
C 16.203125 2.390625 15 2.390625 15 6.875 
z
" id="CMR17-114"/>
     </defs>
     <g transform="translate(26.716433 167.105153)rotate(-90)scale(0.12 -0.12)">
      <use transform="scale(0.996264)" xlink:href="#CMR17-12"/>
      <use transform="translate(49.742223 0)scale(0.996264)" xlink:href="#CMR17-114"/>
      <use transform="translate(85.022991 0)scale(0.996264)" xlink:href="#CMR17-101"/>
     </g>
    </g>
   </g>
   <g id="line2d_12">
    <path clip-path="url(#pd7a99e20b9)" d="M 73.832727 254.670545 
L 75.08622 261.346909 
L 76.339712 254.670545 
L 77.593205 256.896 
L 78.846697 256.896 
L 80.10019 259.121455 
L 81.353682 263.572364 
L 82.607174 254.670545 
L 83.860667 256.896 
L 87.621144 256.896 
L 88.874637 252.445091 
L 91.381622 261.346909 
L 92.635114 256.896 
L 93.888607 256.896 
L 95.142099 245.768727 
L 96.395591 252.445091 
L 97.649084 250.219636 
L 98.902576 254.670545 
L 100.156069 256.896 
L 101.409561 243.543273 
L 102.663054 250.219636 
L 103.916546 247.994182 
L 105.170039 252.445091 
L 106.423531 245.768727 
L 107.677024 250.219636 
L 108.930516 252.445091 
L 110.184008 250.219636 
L 111.437501 192.357818 
L 112.690993 239.092364 
L 113.944486 165.652364 
L 115.197978 219.063273 
L 116.451471 216.837818 
L 117.704963 250.219636 
L 118.958456 254.670545 
L 120.211948 243.543273 
L 121.465441 250.219636 
L 122.718933 254.670545 
L 123.972425 250.219636 
L 125.225918 247.994182 
L 126.47941 254.670545 
L 127.732903 256.896 
L 128.986395 252.445091 
L 130.239888 254.670545 
L 131.49338 259.121455 
L 134.000365 254.670545 
L 135.253857 259.121455 
L 136.50735 259.121455 
L 137.760842 256.896 
L 139.014335 259.121455 
L 140.267827 254.670545 
L 141.52132 261.346909 
L 142.774812 256.896 
L 144.028305 254.670545 
L 145.281797 256.896 
L 146.53529 256.896 
L 147.788782 263.572364 
L 149.042274 256.896 
L 150.295767 254.670545 
L 151.549259 256.896 
L 152.802752 256.896 
L 154.056244 261.346909 
L 156.563229 256.896 
L 157.816722 252.445091 
L 159.070214 250.219636 
L 160.323707 259.121455 
L 161.577199 247.994182 
L 162.830691 256.896 
L 164.084184 254.670545 
L 165.337676 250.219636 
L 166.591169 252.445091 
L 167.844661 259.121455 
L 169.098154 263.572364 
L 170.351646 256.896 
L 171.605139 256.896 
L 172.858631 252.445091 
L 174.112124 241.317818 
L 175.365616 245.768727 
L 176.619108 252.445091 
L 177.872601 261.346909 
L 179.126093 256.896 
L 180.379586 259.121455 
L 181.633078 254.670545 
L 184.140063 259.121455 
L 185.393556 250.219636 
L 186.647048 250.219636 
L 187.900541 256.896 
L 189.154033 261.346909 
L 190.407525 252.445091 
L 191.661018 261.346909 
L 192.91451 263.572364 
L 194.168003 259.121455 
L 195.421495 261.346909 
L 196.674988 259.121455 
L 197.92848 263.572364 
L 199.181973 263.572364 
L 200.435465 259.121455 
L 201.688958 263.572364 
L 202.94245 261.346909 
L 204.195942 254.670545 
L 205.449435 265.797818 
L 206.702927 259.121455 
L 207.95642 263.572364 
L 209.209912 261.346909 
L 210.463405 254.670545 
L 211.716897 261.346909 
L 212.97039 263.572364 
L 214.223882 259.121455 
L 215.477375 252.445091 
L 216.730867 265.797818 
L 217.984359 261.346909 
L 219.237852 250.219636 
L 220.491344 254.670545 
L 221.744837 261.346909 
L 222.998329 239.092364 
L 224.251822 205.710545 
L 225.505314 241.317818 
L 226.758807 252.445091 
L 228.012299 254.670545 
L 229.265792 245.768727 
L 230.519284 256.896 
L 231.772776 250.219636 
L 233.026269 241.317818 
L 234.279761 254.670545 
L 235.533254 259.121455 
L 236.786746 239.092364 
L 238.040239 210.161455 
L 239.293731 227.965091 
L 240.547224 236.866909 
L 241.800716 214.612364 
L 243.054208 52.154182 
L 244.307701 179.005091 
L 245.561193 243.543273 
L 246.814686 207.936 
L 248.068178 230.190545 
L 249.321671 245.768727 
L 250.575163 254.670545 
L 251.828656 252.445091 
L 253.082148 256.896 
L 254.335641 252.445091 
L 255.589133 256.896 
L 256.842625 254.670545 
L 258.096118 250.219636 
L 259.34961 247.994182 
L 260.603103 254.670545 
L 261.856595 252.445091 
L 264.36358 256.896 
L 265.617073 250.219636 
L 266.870565 259.121455 
L 268.124058 256.896 
L 269.37755 259.121455 
L 270.631042 256.896 
L 271.884535 259.121455 
L 273.138027 256.896 
L 275.645012 256.896 
L 276.898505 254.670545 
L 279.40549 254.670545 
L 280.658982 259.121455 
L 281.912475 256.896 
L 283.165967 256.896 
L 284.419459 254.670545 
L 285.672952 256.896 
L 286.926444 254.670545 
L 288.179937 259.121455 
L 289.433429 261.346909 
L 291.940414 261.346909 
L 293.193907 256.896 
L 294.447399 254.670545 
L 295.700892 256.896 
L 296.954384 254.670545 
L 299.461369 259.121455 
L 300.714861 241.317818 
L 301.968354 236.866909 
L 304.475339 254.670545 
L 305.728831 256.896 
L 306.982324 245.768727 
L 308.235816 256.896 
L 309.489309 256.896 
L 310.742801 254.670545 
L 311.996293 250.219636 
L 313.249786 234.641455 
L 314.503278 254.670545 
L 315.756771 243.543273 
L 317.010263 256.896 
L 318.263756 254.670545 
L 319.517248 250.219636 
L 320.770741 254.670545 
L 322.024233 243.543273 
L 323.277726 259.121455 
L 324.531218 252.445091 
L 325.78471 259.121455 
L 327.038203 256.896 
L 328.291695 256.896 
L 329.545188 254.670545 
L 330.79868 256.896 
L 333.305665 256.896 
L 334.559158 234.641455 
L 335.81265 250.219636 
L 337.066143 259.121455 
L 338.319635 259.121455 
L 339.573127 252.445091 
L 340.82662 256.896 
L 342.080112 259.121455 
L 344.587097 259.121455 
L 345.84059 254.670545 
L 347.094082 259.121455 
L 348.347575 256.896 
L 349.601067 256.896 
L 350.854559 252.445091 
L 352.108052 256.896 
L 353.361544 259.121455 
L 355.868529 254.670545 
L 357.122022 234.641455 
L 358.375514 250.219636 
L 359.629007 254.670545 
L 360.882499 256.896 
L 362.135992 247.994182 
L 363.389484 252.445091 
L 364.642976 259.121455 
L 365.896469 256.896 
L 367.149961 252.445091 
L 368.403454 261.346909 
L 369.656946 250.219636 
L 372.163931 247.994182 
L 374.670916 230.190545 
L 375.924409 245.768727 
L 377.177901 247.994182 
L 378.431393 256.896 
L 379.684886 256.896 
L 380.938378 252.445091 
L 382.191871 245.768727 
L 383.445363 254.670545 
L 384.698856 254.670545 
L 385.952348 256.896 
L 388.459333 252.445091 
L 389.712826 252.445091 
L 390.966318 259.121455 
L 392.21981 259.121455 
L 393.473303 256.896 
L 394.726795 259.121455 
L 395.980288 254.670545 
L 397.23378 256.896 
L 398.487273 263.572364 
L 398.487273 263.572364 
" style="fill:none;stroke:#0000ff;stroke-linecap:square;stroke-width:1.5;"/>
   </g>
   <g id="patch_3">
    <path d="M 57.6 276.48 
L 57.6 41.472 
" style="fill:none;stroke:#000000;stroke-linecap:square;stroke-linejoin:miter;stroke-width:0.8;"/>
   </g>
   <g id="patch_4">
    <path d="M 414.72 276.48 
L 414.72 41.472 
" style="fill:none;stroke:#000000;stroke-linecap:square;stroke-linejoin:miter;stroke-width:0.8;"/>
   </g>
   <g id="patch_5">
    <path d="M 57.6 276.48 
L 414.72 276.48 
" style="fill:none;stroke:#000000;stroke-linecap:square;stroke-linejoin:miter;stroke-width:0.8;"/>
   </g>
   <g id="patch_6">
    <path d="M 57.6 41.472 
L 414.72 41.472 
" style="fill:none;stroke:#000000;stroke-linecap:square;stroke-linejoin:miter;stroke-width:0.8;"/>
   </g>
  </g>
  <g id="axes_2">
   <g id="matplotlib.axis_3">
    <g id="ytick_7">
     <g id="line2d_13">
      <defs>
       <path d="M 0 0 
L 3.5 0 
" id="m7bb42fe83e" style="stroke:#000000;stroke-width:0.8;"/>
      </defs>
      <g>
       <use style="stroke:#000000;stroke-width:0.8;" x="414.72" xlink:href="#m7bb42fe83e" y="252.206787"/>
      </g>
     </g>
     <g id="text_14">
      <!-- $3$ -->
      <defs>
       <path d="M 22.09375 33.703125 
C 31 33.703125 34.90625 25.96875 34.90625 17.03125 
C 34.90625 5 28.5 0.390625 22.703125 0.390625 
C 17.40625 0.390625 8.796875 3.03125 6.09375 10.828125 
C 6.59375 10.625 7.09375 10.625 7.59375 10.625 
C 10 10.625 11.796875 12.21875 11.796875 14.8125 
C 11.796875 17.703125 9.59375 19 7.59375 19 
C 5.90625 19 3.296875 18.203125 3.296875 14.46875 
C 3.296875 5.234375 12.296875 -2 22.90625 -2 
C 34 -2 42.5 6.71875 42.5 16.953125 
C 42.5 26.671875 34.5 33.703125 25 34.796875 
C 32.59375 36.375 39.90625 43.0625 39.90625 52.015625 
C 39.90625 59.6875 32 65.296875 23 65.296875 
C 13.90625 65.296875 5.90625 59.828125 5.90625 52.015625 
C 5.90625 48.59375 8.5 48 9.796875 48 
C 11.90625 48 13.703125 49.296875 13.703125 51.890625 
C 13.703125 54.46875 11.90625 55.765625 9.796875 55.765625 
C 9.40625 55.765625 8.90625 55.765625 8.5 55.578125 
C 11.40625 61.859375 19.296875 63 22.796875 63 
C 26.296875 63 32.90625 61.328125 32.90625 51.875 
C 32.90625 49.109375 32.5 44.1875 29.09375 39.84375 
C 26.09375 36 22.703125 36 19.40625 35.6875 
C 18.90625 35.6875 16.59375 35.453125 16.203125 35.453125 
C 15.5 35.359375 15.09375 35.265625 15.09375 34.5 
C 15.09375 33.796875 15.203125 33.703125 17.203125 33.703125 
z
" id="CMR17-51"/>
      </defs>
      <g transform="translate(421.72 256.357877)scale(0.12 -0.12)">
       <use transform="scale(0.996264)" xlink:href="#CMR17-51"/>
      </g>
     </g>
    </g>
    <g id="ytick_8">
     <g id="line2d_14">
      <g>
       <use style="stroke:#000000;stroke-width:0.8;" x="414.72" xlink:href="#m7bb42fe83e" y="209.15827"/>
      </g>
     </g>
     <g id="text_15">
      <!-- $4$ -->
      <g transform="translate(421.72 213.30936)scale(0.12 -0.12)">
       <use transform="scale(0.996264)" xlink:href="#CMR17-52"/>
      </g>
     </g>
    </g>
    <g id="ytick_9">
     <g id="line2d_15">
      <g>
       <use style="stroke:#000000;stroke-width:0.8;" x="414.72" xlink:href="#m7bb42fe83e" y="166.109754"/>
      </g>
     </g>
     <g id="text_16">
      <!-- $5$ -->
      <g transform="translate(421.72 170.260844)scale(0.12 -0.12)">
       <use transform="scale(0.996264)" xlink:href="#CMR17-53"/>
      </g>
     </g>
    </g>
    <g id="ytick_10">
     <g id="line2d_16">
      <g>
       <use style="stroke:#000000;stroke-width:0.8;" x="414.72" xlink:href="#m7bb42fe83e" y="123.061238"/>
      </g>
     </g>
     <g id="text_17">
      <!-- $6$ -->
      <g transform="translate(421.72 127.212328)scale(0.12 -0.12)">
       <use transform="scale(0.996264)" xlink:href="#CMR17-54"/>
      </g>
     </g>
    </g>
    <g id="ytick_11">
     <g id="line2d_17">
      <g>
       <use style="stroke:#000000;stroke-width:0.8;" x="414.72" xlink:href="#m7bb42fe83e" y="80.012722"/>
      </g>
     </g>
     <g id="text_18">
      <!-- $7$ -->
      <g transform="translate(421.72 84.163812)scale(0.12 -0.12)">
       <use transform="scale(0.996264)" xlink:href="#CMR17-55"/>
      </g>
     </g>
    </g>
    <g id="text_19">
     <!-- wind -->
     <defs>
      <path d="M 58.203125 34.109375 
C 60.203125 40 64.203125 40 65.703125 40 
L 65.703125 42.6875 
C 63.703125 42.6875 61.703125 42.6875 59.703125 42.6875 
C 57.796875 42.6875 53.5 42.6875 51.796875 42.78125 
L 51.796875 40 
C 54.90625 40 56.59375 38.203125 56.59375 35.71875 
C 56.59375 35.015625 56.40625 34.125 56.203125 33.4375 
L 46.796875 6.359375 
L 36.59375 35.546875 
C 36.40625 36.234375 36.09375 37.03125 36.09375 37.421875 
C 36.09375 40 39.5 40 41.09375 40 
L 41.09375 42.78125 
C 38.796875 42.6875 34.59375 42.6875 32.203125 42.6875 
C 29.703125 42.6875 27.09375 42.6875 24.796875 42.78125 
L 24.796875 40 
C 30.296875 40 30.296875 39.796875 32.40625 33.578125 
L 23.203125 7.046875 
L 13.296875 35.640625 
C 12.796875 36.921875 12.796875 37.125 12.796875 37.421875 
C 12.796875 40 16.203125 40 17.796875 40 
L 17.796875 42.78125 
C 15.40625 42.6875 11.203125 42.6875 8.703125 42.6875 
C 6.5 42.6875 3.09375 42.6875 1 42.78125 
L 1 40 
C 5.40625 40 6.5 39.703125 7.59375 36.421875 
L 19.90625 0.765625 
C 20.296875 -0.515625 20.59375 -0.8125 21.40625 -0.8125 
C 22.09375 -0.8125 22.5 -0.609375 23 0.875 
L 33.296875 30.9375 
L 43.703125 0.875 
C 44.203125 -0.609375 44.59375 -0.8125 45.296875 -0.8125 
C 46.09375 -0.8125 46.40625 -0.515625 46.796875 0.78125 
z
" id="CMR17-119"/>
      <path d="M 15.5 61.078125 
C 15.5 63.265625 13.703125 65.15625 11.40625 65.15625 
C 9.203125 65.15625 7.296875 63.375 7.296875 61.078125 
C 7.296875 58.890625 9.09375 57 11.40625 57 
C 13.59375 57 15.5 58.796875 15.5 61.078125 
z
M 3.796875 42.28125 
L 3.796875 39.703125 
C 9.40625 39.703125 10.203125 39.09375 10.203125 34.328125 
L 10.203125 6.671875 
C 10.203125 2.875 9.796875 2.390625 3.40625 2.390625 
L 3.40625 -0.203125 
C 5.796875 0 10.09375 0 12.59375 0 
C 15 0 19.09375 0 21.40625 -0.203125 
L 21.40625 2.390625 
C 15.5 2.390625 15.296875 2.984375 15.296875 6.5625 
L 15.296875 43.375 
z
" id="CMR17-105"/>
      <path d="M 41.5 30.203125 
C 41.5 35.296875 40.5 43.59375 28.703125 43.59375 
C 20.796875 43.59375 16.703125 37.5 15.203125 33.5 
L 15.09375 33.5 
L 15.09375 43.59375 
L 3.296875 42.5 
L 3.296875 39.90625 
C 9.203125 39.90625 10.09375 39.296875 10.09375 34.5 
L 10.09375 6.6875 
C 10.09375 2.875 9.703125 2.390625 3.296875 2.390625 
L 3.296875 -0.203125 
C 5.703125 0 10.09375 0 12.703125 0 
C 15.296875 0 19.796875 0 22.203125 -0.203125 
L 22.203125 2.390625 
C 15.796875 2.390625 15.40625 2.78125 15.40625 6.6875 
L 15.40625 25.90625 
C 15.40625 35.109375 21 42 28 42 
C 35.40625 42 36.203125 35.40625 36.203125 30.59375 
L 36.203125 6.6875 
C 36.203125 2.875 35.796875 2.390625 29.40625 2.390625 
L 29.40625 -0.203125 
C 31.796875 0 36.203125 0 38.796875 0 
C 41.40625 0 45.90625 0 48.296875 -0.203125 
L 48.296875 2.390625 
C 41.90625 2.390625 41.5 2.78125 41.5 6.6875 
z
" id="CMR17-110"/>
     </defs>
     <g transform="translate(439.87517 171.332313)rotate(-90)scale(0.12 -0.12)">
      <use transform="scale(0.996264)" xlink:href="#CMR17-119"/>
      <use transform="translate(66.509881 0)scale(0.996264)" xlink:href="#CMR17-105"/>
      <use transform="translate(91.380939 0)scale(0.996264)" xlink:href="#CMR17-110"/>
      <use transform="translate(142.276309 0)scale(0.996264)" xlink:href="#CMR17-100"/>
     </g>
    </g>
   </g>
   <g id="line2d_18">
    <path clip-path="url(#pd7a99e20b9)" d="M 73.832727 158.176528 
L 75.08622 225.639702 
L 76.339712 238.677253 
L 77.593205 109.039721 
L 78.846697 227.546137 
L 80.10019 191.323885 
L 81.353682 212.66365 
L 82.607174 167.278214 
L 83.860667 180.254267 
L 85.114159 147.967879 
L 86.367652 140.157649 
L 87.621144 163.096358 
L 88.874637 136.406278 
L 91.381622 222.318817 
L 92.635114 165.37178 
L 93.888607 102.028963 
L 95.142099 86.531497 
L 96.395591 61.071374 
L 97.649084 139.173683 
L 98.902576 168.446674 
L 100.156069 163.957328 
L 101.409561 191.508379 
L 102.663054 152.211233 
L 103.916546 181.60722 
L 105.170039 152.764714 
L 106.423531 133.331384 
L 107.677024 200.733061 
L 108.930516 137.082755 
L 110.184008 84.379071 
L 111.437501 155.470621 
L 112.690993 178.778317 
L 113.944486 153.195199 
L 115.197978 164.20332 
L 116.451471 161.189924 
L 117.704963 200.241078 
L 118.958456 160.882434 
L 120.211948 174.842453 
L 121.465441 201.163546 
L 122.718933 169.000154 
L 123.972425 143.294041 
L 125.225918 254.482208 
L 126.47941 215.123565 
L 127.732903 229.329575 
L 128.986395 215.246561 
L 130.239888 162.665873 
L 131.49338 134.991827 
L 132.746873 183.821144 
L 134.000365 212.786645 
L 135.253857 218.690442 
L 136.50735 248.33242 
L 137.760842 229.637065 
L 139.014335 262.353937 
L 140.267827 231.359005 
L 141.52132 120.847314 
L 142.774812 205.775887 
L 144.028305 211.679683 
L 145.281797 208.912279 
L 146.53529 260.939486 
L 147.788782 89.175906 
L 149.042274 130.317988 
L 150.295767 232.773456 
L 151.549259 244.396556 
L 152.802752 235.29487 
L 154.056244 212.110169 
L 155.309737 101.475482 
L 156.563229 178.962811 
L 157.816722 186.650046 
L 159.070214 88.560927 
L 160.323707 144.708492 
L 161.577199 165.617771 
L 162.830691 176.625892 
L 164.084184 73.124959 
L 165.337676 174.042981 
L 166.591169 153.379693 
L 167.844661 155.101634 
L 169.098154 160.636443 
L 170.351646 215.984535 
L 171.605139 190.954898 
L 172.858631 158.545515 
L 174.112124 178.778317 
L 175.365616 126.074634 
L 176.619108 203.746457 
L 177.872601 70.972533 
L 179.126093 176.256904 
L 180.379586 96.248162 
L 181.633078 163.957328 
L 182.886571 185.604582 
L 184.140063 202.393504 
L 185.393556 193.168821 
L 186.647048 135.237818 
L 187.900541 170.968087 
L 189.154033 191.016396 
L 190.407525 201.163546 
L 191.661018 197.412175 
L 192.91451 183.575152 
L 194.168003 192.184855 
L 195.421495 248.947399 
L 196.674988 236.770819 
L 197.92848 67.098167 
L 199.181973 131.301954 
L 200.435465 243.658581 
L 201.688958 153.994672 
L 202.94245 184.128633 
L 204.195942 161.128426 
L 205.449435 233.511431 
L 206.702927 170.660597 
L 207.95642 148.951846 
L 209.209912 242.920607 
L 210.463405 184.436122 
L 211.716897 150.427795 
L 212.97039 124.414191 
L 214.223882 172.136546 
L 215.477375 189.417451 
L 216.730867 181.484224 
L 217.984359 179.762284 
L 219.237852 204.668925 
L 220.491344 199.749095 
L 221.744837 204.299938 
L 222.998329 202.762491 
L 224.251822 113.652062 
L 225.505314 157.746042 
L 226.758807 147.475896 
L 228.012299 199.933588 
L 229.265792 180.131271 
L 230.519284 185.358591 
L 231.772776 171.275576 
L 233.026269 143.355538 
L 234.279761 53.384139 
L 235.533254 156.885072 
L 236.786746 125.090668 
L 238.040239 177.794351 
L 239.293731 126.505119 
L 240.547224 170.722095 
L 241.800716 186.465553 
L 243.054208 151.965242 
L 244.307701 191.569877 
L 245.561193 215.369556 
L 246.814686 197.104686 
L 248.068178 173.858487 
L 249.321671 132.408916 
L 250.575163 136.098789 
L 251.828656 201.90152 
L 253.082148 210.572722 
L 254.335641 145.815454 
L 255.589133 207.928313 
L 256.842625 180.008275 
L 258.096118 129.764507 
L 259.34961 212.909641 
L 260.603103 209.834747 
L 261.856595 215.984535 
L 263.110088 155.163131 
L 264.36358 58.057978 
L 265.617073 166.355746 
L 266.870565 212.294662 
L 268.124058 234.064912 
L 269.37755 160.451949 
L 270.631042 208.543292 
L 271.884535 188.064497 
L 273.138027 178.347832 
L 274.39152 261.98495 
L 275.645012 52.154182 
L 276.898505 129.580013 
L 278.151997 112.360607 
L 279.40549 238.738751 
L 280.658982 122.015774 
L 281.912475 168.938657 
L 283.165967 167.278214 
L 284.419459 216.476518 
L 285.672952 178.71682 
L 286.926444 226.808162 
L 288.179937 251.591808 
L 289.433429 179.393296 
L 290.686922 62.608821 
L 291.940414 133.884865 
L 293.193907 123.368727 
L 294.447399 164.387813 
L 295.700892 99.876537 
L 296.954384 174.165976 
L 298.207876 148.767352 
L 299.461369 158.853004 
L 300.714861 213.340126 
L 301.968354 118.07991 
L 303.221846 115.189509 
L 304.475339 149.68982 
L 305.728831 204.115444 
L 306.982324 181.053739 
L 308.235816 97.47812 
L 309.489309 164.018826 
L 310.742801 116.60396 
L 311.996293 115.988982 
L 314.503278 158.730008 
L 315.756771 187.080531 
L 317.010263 209.219768 
L 318.263756 224.040757 
L 319.517248 175.457432 
L 320.770741 250.177357 
L 322.024233 140.526636 
L 323.277726 201.34804 
L 324.531218 215.246561 
L 325.78471 240.706683 
L 327.038203 202.639495 
L 328.291695 173.120512 
L 329.545188 240.399194 
L 330.79868 265.797818 
L 332.052173 219.858902 
L 333.305665 220.842868 
L 334.559158 216.784008 
L 335.81265 214.078101 
L 337.066143 163.280852 
L 338.319635 216.476518 
L 339.573127 226.377677 
L 340.82662 214.939071 
L 342.080112 190.647408 
L 343.333605 162.604375 
L 344.587097 250.607842 
L 345.84059 177.363866 
L 347.094082 140.895623 
L 348.347575 180.74625 
L 349.601067 173.4895 
L 350.854559 128.350056 
L 352.108052 164.080324 
L 353.361544 145.507964 
L 354.615037 115.312505 
L 355.868529 173.919985 
L 357.122022 119.986344 
L 358.375514 164.20332 
L 359.629007 181.238233 
L 360.882499 168.323678 
L 362.135992 184.80511 
L 363.389484 166.109754 
L 364.642976 207.313334 
L 365.896469 112.237611 
L 368.403454 181.791714 
L 369.656946 114.267041 
L 372.163931 136.590772 
L 373.417424 163.157856 
L 374.670916 177.978845 
L 375.924409 197.412175 
L 377.177901 156.762076 
L 378.431393 191.75437 
L 379.684886 103.320418 
L 380.938378 205.960381 
L 382.191871 211.003207 
L 383.445363 212.479156 
L 384.698856 149.197837 
L 385.952348 175.703423 
L 387.205841 164.080324 
L 388.459333 191.262387 
L 389.712826 149.443829 
L 390.966318 193.353315 
L 392.21981 214.262594 
L 393.473303 136.467776 
L 394.726795 103.012929 
L 395.980288 175.703423 
L 397.23378 166.417244 
L 398.487273 197.719665 
L 398.487273 197.719665 
" style="fill:none;stroke:#ff0000;stroke-dasharray:5.55,2.4;stroke-dashoffset:0;stroke-width:1.5;"/>
   </g>
   <g id="patch_7">
    <path d="M 57.6 276.48 
L 57.6 41.472 
" style="fill:none;stroke:#000000;stroke-linecap:square;stroke-linejoin:miter;stroke-width:0.8;"/>
   </g>
   <g id="patch_8">
    <path d="M 414.72 276.48 
L 414.72 41.472 
" style="fill:none;stroke:#000000;stroke-linecap:square;stroke-linejoin:miter;stroke-width:0.8;"/>
   </g>
   <g id="patch_9">
    <path d="M 57.6 276.48 
L 414.72 276.48 
" style="fill:none;stroke:#000000;stroke-linecap:square;stroke-linejoin:miter;stroke-width:0.8;"/>
   </g>
   <g id="patch_10">
    <path d="M 57.6 41.472 
L 414.72 41.472 
" style="fill:none;stroke:#000000;stroke-linecap:square;stroke-linejoin:miter;stroke-width:0.8;"/>
   </g>
   <g id="legend_1">
    <g id="patch_11">
     <path d="M 325.325335 101.245787 
L 406.32 101.245787 
Q 408.72 101.245787 408.72 98.845787 
L 408.72 49.872 
Q 408.72 47.472 406.32 47.472 
L 325.325335 47.472 
Q 322.925335 47.472 322.925335 49.872 
L 322.925335 98.845787 
Q 322.925335 101.245787 325.325335 101.245787 
z
" style="fill:#ffffff;opacity:0.8;stroke:#cccccc;stroke-linejoin:miter;"/>
    </g>
    <g id="line2d_19">
     <path d="M 327.725335 56.472 
L 351.725335 56.472 
" style="fill:none;stroke:#ff0000;stroke-dasharray:5.55,2.4;stroke-dashoffset:0;stroke-width:1.5;"/>
    </g>
    <g id="line2d_20"/>
    <g id="text_20">
     <!-- wind -->
     <g transform="translate(361.325335 60.672)scale(0.12 -0.12)">
      <use transform="scale(0.996264)" xlink:href="#CMR17-119"/>
      <use transform="translate(66.509881 0)scale(0.996264)" xlink:href="#CMR17-105"/>
      <use transform="translate(91.380939 0)scale(0.996264)" xlink:href="#CMR17-110"/>
      <use transform="translate(142.276309 0)scale(0.996264)" xlink:href="#CMR17-100"/>
     </g>
    </g>
    <g id="line2d_21">
     <path d="M 327.725335 73.196596 
L 351.725335 73.196596 
" style="fill:none;stroke:#0000ff;stroke-linecap:square;stroke-width:1.5;"/>
    </g>
    <g id="line2d_22"/>
    <g id="text_21">
     <!-- fire -->
     <g transform="translate(361.325335 77.396596)scale(0.12 -0.12)">
      <use transform="scale(0.996264)" xlink:href="#CMR17-12"/>
      <use transform="translate(49.742223 0)scale(0.996264)" xlink:href="#CMR17-114"/>
      <use transform="translate(85.022991 0)scale(0.996264)" xlink:href="#CMR17-101"/>
     </g>
    </g>
    <g id="patch_12">
     <path d="M 327.725335 94.121192 
L 351.725335 94.121192 
L 351.725335 85.721192 
L 327.725335 85.721192 
z
" style="fill:none;"/>
    </g>
    <g id="text_22">
     <!-- $\rho=0.07 $ -->
     <defs>
      <path d="M 3.09375 -17.296875 
C 3 -17.796875 2.796875 -18.390625 2.796875 -19 
C 2.796875 -20.5 4 -21.5 5.5 -21.5 
C 7 -21.5 8.40625 -20.5 9 -19.09375 
C 9.40625 -18.1875 12.203125 -6.203125 15.40625 6.09375 
C 17.40625 1.09375 21.09375 -1 25 -1 
C 36.296875 -1 49.09375 12.96875 49.09375 28.046875 
C 49.09375 38.71875 42.59375 44 35.703125 44 
C 26.90625 44 16.203125 34.921875 12.90625 21.640625 
z
M 24.90625 1 
C 18.09375 1 16.40625 8.890625 16.40625 10.078125 
C 16.40625 10.6875 18.90625 20.234375 19.203125 21.734375 
C 24.296875 41.71875 34.09375 41.71875 35.59375 41.71875 
C 40.09375 41.71875 42.59375 37.65625 42.59375 31.8125 
C 42.59375 26.75 39.90625 16.9375 38.203125 12.796875 
C 35.203125 5.953125 30 1 24.90625 1 
z
" id="CMMI12-26"/>
      <path d="M 64.296875 31.515625 
C 65.796875 31.515625 67.296875 31.515625 67.296875 33.203125 
C 67.296875 35 65.59375 35 63.90625 35 
L 8 35 
C 6.296875 35 4.59375 35 4.59375 33.203125 
C 4.59375 31.515625 6.09375 31.515625 7.59375 31.515625 
z
M 63.90625 14 
C 65.59375 14 67.296875 14 67.296875 15.796875 
C 67.296875 17.484375 65.796875 17.484375 64.296875 17.484375 
L 7.59375 17.484375 
C 6.09375 17.484375 4.59375 17.484375 4.59375 15.796875 
C 4.59375 14 6.296875 14 8 14 
z
" id="CMR17-61"/>
      <path d="M 18.40625 4.796875 
C 18.40625 7.6875 16 9.671875 13.59375 9.671875 
C 10.703125 9.671875 8.703125 7.28125 8.703125 4.890625 
C 8.703125 2 11.09375 0 13.5 0 
C 16.40625 0 18.40625 2.390625 18.40625 4.796875 
z
" id="CMMI12-58"/>
     </defs>
     <g transform="translate(361.325335 94.121192)scale(0.12 -0.12)">
      <use transform="scale(0.996264)" xlink:href="#CMMI12-26"/>
      <use transform="translate(77.988382 0)scale(0.996264)" xlink:href="#CMR17-61"/>
      <use transform="translate(177.377179 0)scale(0.996264)" xlink:href="#CMR17-48"/>
      <use transform="translate(223.067656 0)scale(0.996264)" xlink:href="#CMMI12-58"/>
      <use transform="translate(250.164833 0)scale(0.996264)" xlink:href="#CMR17-48"/>
      <use transform="translate(295.85531 0)scale(0.996264)" xlink:href="#CMR17-55"/>
     </g>
    </g>
   </g>
  </g>
 </g>
 <defs>
  <clipPath id="pd7a99e20b9">
   <rect height="235.008" width="357.12" x="57.6" y="41.472"/>
  </clipPath>
 </defs>
</svg>
